<mxfile modified="2025-04-05T15:38:48.669Z" host="Electron" agent="Mozilla/5.0 (Windows NT 10.0; Win64; x64) AppleWebKit/537.36 (KHTML, like Gecko) draw.io/21.8.2 Chrome/114.0.5735.289 Electron/25.8.1 Safari/537.36" etag="zWAoup7Ht4Cg_7UM2hW9" version="21.8.2" type="device">
  <diagram id="Ht1M8jgEwFfnCIfOTk4-" name="Page-1">
    <mxGraphModel dx="1968" dy="1073" grid="1" gridSize="10" guides="1" tooltips="1" connect="1" arrows="1" fold="1" page="1" pageScale="1" pageWidth="1169" pageHeight="827" math="0" shadow="0">
      <root>
        <mxCell id="0" />
        <mxCell id="1" parent="0" />
        <mxCell id="UEzPUAAOIrF-is8g5C7q-128" style="edgeStyle=orthogonalEdgeStyle;rounded=0;orthogonalLoop=1;jettySize=auto;html=1;startArrow=open;startFill=0;endArrow=open;endFill=0;strokeWidth=2;strokeColor=#808080;" parent="1" target="GDhWvtcsFQyv_KERrtP--1" edge="1">
          <mxGeometry relative="1" as="geometry">
            <Array as="points">
              <mxPoint x="310" y="335" />
              <mxPoint x="310" y="335" />
            </Array>
            <mxPoint x="230" y="335" as="sourcePoint" />
            <mxPoint x="350" y="440" as="targetPoint" />
          </mxGeometry>
        </mxCell>
        <mxCell id="UEzPUAAOIrF-is8g5C7q-137" value="" style="edgeStyle=orthogonalEdgeStyle;rounded=0;orthogonalLoop=1;jettySize=auto;html=1;startArrow=none;startFill=0;endArrow=open;endFill=0;strokeWidth=2;strokeColor=#808080;" parent="1" source="UEzPUAAOIrF-is8g5C7q-117" edge="1">
          <mxGeometry relative="1" as="geometry">
            <mxPoint x="930.5" y="162.5" as="targetPoint" />
          </mxGeometry>
        </mxCell>
        <mxCell id="UEzPUAAOIrF-is8g5C7q-139" style="edgeStyle=orthogonalEdgeStyle;rounded=0;orthogonalLoop=1;jettySize=auto;html=1;startArrow=open;startFill=0;endArrow=open;endFill=0;strokeWidth=2;strokeColor=#808080;" parent="1" target="UEzPUAAOIrF-is8g5C7q-111" edge="1">
          <mxGeometry relative="1" as="geometry">
            <mxPoint x="230" y="310" as="sourcePoint" />
            <mxPoint x="422.5" y="124.02941176470586" as="targetPoint" />
            <Array as="points">
              <mxPoint x="312" y="310" />
              <mxPoint x="312" y="122" />
            </Array>
          </mxGeometry>
        </mxCell>
        <mxCell id="UEzPUAAOIrF-is8g5C7q-111" value="Amazon &lt;br&gt;Cognito" style="outlineConnect=0;fontColor=#232F3E;gradientColor=#F54749;gradientDirection=north;fillColor=#C7131F;strokeColor=#ffffff;dashed=0;verticalLabelPosition=bottom;verticalAlign=top;align=center;html=1;fontSize=12;fontStyle=0;aspect=fixed;shape=mxgraph.aws4.resourceIcon;resIcon=mxgraph.aws4.cognito;labelBackgroundColor=#ffffff;" parent="1" vertex="1">
          <mxGeometry x="370" y="80" width="78" height="78" as="geometry" />
        </mxCell>
        <mxCell id="GDhWvtcsFQyv_KERrtP--9" value="" style="group" vertex="1" connectable="0" parent="1">
          <mxGeometry x="370" y="300" width="78" height="106.5" as="geometry" />
        </mxCell>
        <mxCell id="GDhWvtcsFQyv_KERrtP--1" value="" style="sketch=0;points=[[0,0,0],[0.25,0,0],[0.5,0,0],[0.75,0,0],[1,0,0],[0,1,0],[0.25,1,0],[0.5,1,0],[0.75,1,0],[1,1,0],[0,0.25,0],[0,0.5,0],[0,0.75,0],[1,0.25,0],[1,0.5,0],[1,0.75,0]];outlineConnect=0;fontColor=#232F3E;fillColor=#8C4FFF;strokeColor=#ffffff;dashed=0;verticalLabelPosition=bottom;verticalAlign=top;align=center;html=1;fontSize=12;fontStyle=0;aspect=fixed;shape=mxgraph.aws4.resourceIcon;resIcon=mxgraph.aws4.elastic_load_balancing;" vertex="1" parent="GDhWvtcsFQyv_KERrtP--9">
          <mxGeometry width="78" height="78" as="geometry" />
        </mxCell>
        <mxCell id="GDhWvtcsFQyv_KERrtP--8" value="ALB" style="text;html=1;align=center;verticalAlign=middle;resizable=0;points=[];autosize=1;strokeColor=none;fillColor=none;" vertex="1" parent="GDhWvtcsFQyv_KERrtP--9">
          <mxGeometry x="14" y="76.5" width="50" height="30" as="geometry" />
        </mxCell>
        <mxCell id="GDhWvtcsFQyv_KERrtP--11" value="" style="swimlane;startSize=0;" vertex="1" parent="1">
          <mxGeometry x="630" y="162" width="160" height="360" as="geometry" />
        </mxCell>
        <mxCell id="GDhWvtcsFQyv_KERrtP--14" value="" style="group;movable=1;resizable=1;rotatable=1;deletable=1;editable=1;locked=0;connectable=1;" vertex="1" connectable="0" parent="GDhWvtcsFQyv_KERrtP--11">
          <mxGeometry x="4" y="10" width="685" height="408" as="geometry" />
        </mxCell>
        <mxCell id="GDhWvtcsFQyv_KERrtP--44" value="" style="group" vertex="1" connectable="0" parent="GDhWvtcsFQyv_KERrtP--14">
          <mxGeometry x="405" y="121.12" width="78" height="103" as="geometry" />
        </mxCell>
        <mxCell id="GDhWvtcsFQyv_KERrtP--39" value="" style="sketch=0;points=[[0,0,0],[0.25,0,0],[0.5,0,0],[0.75,0,0],[1,0,0],[0,1,0],[0.25,1,0],[0.5,1,0],[0.75,1,0],[1,1,0],[0,0.25,0],[0,0.5,0],[0,0.75,0],[1,0.25,0],[1,0.5,0],[1,0.75,0]];outlineConnect=0;fontColor=#232F3E;fillColor=#ED7100;strokeColor=#ffffff;dashed=0;verticalLabelPosition=bottom;verticalAlign=top;align=center;html=1;fontSize=12;fontStyle=0;aspect=fixed;shape=mxgraph.aws4.resourceIcon;resIcon=mxgraph.aws4.lambda;" vertex="1" parent="GDhWvtcsFQyv_KERrtP--44">
          <mxGeometry width="78" height="78" as="geometry" />
        </mxCell>
        <mxCell id="GDhWvtcsFQyv_KERrtP--43" value="Lambda" style="text;html=1;align=center;verticalAlign=middle;resizable=0;points=[];autosize=1;strokeColor=none;fillColor=none;" vertex="1" parent="GDhWvtcsFQyv_KERrtP--44">
          <mxGeometry x="4" y="73" width="70" height="30" as="geometry" />
        </mxCell>
        <mxCell id="GDhWvtcsFQyv_KERrtP--33" value="" style="group" vertex="1" connectable="0" parent="GDhWvtcsFQyv_KERrtP--14">
          <mxGeometry x="-8" y="-8.5" width="50" height="62" as="geometry" />
        </mxCell>
        <mxCell id="GDhWvtcsFQyv_KERrtP--12" value="" style="sketch=0;points=[[0,0,0],[0.25,0,0],[0.5,0,0],[0.75,0,0],[1,0,0],[0,1,0],[0.25,1,0],[0.5,1,0],[0.75,1,0],[1,1,0],[0,0.25,0],[0,0.5,0],[0,0.75,0],[1,0.25,0],[1,0.5,0],[1,0.75,0]];outlineConnect=0;fontColor=#232F3E;fillColor=#ED7100;strokeColor=#ffffff;dashed=0;verticalLabelPosition=bottom;verticalAlign=top;align=center;html=1;fontSize=12;fontStyle=0;aspect=fixed;shape=mxgraph.aws4.resourceIcon;resIcon=mxgraph.aws4.ecs;" vertex="1" parent="GDhWvtcsFQyv_KERrtP--33">
          <mxGeometry x="5" width="40" height="40" as="geometry" />
        </mxCell>
        <mxCell id="GDhWvtcsFQyv_KERrtP--13" value="ECS" style="text;html=1;align=center;verticalAlign=middle;resizable=0;points=[];autosize=1;strokeColor=none;fillColor=none;" vertex="1" parent="GDhWvtcsFQyv_KERrtP--33">
          <mxGeometry y="32" width="50" height="30" as="geometry" />
        </mxCell>
        <mxCell id="GDhWvtcsFQyv_KERrtP--90" value="" style="group" vertex="1" connectable="0" parent="GDhWvtcsFQyv_KERrtP--14">
          <mxGeometry x="25" y="37.12" width="100" height="301.88" as="geometry" />
        </mxCell>
        <mxCell id="GDhWvtcsFQyv_KERrtP--75" value="" style="shape=image;verticalLabelPosition=bottom;labelBackgroundColor=default;verticalAlign=top;aspect=fixed;imageAspect=0;image=data:image/webp,UklGRnwnAABXRUJQVlA4IHAnAADwAQGdASogAyADPlEok0ajoqGhIrgIGHAKCWdu/DZ5xdG5uOf+WM5eomTOQXxyLi/vf7bt8Yz9m/ev8p+vv90/cfrKd8u9H9k/Xj7686fInmu+NflX+U/tn+U/9P+D//////HHow/sHqAfxn+Z/7/+t/5n/xf2T6xejn/tegL9Uv2A/7Xwq/7P9kvd5/U/917A/9K/pX/6/cbuavQe/cr/6+t/+2f/k+W/+u/7H9zvZ//6f7x/////+HV0k/a39Ye8n7kPX/r4+yHOY9J/pfMz+OffL+b68ew/gBd995P8PzArIjUgyAO+28Df67/v/YC/lf+a9YD/I8hP1cEuLziPd1etdQmNuoTG3UJjbqExt1CY26hMbdQmNuoTG3UJjbqExt1CY26hMbdQmNuoTG3UJjbqExt1CY26hMbdQmNuoTG3UJjbqExt1CY26hMbdQmNuoTG3UJjbqExt1CY26hMbdQmNuoTG3UJjbqExt1CY26hMbdQmNuoTG3UJjbqExt1CY26hMbdQmNuoTG3UJjbqExt1CY26hMbdQmNuoTG3UJjbqExt1CY26hMbdQmNuoTG3UJjbqExOkO9OeuiWXypJEML5HixAUE08B3CklHhSSjwpJR4Uko8KSRS9T5BM+enVhP53GL20x7uToZF+HPfgxvmuBl8zflQpH1CY26hMbdQmNuoTG3TxgA///3NTf/2hUedK2B7jSUe7qZG2IHpvqjZtlXTTKINlRFVetdQmNuoTG3UJigq9k9P/a1//pynuv9Qw3p2GQjwpJE9V/9YS+BqZO9ZZdGMM0aV4jOYn+R/hSSjwpJR4UVL+Qtu+EEV2G9fVyS0qSTR/hSSGe8sfvde8xnVQkg3XrDAkgyb/EO/nEe7q9a6hLASlcTqf/tBRf7Z3YJyloF08YsEfwKSUeEbvi5N8VbY7RWsweO1ZlC2hyKvthTe4QKPd1etdQmJ43sbB0b/Ldjn+GbCYTG3UJXJGXlcWQ8CcIAGiSl1CY26hMbc92R29XI/TiceQzyxI1rqExtnOiBeoHm4VucfcJjAv37Kqr1rqExt08JNpS5gkxwhW85OrUDR4Uko8KKNBWlwwSQ5AGEmQW9pkONuoTG3UJX8rJf4WibCxGZ6buyceMrtUMPzcRL3dTJHF7evIQUnrKpnWic2f2mXnEe7q9a57YapZeOzrxyjZU1E26J/OI4Kxt91fwZtcjSP9Y4iLYmxU7C6UGh8eEnkCUeFJKPCklC72clGkmT9Kb/n8Yn+EegEj7Vky0Kgzg7bbkvLzD4eePIZFTgA7k4ElU7q9a6hMbdPBaxnUfnash/AOCo/EcFMfuMz/HolEQWN02o9YzxWaJAMN1SP2Kvxv0bqExt1CY2zmpxyeJmpa5PjZWcfDrGD6QiUeKz3vhcrNoy7IrgM9TPK6/Kxx1v+cR7ur1rqDud90mc5I/vlvZOFPR5MTrDbJ1R0ZPFeF5rMiSVHhWuvmOYJer0+GDizpPaj3dXrXUJYs/nsaCYxyuf4q0u0QiP+FFGwIzSYas/UdLfJOPEsD69GHLyOY136P8KSUeFJKQiuDWriB5s8IPs5xKO+llLYXco+gUXjNvxVxNDqu38321YAJw1vVlxMkPysmxrMbdQmNuoTGs7PTRxX+jXftX4R7uQtJnrwmJBTvhPSAszaxVgSUcaCySVWlYPVOt85MJl5xHu6vWungqK7keWXqIqsGvWsz+IOlgaUGxQriLNuZzDaSjkDPi6p4MiTHvsFnziPd1etdQlg0JpUx8TBhx8wozG3PdnYmfEFZ6Gn/XWGrdy6P7wo6rHQk3ejLsmcmclLyCWo8KSUeFJKPCN7j9/iSdr0bo6+fJJ7xpF0DhEmNs4uXN4MF6nhq5S5tR7ur1rqExrQbmBs2Toa5tnX+FJKPCklHhSSjvg5xC7yiNrnAVMVV611CY26g7uqVQ8VxMDlVZHu6vWuoTG3UJjWfd/OWvyLyZda6hMbdQmNsyxRvSfziPd1etdQmNuoTHco50wW3gEy84j3dXrXUT5ecRw08ddku5dH4brzK9y6Pw3XmV7dbgGiA0ZexpqPCklHhSSjwpJR4RmkyTN7pq+7qFAFMruOlYVOYTLziPd1etdQmNuoTG3UHcQSsRclJCtkpibkKn1/FQr3lmIc0ZecR7ur1rqExt1CY26d1vIcrCO0QYj6tjDX/42exPPzZf7/kxt1CY26hMbdQmNuoSxYlY0+7ASLdoRselhvGfgTv09ns7Gcelf5H+FJKPCklHhSSjwpG3N/EcuYoxhoBxU3imNL0qaI3UbOkKH9PH4V5xecR7ur1rqExt1CY26hMTsxWq1cNM8F9uxygCeIZ5XQ7Jy//sL6zEdhdr1rqExt1CY26hMbdQmNuzUzAEJpVhP1Ug5IUX4Ar+/vO8FHI0f6eR/hSSjwpJR4Uko8KSUeFJK6kElB9dJGXRMk07/SJT/N/er5XUQP8KSUeFJKPCklHhSSjwpJR4UkoZq8h6t+V0rUX4ygr9XF5xHu6vWuoTG3UJjbqExt1CY26hMn3Xz5H+FJKPCklHhSSjwpJR4Uko8KSUeFJKPCklHhSSjwpJR4Uko8KSUeFJKPCklHhSSjwpJR4Uko8KSUeFJKPCklHhSSjwpJR4Uko8KSUeFJKPCklHhSSjwpJR4Uko8KSUeFJKPCklHhSSjwpJR4Uko8KSUeFJKPCklHhSSjwpJR4Uko8KSUeFJKPCklHhSSjwpJR4Uko8KSUeFJKPCklHhSSjwpJR3wAD+/wBAAAAAAAAAAAAAAAAAAAAAAAAAAAAFU91SHx95dnRCp230WJkcvCtGxeY3NWrVCC77mKpOYCM6CABJinzu23zUKxqqrqYW7Po2ltCxOx1B4sLqOuae+tlXY/4UmQbFlGqJIMxf4GV2gQgXKoETs7lNNYobr7iR+0A39QjHHohY5owyKeSy+iLe/9YcIq+x3ClovGy9O0l2FHiGhgaTjqoVF7VKY0N+OTbXb3WusQ1GK9SZ3N06zF+ac4ziECgAAG4MvkRfAaAsntXIPNtk/PJXgjShY3v3Ezdd9p87s2HXsqKfyi7XafoT39eoI38tq9PYX/Q8DV+bf5r6yeb0oNz3p7iVoFAU0iKhr/Qr3TD1J5hZJQMLFhZu23nHJUPG92cwtOWSaIizs6a5+/6P5GICoFV2go4te/i15XioQ1WtXMzpa3f5ftzkdnAezDwdbQ1qAtj8w+F61UCFFLmuYrpj15PnON8u4Wn08jBcnVdFC/ieOGVGiwWPcXDZHklItaQ+pwLHpP7F1xRulwV1bqsnPaS7Z//T//pMLjLDtgJKmWF3W3La//9JhcZYaxDnYMvZpfTb0mw3GzB6VPw4E9MjrZjLqLRGh9+sj9upQ1idNpCOOFijkUPwklH4djHpvbbHLD50KD2Rc1f4fqO1j8k3L1awMFvHjqET9oP+HnPPxnju6IegAAy2Zdmvp7Nu04uWtXRjQITsWLqyRXI1kR3oUeYAFXS1ER10s9kVWDAXRnC+nQzKC4NCKY/PqUbLl39fUtbzq/VvJZqeTtKY3WjDOIoFTtucAqAqrR0Hmc2Vk1y1vKHyB5QfLybL22NJbimSzsg9MAxQPyinNLdmsCIG5kDcekmnx+4Hduz+jVU2WxKd/74/6DY6GXdCrXkO8NK0rz/JFE7mOGYXmlS2ehGwzj6FXUVCzezt2S7KFM2HBKpux1mCHE5hjCdBxCZPQ9JZ3sDFc5PllbEcBfR4AjI1ckhoVOuGkXXblocTYGLMOCo76N0AyAB84qZ1bbp+N/Xlhjy3QZAFed+8+vz8kJTQRKyN0V2yhdhzVSNg4wcWBKoFMxsbiQwEW+26yUV7g9JOQcAyVf+4vs1TuAVnLs+myKzCnCFKTpHRg0lO2t8mk9mqYgRN76LPpLRUBCiByw7/wALpcxj9DHNWXm9qrcD3cK/9Hq78TMoWlwkRBoLT7x0nZHIKjYLVbX9Smu+zHOmSrQWPIFPo8kzV1FeQPGJ6LO7Q82tL39QX6UymMLEY59VrnfHShK8+ijbibZFFY65hVIdcQEK15d6eDpPfR6CjuKGuWf9yNAF/jc95LkqS4CuMjCI4R67BAgizdBkNFU3tapQXrLuMslsY/lq3hcYX6rJ+qYGh8H7ZQdf5vXJ+aRZrjJ5pHo0zIpPQE0zFht5flcf49eUEHqGCYLrk1ZLGZ9m5kU5BeH7W+PxuFvJFUbvdjBEzJ4QLb0kGUnbbnZQxBsv/89tbRUKUpqs4bxVua++arnuC7dUFK1p3A8kfMXmBecc3GysgQcHkEaqybQL6elXdANdqVEw+jAVW07kxfONhBZoUxUsqWhCWOmED3D/jX+NJUlFNyUY0GmKMC8ZGi/3yWtKHOOPGmQvHt7Gn7s74AQP1CfM7ThntPlWH1T4Dwmy++/GtBlATdkXBGFE3m8VuY5KkuktnKBoCyffBDlUk3L/zyrEaxvJAUrPYx7FDxzwhH9N2pcw3wYKndANv4V4h2rmhngvPbsoaqckAnxScaDuy8WPYrYRolbubLVnibLndcvbGxNbwWi5zGjXJLmkeCtZVNj9BpM3WgT4iFyQ5rJSTljc6iboX5bbeRzWyqFxBe0HjzeyeYDRNUkoDpXhRdreW883WPW4N7SYqKOA9L61jAHldA2IpIZ9Eyfx7CKK0UWftB2xvFcTiz6umZCaOhuGEFKfVnUhZ7zUEJumg9pUyLpKdcqHjq0TIB/mOfmhybdZsM0naIu/UjY8dc3sbktF5X18xdaR6gymUTRHL8ArOxJqoEfE7LVT7G2rIB+rhtneTt0rlx1vqMZNE6XELfovbwI+DiFXUCl+tZtR+AoOJAsIfIxAMghWnf1lZeJAVbzicKBkrNdr1lbPYlIOb79J94LMjbyOJiGMkG2XX7Iauug9WnHP34gIGWINqMEy8opNlmgE5fDWc3keMd/IIAfEimnEppB0rRNIHDRPQEfCLpcr5hCu6q3C4RIuPJcitK+BakXzajx6gCmkHtfP3Db6xlj7A11ZUoCIP84vCizflhkazKuZeZNs5YO+g+p64Tjofj0LsI4/Rr/Gn+O0c+/MaDMmokUWIVXqbHj5XrIv++i/ndblRNw+LEcW8Ae8FaeDTcANTAhp1iNAsFgiALmsN0c4zH0S34KtpmHjhWbEN2aNmVrPfxCcTKV93nZz4vzfsluopnWp0Ne3Sx+V69rKQh0R0FYDMVCagbUkTS/wggYZq+ttPDyb5LlI++9/M69EuM36pimhxW3f+kiruFbq5iFq8Vd071RUONCTcqSOC5KBaaZT21k3dOOsy4dH1B53oU6HEqV8t06WOgOcbWAsaF9KvjREFiXMQY+wJIPxLGvku1BTr3qMXjYBkMcVUmxlAIUejPyXxrOh1m8ZAvr6+O+JO04A/Iw1XvXsW4bGf4mvt6Q+adjK9SvXVRqjE+O3GAID9Kj5z/Nh7q4sJNM2JI48FvRmgbPCESjNa2uxI0/GZ0chJgScv/Lt8AB6lI77Qex6WW+NSl1BdvSyj0YgSTJTvp5jGbFfyiHp7zLFdd/Jb2BLyGOoRs9UDt459GorseRix6GvTs78ZoR94FZxPD2I42+hUmZc0W8Q0ueArzLJJ7nEgeB8NJPvEfyIO1+m1okQBIXabThecie1hOsy8fssqQ3hsVto/gTGFM3TKlig4ensBXhKuZHXIfQb2kAcp1+UHwi39mV+efaA8mq+yrv8oPgaJLNfTqvODKjqa/AJgDKNqseWt1CiZ8UiMvWB+iRX2b9TKcwfhLCRahxYm0EIv5qNj1xHKZ6nCcCOS+DjPyFMWoKCJH6Q01hSa+zSHZIibPfkodOO3ZVOwNCEzc1nVVTvtzPzp0IJskaWJVkf/Df8bdhoGRw8lpYsmUgWB+2VneVVWkqMafB0D34IOQAUOxaUVHhVjCxt4mebeRwoJkq+TdfvXFMpjsBUvhPIrvPyKPe/MTPkRi1IqVrcxbyVN3PVrMGYEUVfhoba/l6gCwtySK4uAVCeSXs5UVgYa2o9RUrNDWYRk5qjNt2UAmMHZ4mAAg1Gsb1QC2QNAJHOrUIU001VOEhgFAVuvlMl6/gvGTLUSKOv6h+gi/+iRb/yJ6BghSNzdR9m+NyOAApZNBbPBjdUbYKq4YerNo38dHtA9eisuFqH2mJNYGOlBLIU+eyiXS4AKjoHFjJ2ww/kT2LOZjy5n6cAEt3gjYAR5ACkm3uG4KsiklfGAcHvelsvmG4p55TwON8iIjgWDd4tiKI8A7D7ryRiMudoLINysRNjh+ZRqHxW4ENRuIE8CtijAWzQLSXaxb9tlIH5fwMufm0C2ooMGyHV6gEvY3DJQpttXwZQko1xb4yrnX5zE1B4T3NzdXP2pFgnVbwV91ozI716EA4Smn5UxHLOWdVnLHVqyAEP5FR37X81KfKrmXyXmLhsKgSzTib4lT1I/2r/y383iaeDna+ygWOw0+Q/If4vh5V/gUbvUfAVBzo8d+Z19pmQ/Ch6iK30s/MdrxC1wGCnmPKfAIvVUG0OSLfwiKNa9l/gXnKJ5T1dgzzJjPE7+0Blw+csCoZG9swzoKCmpzlEVmoAO9yGiajF8WNRCavxTiSMfyGBovvAcGOUmB08aIbLpZcxI+Cu2dTzkiejKnLZkleiBPSzRBlsfejHYSrknbPd9Q7fXPl1PkUc5G+gPUzPT/rkTNa0SPczAhuDLbYVbpqIYYLnFBoEeleUCoCHkH/DkIZjCbrkxya/2DWlR95OaiRjiU2sOSf7P5QlAsWVr8sPYI0wQxj+PyMF0JVAo7K5UW32IiiUGYrlhSrNET6CPvVnR7ZqBkTsS7uMz1LoOAu3fhBNy5Ju8M6gETLN0FycEh5xTIQJut148uY/1jHcvX5yEVCcH3u+DO2T4DlHk+AASPevjAiUP/4qRBVdYyaMWVqmpJzX8q0i87KdUxracVSVRwxi3glO56c4KuQwDjIr1e6ehj8+C+iWpxyPC2ejz6W0PrdRY8hLDid+0JSxsG9Sr+jrIFAzTwm/UMbfv2U0lNuWtXtJINQ8xbnv8cctZiJjs1CJTmhfpteO7Lj7grEz472gvtW6IFibeguI9jExBPRKSvv3t6ilIwBbRY6faw+kuPmPCB4QzHRZYWDon5hxo2Fv6pxqrqsPbdCO+DfQsUk4Y68Fvy3t3dQUbgNv42nZKGsKev5AgGdzUkpdEMWKN1q7KwQysk7n23mLKIORdaCoKUnTKhs3N+0qxScvKJQLhpt68SIMxbX8SS+skBO90uLDpm1fkSWIPqG28dVFiTYsloCeKTdraAV+lJ02rws0iXIj8fkU5vCUij+530wCq6YlbOohVWEKdYBS1xyeN4DMwCThE+AJV1mpYrt61SxrOwj79WezPRkZhu3bvZEGcemsjvYCUm2T/ws8JvN0PjIrQ13IJ5xyFoJ1btHHduQgbL8xkxwwZFd7291URzwkAFtjWdP5XJ4GS2rtBe29esaZlWvgIlOSUHCM2TbGK0XFLcVNCWyRRQBdVXDLBx+o3GMTdRhMiLd8j74EGmTjXnHHsd3x9NP/wZRFRxblailJBPIJsHpEDhn6KoLlS6L5HYyQOPRFOwl9FQoXvUfF9fTiHyAAfzmddHgGZ1ZOCTLeQ+9CwJMKHEHFeOAlHMWeWYzk3ehGtHXlt2wfBiHPxHgTmjadY+11VKj71saLiQGP5UcfVvjtxKF4yyKfbdTGoh2S7L+n8O+4q8mgG8yscJqOtF1CeAmTnHxNS6CSSvKPiUj3mmq3MQvWK1q6A7CCrsg1Mzb/FVpb6bkzdeZWS52z4XKz833bpy5fmcETtQUJE9+yqS4OlIqaiZdSMmhAVWQW9D9+S2OSnDbyHLDQEYcpXgsDXc9h/esRQ48bt9J1iHR7IVBhOsuWgcdHiUpM2s68B56C05K+GdElD76w7OOdhupAIrl1Yfj6CcG55zuujlWHiWhHh4yJhAqthXcf88V1Xnt9R0aIE7DgPwAHgSbOL8AQ7msOTxiCdNYcGWyQ06G9tdWY7HWOlgi2m1nbSHEZIgXChZ15T7K9BZYBxkBXrsF427x5FMm90WkKaNvyUviFeOoVpKmLtwUNhQ/kMm6C8B9z7W5ZGBoc64N1lShCGyPoOjvVmd3kjpHJyhvO513ce7cpjPuLJWcGhUrXxnGGaYbccKCQN5oH00RS5Jy53gaP/HgrI3zy1QhsygmErJyWTJEDDHdh8ehkmyvmSAqUU+e1CNyJqsEyKHhvwzB+p4sJqHPU/56XvXy/84r1ZBA1KeWL84vhDbxsmy18L7isFHQhMj2m2Li/EP/WOUquMnhSa5V3qa9QX243Ayc2sZMaPahZ17hQsJad74DIhH/0/uhknKL+bCwClhUYUJBwOSI+aZ5dUkz7GaH9dvApoEdWgxoGX0cOjoZ/agj4iMdfjf06TozoCVSqxtL4ARBSlllt2lPbcwULLZHvEy5Ie++fX7Y6qMspU2nIFvTRhW95IMmUJM44F1FuuDexaAF4cfcvFrz8S0NwiWRIpeLEujNDwFYTMBEkx3bibjh7RkwxsuZ6BntBP26u414kkyzYoy8QPwV39U9eRhtaSrYNpq4eA2aGcNrD8Qr4G620sS12C3QW8A5tihp1om6vp7uaKu8pphyRzUxSxlg72uNdttZbrzJfi5cJHDegIJ/vLMl2WK5FDpqORNXrO4uOj4//LXY80jKegZZ813fgB7iLvvtRNwpMBMZJ3g0i/Vo6WwuvDPzK4fxsw+eHh9KtkF5dY6d3SYB3htIWsK0BUOToYHXrnMJk2EtrQ7V1Bn+uEbYYaGsunDmCGcfeaG4Z8mJRdvz4SKRFMubti0+jLqKHPWwMQdtcn3ZCxulm2FRFeTXdphpLwChwc5WAGoAleaW7BBJ4rV9we2EDv53YM4uyuTUV1D+osrnHw1qNPwmGdAdcg16CGXhDtrUbQWlajL4TfaJ1UBb54ZYKo6cUb9ExzYZ6L18isOpu6+PwATxMzjsF/cy7hU46mOMWUe8s0Aml31Q03cvKfbp7kvYW6mUgYFoG+xZfdvhtBfsYYl2wRMvpFie7hVrhaDuF7IwMAWtGelU4vw57CSrTjEZ9tlxQMJPSj+MVovwv+3CWDaRDZdQxvjJLyOrXnK+VsKKQVUGuUoP0Zu13cW/bBWpL0Fscy2FC65zmUH1Wyxo2QCgSRINBMZXu3lz7typEaWUvPUGM9f5BK95YlCFpmCzscnf8vPfN7zFTEOpRSswbwD/IrBw370pQR7omjQAxS8mCVP5ME+adYSA1chHIAuIfTcfo6ywmgE4O9eYG1yDhVKomlTqbpFSaooEQVq+q5lRz/NGS78z8GAcn+TGi7A/rlzlwFOQInGzCoSImxKESJL/60gKtEYtFUszsE8RDq3E2UEChsw9GdjwegWDa0GakijwbKRxKC+WuShR/FXT0SR2xktn77eQAVlm6+/G5ouekCi3z2RdH5xuf+7ZHhoOVIqYNz35bZc8mQslI/45dqorTNk8pFIHl/5mXAlvxgf3jhvgok3MfjyAfhfkriUUvpaiTOhlKh+b+RSny7NG3k+mwpXL7dZL/3TDtP2FO1M4OGPd5k8aO9kDdxs8uEHx0j/3yLmW8MLJ/+Gqr2eH4mYtWoSXRbfTuNsiEXfb+qhrJwbK3TkS9qkwYoGax/Wmdlu3ujIlPi80gH6DpF+hYT9z3stpEYYv7m1d0t4jup7YwGTDkS4tNXEltJDbaFoqYWTz02W7U2p0KDkS3Mvoa+6yUzqGT0grQWA+oPFngMUre9j+Wjm/afsIGsHOMPjzLLPYOy/Kf+BOBmT7wVK0AIqCJIyx021SKBXE+rUN3UQrEY93uA65GkQ6acBVQ5N2GpUEhEIS07yoy1LUTgEIEkyxflGfftOs8/nFLyJcpz87C2wi268NZdbxXciICETzy0hJuTYlQ7pIHAwUrEpuTQXsyqXqMsZpt1cuEtzbR7+sx0kGofThBbOa2DQsUPjeyIyi6LHwFRY88O6wc67mM+FYjEi2YhgRnhk5WeguhGpMl3frcJq4n7MufXFtL1Odert6sfcvEwSTdkLgWwVSAKIpuoIwpLQCH6va/92oH7/xGUFx8TckUEc186mmJOBuOqE9Do5G7s2TGiLpWHld8aoIlPdioW7+Gb/eYV2j2sDdfQcRrdrWQk4cJ9aspQxn9+RtNujOWOJbBIjWDNb1vlYudyz890K4D6RrsstavZ4Xwmg/QErblqi2VD2PR3qxV6xQhIbxWPa7ajbCBrPjcpBtBmCnsv102NLi8K7QSDk8Rjte/wv7uK9x38MSPb03Soj+7wFInN3HAHx1jYnCF4PzywPvK/8Z9Zk5t44LXI0sd+yvyv04JzsyMNuepxfSrimziC3nJKqDe7rG8ECdnc8xr6Om1QOzEL77pzlY5u2HyqOZIpuh+1DuSVV7DIoqAHMPiyHFw91QaJuHHujJpodIlrwm5pmg4uRZpJfkkNU/dcj646KaZjUw1n4F8OgrEyglv5UbMbTvWW3xRS74Gtw0muiA9VO07zj4A2KwnnidmiIW7B8TWW8xnqt+zw37ew+CZfBUv2Uo5fhRmPUTtGSNOmw3Y9KHPDwGU0iWV/g+GxnLnZCa2RTEFAAAY0TJ9sXWbt0JttIUTYaWfQhM9H6bs5iatFU7LhWzyurPenKSbzhD+QMKS9e03JjFVtKSwXvMGc7epHb8ok0KfP0sBDkbOpBNg3wp4DDqQecBwAfmliqlbhwlgM6cVh0XG2H20Dsb+kaPIOmSaUp8dp/WfyyZqzl2qvlaQY1G3KvMVEdVFIAHAeAC4nJZaj/BtOAaZa0PSCoRB0/jFgVMU15AEqaIfUq4jXQrCvshIjuwV0Jiax9X9r3kRRGZ4an3FbwfMjGmkxA/5lCGy3GKmMUxgFneoTNeaDiW+iOljyHf8vTPeMvxBvFr+/YAitMdYQUdd+WQ+VCwnbZhBxpyOpxjKKB5nC27j+59rtEtNHwPtZSkLvqP4cAAT1mADMCvVLI+EvcsbY8Ii2wEAPztQjqhO7rR3YpUH6E3AQhYcUAUyfCTsjut+CajfXjPJgkJxAACB9+W8Ja34Kv/8HKzHVxVSX/vvcX//DXy7XAPN+nu6XEnwQF9I3wDQGBkyhbyi5iFBoXv2MFPcPt1CIe+2jVFpd6++35XGkEwurvBVYXqJK1DajiGhabgb8G796oYH6MO3/2AchmSoAACOIYKI157kngLtuHEr7PSMmEuzvWCCWnQ8kd/JR3t/nvLYWWywgQhFLqU30lHq01pjKZ9ZZ9Bbr8XE5Yg9v1OScha5N2PU3DUFLmtHfGhPAFOcRxC3ww+0WL+hk549W/VOBq6lOY4w/D5FOp1C0dYRiEpo5ZRJeY2finLVlimRuBK4ZP43XclfoS3XictADUFbHXxFSlgpxrUgANC3LLbgO0wGI5YmBCNJZ1TB/rLVH5RPRIOY0ygs+LbYJVWjSv7WrpDclpuJ3IDtvToqmSG4g8T51mSP35LrXBlDPJA0cgtiH24HZh/U3jFTsdoXgsJ1OmGXWCN7yHRCl/LG0GFo9hQWuFTR4LndOY9oLJx0OfGAROrzQTwYoOsAzLL0aow2+/cChnyPcTyI+PUwAXkahHhMSSzcv9quAX2ztQX2mJEtzkR8AKqoxqBSCEa4958VP6r59RzekietL89/x1GteIKV0sniudVlVScHQJBBOK3UM6SVkRAtnq07lmlVSGABilrwapK7EzvQNHNWTxOFK5XbAn4p1O1vm2WO9e8axMFXb0vpMMNaRDTywccS6gIRkMROokWyg80tzmE/+TUMU5zAUE1dgAEm8vQg//twLe4w3i3ey6pPwi8/37aEq2JsehUOTni8nJa9svfTjDP+RGu8v7lcnxMPZucAM2kFsDfeLGfbUkZWHXpRiEOZqOvOlngK3tjv0jqJHmBctscXgxIegJNSstByV4MB4xHzhWwIEfgCHfAaS/Cp6UHjHGBVtMRywSRnQsm582bK5qoH4vrbWLUkELLS2RJ5sxa/ND3qi4AAgLUIGV61JhptVYfekVV8HpmFSvED7M2XRPu2ugIL16pVLwi41jxW4NzaIptW+ohCbGfkwL9niMWBb1q/ewD5AJkPqaZumYolFqcF5eXrbSgy1I2tp1pMS9X8pEDsXgPqnZNIXqNs1sq1NMimTzsNSpRP4Ml75ebN7aYUNUBtiEv/pVTbww6h7te/Ta3ObU5MzMKprKB4Og+9a0HCk2FeJyQPX+u58tJcj2YYmM7dn3okUwtPLE6QrgeYpp8tT7REptJOIP9j5Py0Kg66EfwoYV/K3PC4oXDheOrZ6W1GdAdixFH5ak2zzUvLi3yxu1FX21tGeFcXYtAABEmKm2rPHodOl+fdNjXB8q5V59DqaaSnM/aLsrbKC0VmozyLXliPAo1Yc38OU1984E7S+hcahz0gIiTXtslYgIt7gNUL/r5DC0gFXOoaI7N18/hHOdBEAnZrltUJMP3Cseuxc1ntu9dCDtHIHUg9Owyd0jXyvi5K5/RBzj+RmHaMXoOpn3NRAmwkbw/7NawOBxOn4b1CUUu/3w/ca3rGya0CRQI3jzIQb2T5ngL3ZPI/dQIUxXbY0gLmENFILHVgc8b1ilsqXZG44YE6NOVHQSYITanSltZaYaDkSjh0/CnILW4NcSCIDyBHTnFX2YI1N/4AAAC64k8Exhkp8kwlYAsvpYfBCrPbIFrz3M0+0NFoGCzMB7t3KV8SFb2BoUciRq6rDfNYNcN5C1efy1dxVFPzXDz7b+jSjh/Wpvp/JXOsbHsTnApkI1VrG1jBOaYKVqfSEjn49bhzexfF8n6HFGySf28sS7hnVa3uHDAqOMigIdqS88vp0hVKOMctf1puBC7okfxgzU1VpIifOtMY6XA8qUwSvX0NFd3Bt5QsfWmnp1jb8uK5cH4LLg09ftBLT2dakU0CZEvWqByf28q+IRX3iKuxKMmNJ8GinF4rORhokYkAAAALXRpz87fkCBesJjwq0p5KNvf+4xXxXQDQkWD0ZfBLWdP0ajkJpObI408lQ/7H+/cRgzuJceJuX/y7rk3gX++4lMx8O9vI2Lxs5jQH1kf83BUDYoYW2pCJ9LYEW2cTstjhE49NY8yEFbDJ4fNi0vqGT/fx8LJZrg9Rro+H4VwOZGd0mqz8CdoGyNGBDISaMqttOJh2OdsQtAcLl6Jm6H1EXMYpHVc+XretZMeI74eSlg7VxncehaL5f5i/P7GIXacPCXBc39FfIcXuFNHFRF9hZhzEl00p44AAAHNcjCgmiiihVF8ImLJCLvpcPqeOe0dmDjcI3Q7T4kbX46jTT3JW9nh9MA4+iaRBZB/+iiLBV6/9unYdgE++R8ZO/ce5Ovzn+TdUpUZvZ//D9vn1CCO1frS2biXIPNrXL7GYxBoRO3wAAAAAAAAAAAAAAAAAAAAAAAAAAAAAAAAAA;" vertex="1" parent="GDhWvtcsFQyv_KERrtP--90">
          <mxGeometry x="15" width="70" height="70" as="geometry" />
        </mxCell>
        <mxCell id="GDhWvtcsFQyv_KERrtP--76" value="Angular" style="text;html=1;align=center;verticalAlign=middle;resizable=0;points=[];autosize=1;strokeColor=none;fillColor=none;" vertex="1" parent="GDhWvtcsFQyv_KERrtP--90">
          <mxGeometry x="19" y="50.00000000000001" width="60" height="30" as="geometry" />
        </mxCell>
        <mxCell id="GDhWvtcsFQyv_KERrtP--78" value="" style="edgeStyle=orthogonalEdgeStyle;rounded=0;orthogonalLoop=1;jettySize=auto;html=1;startArrow=none;startFill=0;endArrow=open;endFill=0;strokeWidth=2;strokeColor=#808080;entryX=0.485;entryY=0.043;entryDx=0;entryDy=0;entryPerimeter=0;" edge="1" parent="GDhWvtcsFQyv_KERrtP--90">
          <mxGeometry relative="1" as="geometry">
            <mxPoint x="50.00000000000023" y="74" as="sourcePoint" />
            <mxPoint x="50.10145" y="108.27900000000005" as="targetPoint" />
            <Array as="points" />
          </mxGeometry>
        </mxCell>
        <mxCell id="GDhWvtcsFQyv_KERrtP--71" value="" style="group" vertex="1" connectable="0" parent="GDhWvtcsFQyv_KERrtP--90">
          <mxGeometry y="109" width="100" height="76" as="geometry" />
        </mxCell>
        <mxCell id="GDhWvtcsFQyv_KERrtP--69" value="" style="shape=image;verticalLabelPosition=bottom;labelBackgroundColor=default;verticalAlign=top;aspect=fixed;imageAspect=0;image=data:image/png,iVBORw0KGgoAAAANSUhEUgAABHYAAAP4CAYAAAC4LHumAAAAAXNSR0IArs4c6QAAAARnQU1BAACxjwv8YQUAAAAJcEhZcwAAHYcAAB2HAY/l8WUAAP+lSURBVHhe7P1nkKTpdeD7narMysrK8rarvZ2ZHu9nMAAGbjAACAJ0IJfcXe6ubKwidG9ICq0i9EEfpNAHXUVc6Sr2hhR3VxG72l0u75IESRAg7PiZnva+q7urqsv7qvTeZ+o9Tz9DDGbaZPk0/18xUfWebESAPVNvPu95znNOU9khAAAAAAAAqDnN9jsAAAAAAABqDIkdAAAAAACAGkViBwAAAAAAoEaR2AEAAAAAAKhRJHYAAAAAAABqFIkdAAAAAACAGkViBwAAAAAAoEaR2AEAAAAAAKhRJHYAAAAAAABqFIkdAAAAAACAGkViBwAAAAAAoEaR2AEAAAAAAKhRJHYAAAAAAABqFIkdAAAAAACAGkViBwAAAAAAoEaR2AEAAAAAAKhRJHYAAAAAAABqFIkdAAAAAACAGkViBwAAAAAAoEaR2AEAAAAAAKhRJHYAAAAAAABqFIkdAAAAAACAGkViBwAAAAAAoEaR2AEAAAAAAKhRJHYAAAAAAABqFIkdAAAAAACAGtVUdtifAQC7pKxf5ZLzKkvJ+dKf736/G/+EiX7qGgCAndbkfDU3NZvv+n/6H81NLnOtX65ml43ZPwMA2FYkdgCgCmSLaYllQxLLhSXqvGK5uz/rK5GL2T8lEsgsSTwXsVcAAOy8Nne7dHp6pd3dJU1NIq0ur/R794jX7ZP2li7Z6zssHlebDLbtdb632v8WAGC7kNgBgB2UyicknPWbVyjjl4jz3Z++m6zJl3JSKOV//SrnnVheis7rE7lS1rwHAMBucTW5xN3c4nx3m2ut1tEEjn7XmNfV9g+xLk+veXV6eqTXOyh72g5Kn3dIfO4OcTXf/e8DADaHxA4AbJNcMWsqbsLZNQln7iZzItmgSeKkCnFJ5uPmezwXNRU7AADUG03yaCWP13W3mkeTPL6WTul2vve0DppkT6/9rn9Gj28BANaHxA4AbAG9lWolTTQXkkQ+apI3kWxAQpk1CWZWJJBeMd81mVMsF+x/CwCAxqTHuXpbB6S/ba85xjXg3WuSOz2t/aa6R5NA+mfo0QMAD0diBwA2SJsY69GobCElqUJSotmAzMTGZTk1I3PxCQmmV8zxKgAA8HCa4DnQeVwOdpyQve2HZci33yR32lw+07PHzdEtALgnEjsAsE46wUqcW2e6kJLZ+LiMh686r2syFbtt/wQAANiMpqZm6fL0yYmep+Sp/lfkRPdT0u8d0jeo4gGAzyCxAwDroD1zpqK3TDJnKjYqiVxEssWM5PRVyto/BQAANkubNHtcXml1tZmjWXt8B+SZgS/Ika6Tpi8PE7cA4C4SOwDwAFqdk8rHZSY25rxGZTk5K8HMmjl2FctF6JcDAMAO0Clb2oRZj2tpA+b97UflUNcj5tiWHtkCgEZGYgcA7iFVSJgeOWupBVlMzshCYlKWEjNmqhXJHAAAdldP64Ds8e2Xve1HZH/HUZPc2ec7YiZuMVkLQKMhsQMAn6LTrHQs+VJy1lTozERHZTE5bSZeAQCA6uJubjFTtI52PS6P9jxrmi73tw1Jt6fPec9j/xQA1DcSOwAamh61KpYKpj+O9sm5HbosF9fel+nobUkXkvZPAQCAWqBTtZ4b+JI8M/Cq9HmHxePyiLupxTRjBoB6RWIHQEPTceQryTm5tPaB8/pQEvmo5Is5KZWLJukDAABqhx7DcjW1SHdrn5mmpa8jXY+Z5ssAUK9I7ABoSDrJajJ6U24FL8p07JaEMmvmGFaxXHLe5bYIAEAtczW5pb2l0yR0DnQck5N9L5ijWgNtw/ZPAED9ILEDoKFoU+SJyIhMRW/KfHxSVlJzEjUNkYv2TwAAgHrS7u6UQd8+Odz1mDzW+5yc6H7KJH100hYA1AMSOwAaglbjrKUXZS5+R24FL8h0bNT00CmZCh0AAFDvNJlzsPOEPNrzjBzoOC77O45JT2s/CR4ANY/EDoC6pT1yssW0SepMRW/JtcAZGQtflVQ+bv8EAABoRMe6n5AXh74qJ3qell7vgHS29Nh3AKD2kNgBUJfK5ZLpo6Mjy08v/0rGw9ckmgvadwEAQKNrafbIoa5H5NU9b8gX9n7L9OVpbmpy3tEXANQOEjsA6k6hlJel5IycXv6ljATOSzIfM+PMddIVAACAanK+3M0t0tHSLcPth+SbB38gR7pPis/dYf8EANQGEjsA6spcfEJuhy7KWPiaLCdnTWNkxpYDAID7aWpqFk9zq+xrP2yOaH0yIt3rbrd/AgCqG4kdADVPJ1olclEzvvx26JJMREfEn1py4gX7JwAAAB6up3XAJHXM9Kyep82odACodiR2ANQ0nWy1kpo3I8yv+T82R7A0BgAAsBHaa2ewba882f+yPDv4Rdnbftgcz2J6FoBqRWIHQE3SapxMISUzsTE5u/KWXFx9374DAACweS16PKvjiHzz4B/I0a7Hpau1zzRcBoBqQ2IHQE0KpJdNc+RLq+9LILNKY2QAALDltP+OVus8N/hleW3vm3K8+0n7DgBUDxI7AGpKvpSTm8GLcnH1PTPKPJoLmSlYAAAA26HZJHc65WDnCXlu8EtmPLrH7TVTtQCgGpDYAVATtEFyKL0q1wKn5UbwnCwlpiVVSEipXLJ/AgAAYPt4XT4Z8u2XR3qekVeH35A9vgPicXntuwCwe0jsAKh6mWJaFhPTMhI4Zxokr6YXOXoFAAB23N2jWe3y/ODr8tTAK3K066R0efrsuwCwO0jsAKhqyXxMZmN35OLae3LVf1rShYR9BwAAYPc83veivLTna3Ky93kzJl2PbAHAbiCxA6AqlZ2vfDEn1wNn5N35v5Hp2Kh9BwAAoDr0e4dNcufrB35POj09JHcA7AoSOwCqUiwXlrfm/kqu+89IKLtGg2QAAFB1mptc0tHSLcd7npLvH/1nMti2T9zNLfZdANgZJHYAVJVCqSCzsTE5tfRTGQtfMwmeYrlg3wUAAKgun0zNOtz1qLy+/3tyvPsJk+wBgJ1CYgdA1Ujm4zIRGZHLax/KzdB5cw0AAFDtdPS5Vuqc6HnaTMx6rPc503cHAHYCiR0Au0776WQKKbkVvCjnVt+R8fA1yRbT9l0AAIDaoc2Unxv8spzse072+A7aKABsHxI7AHaVji1PFRIyHR2VX87+hczGR81xLAAAgFo15NsvLwx95R+aKmtFDwBsFxI7AHaV9tC56v9YfjL1HySRjzkRbkkAAKD29XoH5cWhr8j3j/4L8bi8NgoAW4/EDoBdE0ivyDX/x/LO/N9INBcy1TsAAAD1wNXkNtU6ejTrGwf/QPa1HxZXs9u+CwBbh8QOgF2xll6Uq2sfy7mVd2QpOW2jAAAA9UMnZrW7u+TJ/pfltb3fkmPdTzAOHcCWa7bfAWDHBNLLJqlzae0DkjoAAKBulcoliecjMhI8J+dX3pGp6E16CQLYciR2AOwYPWoVzYbkqv+0nF99V+bid+w7AAAA9Uv7CF4LnJYzy2/JQnxCihw/B7CFSOwA2BG6Y6WLmqv+U/L+wo9kMTFl3wEAAKh/ug66Hjgjv5r7C4lk/CR3AGwZeuwA2BHhbMAkdX42/Z8lVYibRA8AAEAj0bHnbe52Odr1mPzp4/976WkdsO8AwMZRsQNg2/nTS3Jx9X15f/7vJJmPkdQBAAANqex8ZYopmY6NyfsLP5a11KJ9BwA2jsQOgG2VzMdlLHxVLq99aCZh6YIGAACgUekGV7qQlCv+j+T8qk4HnbHvAMDGkNgBsE3KZtFyO3RZrvo/loXEpI0DAAA0Nt3o0modnRB6K3hRYrmQfQcA1o/EDoBtUJZCqSgzsTH5aOnvZSx8xbnO2/cAAACgVpLzciN4TkZDV80RLQDYCBI7ALbc3QlYUXln/ocyH78jhVLBvgMAAIBPGw9fMxNDpyK3nDUUk7IArB+JHQBbLphZlb+Z+LcyGxuXTDFjowAAALiX5eSc/GruL2UpMSv5Us5GAaAyJHYAbKlAetn01NHeOqlCQspMwAIAAHigbDEtC4kpeW/hb81aqkjlDoB1ILEDYMuk8nGZjN40jQD1KBZjzQEAAB5OmymnCwkZCZ43r3Bmzb4DAA9HYgfAltAz4bPxO3Ldf8YcwQIAAEDldEMslgubDbLJ6C1T+QwAlSCxA2BLRLMhsxDRyQ4AAADYGN0guxE4I3PxO1Q/A6gIiR0AW+K9hb+T0dBlGv4BAABs0q3QJbnmP22OtgPAw5DYAbApuVJWrjoLj/HIVYnmQjYKAACAjcoU0zIevi7nVt62EQC4PxI7ADasWCpIJOOXsyu/En9qSQqlvH0HAAAAG6VTRYOZZbkZvCATkREqogE8EIkdABsWz0flduiSWXCkiykbBQAAwGZlixlZSs6Yqp14LmIGVQDAvZDYAbAhunO07Cw2zjqLjXQhaXaWAAAAsHWS+ZhcD5yRmeioWW8BwL2Q2AGwIcH0ioyGr8pMbIwdJAAAgG2gU7E0ufPR0t+LP70kZecLAD6LxA6ADZmK3ZYrax/ZKwAAAGyHYrkoU9Hb5hXNMqgCwOeR2AGwblPRWzIevibhrN9GAAAAsF10Cun1wGmZi4/bCAD8GokdAOuik6/GwldlOnabKVgAAAA7ZD4+KXciN2QttWgjAHAXiR0A61CWxcS0TEZvSTC9amMAAADYbqlCwiR2dINNj2cBwCdI7ACoiDbry5fycm71bVlKTDsLioJ9BwAAADthMTElo+HLEqPXDoBPIbEDoCJ67GolOS83gxclkg3YKAAAAHaKrseWEjNyce0DJmQB+AckdgBUJJ6LyDvzf22+s5AAAADYHcHMqlzzfyzRTIAKagAGiR0AD6XJnInIiIyGLku2mLZRAAAA7LR8KSdrqQX5aOlnksjHbBRAIyOxA+CBSuWirDqLh2uB0xLNhcw1AAAAdk+6mJQLq+/JanJecsWsjQJoVCR2ADxQIheVmdiYjIav2AgAAAB2U6FUEH96yTRSDmf9NgqgUZHYAXBf2ktnNn5HxiNXJZWP2ygAAACqwamlX8ics1Zj/DnQ2EjsALivZC4qdyLXZTJ6y0YAAABQLZL5qIwEzslU9KaNAGhEJHYA3Nd1Z6EwGRmRTCFpIwAAAKgWpXJJJqIjMhW9LflizkYBNBoSOwA+RxcJocyq3A5dlJXUvLkGAABA9Ylmg6ZiZ5KqHaBhkdgB8DmFUk5GghdkLjEhqULCRgEAAFBttL/OXHxCrgfOSLqQND0SATQWEjsAfoMuDmK5sJxbeUsi2YCNAgAAoFrpmk2PZM3F7kixVLBRAI2CxA6A35DIReRG4JwsJ+ckV8zaKAAAAKpZML0q7y/+WHKljI0AaBQkdgD8g0KpYBI6HziLgmyRRQEAAECtyBSTMhMblfHwdUnm4zYKoBGQ2AHwD4KZZbkTuSaB9IqUykUbBQAAQLXTYReJfFQ+Xv6F+NNL5ng9gMZAYgeAkS9mZTY2bpomF8uczQYAAKg12l9nIjIik85Lp2UBaAwkdgAYq6kFGQtfk7n4HRsBAABALdGJWJlCUm6FLspiYopGykCDILEDwJTqXguckbHwFRsBAABArdIJWdPR2xLPR2wEQD0jsQNAlhMzMhsfl3DWbyMAAACoVfliTsYj12U0fNVGANQzEjsA5NTyL2Q+PmGa7gEAAKC26ZGsxeS0jIYum+P2AOobiR2ggeWKGZmI3DAN9uI5SnUBAADqRaaQMhXZ1wNnbARAvSKxAzSocrkk8VxUTi//SsLZNSZhAQAA1JlwZk1uBs+b8ecFGikDdYvEDtCgMsWMLCVn5Kr/lKQKSRsFAABAvcg6672V5LxcWv3AWe/FzREtAPWHxA7QoNbSi3Jh7X1TpqvVOwAAAKg/OhnrrfkfSjC9yvhzoE6R2AEakB7Bmo7ekpHAWXZuAAAA6pgOx9CNvOuB0xLMrNoogHpCYgdoQDOxURkJXpA0R7AAAADqXqlclMtrH5kpqHo8C0B9IbEDNJhINiCT0ZsyFxu3EQAAANQ7PYY/Fr4iK8lZGwFQL0jsAA1mInpTppyXnrcGAABA4xgPX5OJyIg5mgWgfpDYARqE9tLJFFNy3X9G5uITNgoAAIBGsZZekonoiCwmp20EQD0gsQM0iGIpL+dW3pb5BGerAQAAGtWdyA0566wJAdQPEjtAAyiUChLO+E3TPP2u9TsAAABoPOlCQhbik3IjcE6KZcafA/WAxA7QAJL5qFwLnJGV5JzkqNYBAABoWDr+PJBelvOr70oqn5Cycw2gtpHYAeqcJnKWk3Nyce0DSRWcD2+qdQAAABpaqhCXyciITEVvSbpII2Wg1pHYAepcOOuX8cg1mY2NSaGUt1EAAAA0Kq3aSeZjcmblLQll1sw1gNpFYgeoY1pau5iYluuBMzYCAAAAiORKWbnm/1iWnLWiTk4FULtI7AB1bD4xJaPhK7KaWrARAAAA4Nc+XvqFzERH7RWAWkRiB6hT+WJOxsNXzUhLjmABAADgXuYTEzIRHZFAesVGANQaEjtAnZpPTMpk9KYE+ZAGAADAfaQLSRkPXzPrRgC1icQOUGd06lWumDV9dRYSU5Iv5ew7AAAAwOfpmnEsfFWCGTYEgVpEYgeoM8VSQVaSc3IjcFYC6WUbBQAAAO4tW0ybCapX/R+b4RsAaguJHaDOpApxeWf+ryWaC9oIAAAA8GD+9JKMBM5LppAmuQPUGBI7QB1JFRIyGxs3pbTpAmMrAQAAUBkdtrGWXpT3F//OWVMmbRRALSCxA9SRYHpVLqy+J/F8VErloo0CAAAAD6Z9GuO5iFxc+0AWE1PmeBaA2kBiB6gTsVxYpmK3ZCx8hfJZAAAArJsO3VhNzstI8IJEshzrB2oFiR2gDpTKJZmL35GbwfMSy0XMjgsAAACwXlr1rUM4lpIzVO0ANYLEDlAHMoWUTEZuyljoqo0AAAAA66cbhCupObkdvCQryXkTAVDdSOwAdeBW6KJMxm6Z8lkAAABgs26GLshEdERyRdaXQLUjsQPUMN1RSeSjJrGzGJ801wAAAMBmRXMhmYrelJnYqI0AqFYkdoAapr11rvlPmxHnOuocAAAA2ArFUkHm4hNyO3xZ0ow/B6oaiR2gRhXLBYlmg3Jx9QMJZdZsFAAAANga4YxfJiMjMh29bTYUAVQnEjtAjdKdk9HQFVlKTkummLJRAAAAYGvoRuJyck7Orbxt1p5lkjtAVSKxA9Qo3UH5+5n/JMl8zEYAAACAraX9HMcj12U2NibZYsZGAVQTEjtADdKdk0trH0gsG5IiOycAAADYRqlCXN6Z/2uJ5oI2AqCakNgBakyhVJCl5IzcCJwz5bE6GwsAAADYLvlSXmZiYzIRuSmxXMhGAVQLEjtAjVlJzTkfqjdkLb1oIwAAAMD20d46OoH1qv+ULCZmpFgu2ncAVAMSO0ANyRWzMha+KqPhK1Io5W0UAAAA2H66Dp2M3jSTWQFUDxI7QA3RKp2JyIisJOdsBAAAANgZ+VJOxsJXZCI6woQsoIqQ2AFqyIXV92Q+fsdeAQAAADtrOjYqd8LXzLQsANWBxA5QA/TYlX6ITkVuSpSGdQAAANglxVJBpqKjcn7lPRsBsNtI7ABVrlQuSSIfkzPLv5LV9CK9dQAAALCrgpkVGQ1flkB6xVmr0kgZ2G0kdoAqlymkZDY2LiPB85LKx2wUAAAA2B3ZYlqWk7Nyxf+R83PGRgHsFhI7QBXTap1gZtV8aMZzYUZLAgAAoCpEckE5tfQzs1alohzYXSR2gCqWLaZkMTEl1/ynzXlmAAAAoBro2jSc8cvltY8kkg3YKIDdQGIHqGJz8Qm5Hjwj2VJGys4XAAAAUC0K5YKcX3lbVpLzVO0Au4jEDlCldOdjInJDJiM3pVwu2SgAAABQHXSNqmtW3YhcTEzbKICdRmIHqFKa0BmPXJdYLmwjAAAAQHXRHpCjoSsyFbsl6ULSRgHsJBI7QBXSZM7t8GVZiE/aCAAAAFCd/Oklsym5lJixEQA7icQOUGV0Etat4EWZi9+RVCFhowAAAED1morekpHgecmXcjYCYKeQ2AGqiCZ1tIT146Wfy0pyzkYBAACA6hbJBcxxrJnYKEM/gB1GYgeoIlqhc3ntQwlmVpksAAAAgJpRLpdlOTkrZ5bf0gsbBbATSOwAVUITOYH0sny8/HNJ5GPsdAAAAKCmJPNxmY7dNkeyMoWUjQLYbiR2gCqhoyJHQ5dlNjYu+VLWRgEAAIDaUCoXJZIJyOnlX0oouybFcsG+A2A7kdgBqoA2mVtITMkV/0c2AgAAANSebCktt0OXZC42Lql83EYBbCcSO0AVCGVWzSSBufiEjQAAAAC1R3vtZIsZubj2oayk5mkvAOwAEjtAFbgZvCiXqdYBAABAnbgTue68bkg447cRANuFxA6wy7TB3GT0pumxAwAAANSDXDEj4+FrMhsbsxEA24XEDrBrypIv5eVG4JzMxyekWKK5HAAAAOrHYmLKVO3400s2AmA7kNgBdkmxXJSlxLQpU9UeOwAAAEA9SeRjpjL9VugSE7KAbURiB9gF2kQuU0jJ2ZW3xZ9eNkkeAAAAoN4sJqflmv+0RLMhKZVLNgpgK5HYAXZBoZSXYHpVLq99IDHnQw4AAACoR9puIJBeliv+jyRfytkogK1EYgfYBfrh9vb8DyVdSDICEgAAAHUtnPXLmeVfSTC9YjY4AWwtEjvADovnIjIdG5XR8FUpcNYYAAAAdU6TOYH0ilxae1+iuaCNAtgqJHaAHbacnJORwDmJ58JS5pwxAAAAGoAew7qydkqWEjOSLaZtFMBWILED7CCdDDAVu2mqdQAAAIBGUSoXZTk1J2Pha+ZIFoCtQ2IH2CHaS2csfEVGQ1ckXUjYKAAAANA4rvpPyUxslKmwwBYisQPskFwhI3fCN2QufsdGAAAAgMYSzgbkdviKTEVv2giAzSKxA+yQy/5TMhsfkwxnigEAANCg9EjWZOSm3A5dllwxa6MANoPEDrDNiqWCGW+uZadrqUUaJgMAAKChRXMhmY6OymT0lo0A2AwSO8A20wqdkeAFmY/fkRS9dQAAANDgtGpnJTVnNj6zxYyUy2X7DoCNILEDbKNiuSDh7JqcW3lbkvm4jQIAAACNLZINyGjosizEJ80odAAbR2IH2EbhTEBGAudlLj4uuRJniAEAAIBP6JGsn0z/R4nnIzYCYCNI7ADbpFDKy2JiWi6svS8l+uoAAAAAv0E3PmdjYzIevi6xXNhGAaxXU5kDjcC2WExMyZnlt+TDxb+XPNU6ALBj3M0t0uZuF5+700burVDKSTIfY1ohAOyiJufrZN8L8t2j/1ROdD9lowDWg8QOsA1yxYycX33XJHXm4xM2CgDYSq2uNuny9Eqnp0faWzpNIqfN7XPiPvE639tc7fZP3luxnDdN7VP5hGSLafOK5sISd166c5wuJO2fBABsJ71nf/vwn8gre74hfd4hGwVQKRI7wDaYi9+Rd+f/Ri6tfWiOZAEANq+5qdkkbzo83c73DultHZA9vkPOa7/0eged60Hp9PRKq8tr/xuV0arKRC5mqndW0wuymlqQtdSihDKrpvG9Jn8S+YhzPy/Y/wYAYKs90vOMfPXA9+X5wdfN/R5A5UjsAFtMJ2H9bPrP5PzqexJIL9soAGAjtERfj1bpS5M5J7qflMf7X5IjXSelr3VIWlwe+ye3XjwXkYnoiExGb8qt4EWJZoNmckvBuc+X6Z0GAFuqpblVvrL/e6Zyp9PTbaMAKkFiB9hCpXJR5uOT8tcT/9Z5EBihaTIAbJKvpcskc54d/KI80v2MtHs6ncV/i7ia3NLU1GwSP9tFkzeaxCmWCqaaZyo2KtcDZ2Q0fEUSOSa4AMDWapJDnY/Il/Z9xyR4AFSOxA6whbS3zt9M/Fu56j9txjcCANbP1eSSDk+PPDPwBXms9zkZ9h0yvXS0j06z895u0ES9HsnS/jv+9JKMha/J9cBZiWT9HLkFgC2ivdOe6HtRfvDIv5S+1kGTwAfwcCR2gC2iU1XmYuPyX8b/e7PopxcDAKyPJnR6nIX80e6TcrL3BTnQeVz2tO03TTWriY7n9aeWZCExKWPhqzIVvSWB9Io5igsA2Jwh577/lf3fl68c+J60NG/fcVugnpDYAbaA7uSupRbkrfkfyqXVD8xkFQBA5bQp8v6Oo/JIz9Nysu9500SzFszERmU0dEXGI9fNFEQ9slV2vgAAG6MN8A90nJA/eex/LXt8B0nuABUgsQNsgVQ+LjeDF+U/j/13kitmWdQDQIV08olOsjra9bi8OvyGPNb7rLS5O+y7tSFTSJkEz+nlX5pGy7FciKpNANiENne7fP3A78kX933HjD/fzn5qQD0gsQNsgTuRG/Lewo/kytpHNgIAeLgmaW/pkDcP/ZG8OvxN6WkdsPHalC4k5dzKO/LO/A8lmF4lyQ8AG6RJ/y5Pn/zzx/+VnOh52jTNB3B/dKMCNimVT8hsbExuhy7ZCADgYdzNbjna9Zj8yaP/tby299umaqfWadPPl/d8Xf7JY/9beWrgVTOiHQCwftrmQJvVjwTPyVpq3kYB3A+JHWCTtHGmHsPSUnwAwMN1tHTJ0/1fkG8c/APTT6fT02MaJ9c63WHWyV1Hu07K1w/8rjla1uX8/wYAWL9iuSi3QpdkLn5HsgX6VwIPQmIH2IRYLix3tGFmYsJGAAAPookPHWP+xb3fkcf7XpSOlu66652gU7yOdz8prw1/S14c+qr5/1GTPgCA9Qmkl5y19ogsJWdsBMC9sMoANmE8fE1m4+NmCgoA4P40sdHm9snjvS/Ia3u/Iyf7XjBJnnrlcXnlSPdJ+dK+78ozA6/a5E7tVyUBwE7SRvRT0ZsyFrlm+pgBuDcSO8AGaEPMTDEtZ1feloXElI0CAO7HJDq6TspvHfmn5qiS9tipd64mt+xtPyS/c+x/aqZ9dbR0MtkFANZpNbUg4+GrshCftBEAn0ViB9gA7adzcfU954Nm3ow3BwDcnyY49rQdkD868b+SQd8+cTVAUucTWqWjjaF/cOJfyiM9z5oGywCA9dGN1HOrb9srAJ9FYgdYp1K5KNFsSD5e+rnEnO9avwMAuL8jXY+ZSp0B376GnBSlx9C0QfTr+39bnuh/kWlZALBOqXxc5mJ3TDNlNlWBzyOxA6xTOBuQq4GPZTk5J/lSzkYBAPdyqPMR00D4kd6npaXZ07BHkbRy51Dno/LMwBflWNcTNgoAqIROyApmVuXU4k/N8BIdhw7g10jsAOugOwRLiWm5vPah5EpZ02sHAHBvXZ5eebL/JXly4GXxuTtstHFp8+hHep6WZwa/IP3ePTYKAKhEupiUsfBVmYmNSqqQsFEAisQOsA6hzJpMRG/KfHxCyuwUAMB96fGjE91PycneF2Sobb+Nos87ZP5Onhp4paErmABgvcrlu8NLrvhPmTHo2h4BwF0kdoAKaSJnMnpTrvvP2AgA4F40WdHm7pDX9n5LjnVz7Oizhn0H5YvDvyW93qGGaiQNAJulyRytnJ+JjTH+HPgUEjtAhRaTMyaxE8gs2QgA4F50tPnXDvyODLcfJnFxD65ml/S3Dcmbh/7INFUGAKzPhdX3zLEsAHeR2AEqNBI8ZxI7hVLBRgAAn9Xq8sqBjmPy3OCXpbu1j6NG99QkXne7PN3/ihzsOGGqmwAAlVtKzMh0bNS0SQBAYgd4KD2CpR8cdyI3nA+PVRsFANxLp6dXnh34ogy27TM9ZHBvriaXdLf2y5P9L0u/d8hGAQCVyBRTMhEZkduhyzYCNDYSO8ADaFIn7XxwXFp9X5YTs1Io5e07AIDPamluNY2Snx74gvNzi43iQR7ve0H2tR8xlU4AgMotJaflZuiCGYPOpFo0OhI7wAPkSjlZSc7KzeAFieZCNgoAuJee1n450nVShtsPSnOTy0bxIFrZpH9n/d5hGwEAVCJXzMpyYkau+j+WIq0S0OBI7AAPEM+F5dTSz01Sh5GKAPBgw+2H5GTf8/YKlXqs9zmmhwHABgQyK3J+5R1J5uOs1dHQSOwA95HIR2UqeltuBM5Ktpi2UQDAvWgz4L3th+Vg5wkbQaUGffucv7tD4qOJMgCsi1bqhLN+Ob3yS4nnIjYKNB4SO8B9+FNLZhJWIh+TUrlkowCAe9nrO2h6xXhdbTaCSmmTaa12OtJ90kYAAJXQ3jrpQlIurLwrS8lZyRYz9h2gsZDYAe4hlgubSVjabR8A8HBaqbOv/bC9wnppr51jXRzHAoD10uEmy7YnZjCzYqNAYyGxA3yGVufMxMbkduiSKe0EADyYVpxotY4mJ7Ax3Z4+kxjzuFqlyfkCAKyPtk+Yi92hagcNicQO8BlaznkreEHGwldtBADwIP3ePdLnHRKv22cjWC+Pyyu93kEZatsnzU0szwBgvdbSizIRvSEryTkbARoHKwfgM7RSZyE5bco6AQAPt7fjiLS3dNsrbJTP3SnHe54SV3OLjQAA1uNm8JLcDl+2V0DjILEDWHoES7vpX/GfkqXEtGnGBgB4OJ2G1dHSZa+wUW3udjnY8Yi4mlw2AgBYj3guLJOREbkdIrmDxkJiB7Dypaxc85+W+fiEOY4FAKjMXh+Jna2gR9kOdh4XV5PbRgAA61EsF2QxMW0m2+ZLOTZq0TBI7AAOPXYVyqzJ+dV3zEQsAEAlmkwSgv46W0ObUPe2Dkqrq40+OwCwQdFcSCajt2QmNkprBTQMVg2AI5mPmWbJs3HtpJ+2UQDAg2jyob2lU7wmEcHxoa3Q5Pyddnp6xNVEnx0A2IhSuSiB9LJ8tPhT02ZB2y0A9Y7EDuDwp5ecm/9PpFDK2QgA4GHczS0y5DtgvmNrNEuTGX3ewt8pAGyYbtrq+PPp6G1JFxI2CtQvEjtoeEvJWbkRPCf+9AoZfQBYB23y29PaL65mesJslWbn7/JA5zGOtgHAJuVLeTm3+o5ptwDUOxI7aGh67nY2NiYjgfOmwRoAoHJ6/Kq7tY8pTluoyflqdXk52gYAm6RHsrRi507khoSzfhsF6hOJHTS05eScTEZvymp6wUYAAJXSY0Pa6Ff7wgAAUE10IlYiH5WbwQsyH580E7OAesVKDA1Lq3VGw5dlKnpLiiVu9ACA3dfkvJiKBQBbZzp226z3o9mQjQD1h1UDGlYwvSJjoauynJy1EQAAdpcewer3DounudVGAACbkS4kZTI6Yo5klemniTpFYgcNSW/q7y38nSwmp20EAIBq0MT4eADYYjOxUbkROGPGnwP1iMQOGk62mDF9dTRzz80dAFBN9CjWJ/8JANgahVJBFhMzcmH1XdN7B6g3JHbQcJL5mJxa+rkEM2s0UQMAAAAagE7GuhE8L/7Uoum1CdQTEjtoKMl8XGZ0vLlzU88WUzYKAAAAoJ5li2nTW/OK/5SkCwkbBeoDiR00jHK5LKupebm09oGp2inRPA0AAABoGKlCXE4v/UIC6RWqdlBXSOygYeRLOVlKzMrN4AUbAQAAANAotNfOWnpJboYuSiizZqNA7SOxg4YxFrkq14OnJVfK2AgAAACARnN2+VcyGx83G79APSCxg4YQy4VlInJDpqOj5kgWAAAAgMYUyQZkLHxVFhJTNgLUNhI7aAh3TFLntiTyURsBAAAA0IiK5aLzfHBdJiMjki1SzY/aR2IHdU0bJEezQbkROCvLyTkbBQAAANDI1lKLpqJ/MT5pI0DtIrGDupYvZeVG8JzMxEap1gEAAADwD2ZiY3J+7T0mZKHmkdhB3dISy3guIh8v/1LC2YCNAgAAAMDdPpxzsXFZiE86zw4FGwVqD4kd1K24c6O+6v9YAqklU7kDAAAAAJ8oO186/vyt+R/Sawc1jcQO6pKOLlxNLchl/0eSLiSZhAUAAADgc9KFhExFb8nN4AVaN6BmkdhBXQpn1kwztLtllUUbBQAAAIBf02ErmtA5v/KOBNOr5hqoNSR2UHe0Wmc2fkdGgufNz1pkCQAAsBHNTc3S6vJKm7tdOlt6pKd14HOvLk+veF0+89I/D6C2FEsFGY9cl/nEpCTzMRsFakdTmTMqqDNLiRl5b+FHcmrpZzYCoNo06VeT+c+7V87P/xA3sV/T8+/6ZX42H1k24vz8SRy7o7OlW14/8D35yv7vS7enz0axGfpwoVNa/vLO/0fm4ndsFDvF3IHMvanZ+d4sLpPUaZPBtv3S0dIl3a19JpHzWfF8RFaS8+ZnrRbOFNP2PlVy/tN5cb8CasJjvc/JNw/9QJ7sf+Vz6xGgmpHYQd351exfyMdLPzeN0ABUp4G2vbLHd0B6vUNmp3vQu9fscvd595gHp09bSy2a3TNtahjIrJhpd8H0iiyn5kyTdOweEjtbj8TO7tGHuA5PtxzqfEQOdp6Q/e1HnfvUQWlz+8TV7JZm/WpymddnlaRo/tkpHZuccO5ZAWcdspickcXEtHnFciFGKgNVztPcKm8c+oH5XOtp7bdRoPqR2EFdmY2Ny89n/1xuBS/aY1gAdpuryS1drb2yz3lI2t9+RPZ1HDXJHH1Y8ri80uIsoryuNrNLrscd9PrTMoWUFMp556GpKNli2vxu63dtjB7KrJoHpyXnoWnJ+a4xzsbvHBI7W4/Ezs5yN7ult3VIjnQ9Joc7H5MB317n3+Ve8bV0ic/dYY5fue6RyHkYTeBo1U6qEJdUPuF8T5iE9Ex8zPnnOyp+M7GTdQpQjY53PyWv7/9teXX4DRsBqh+JHdQFLW/WRdTfT/1HubT2oQQzK/YdALtBd767W/tlyHdA9rUfluH2Q9Lv3SMD3mHpbxuWlmaP/ZOb88nDkv7OB9KrspZaMAkerfLRoxHYXiR2th6Jne2n96dWd5sc6nhEDnQek73OPUorc7SKsMP5d3q7euQk83FZSy/KsnOPWk7MyWx8zFTyZIopEtJAFfG5O+X5oS/Jbx3+J2bNAtQCEjuoC7rrpb11/mz0/+k81M06CyQmYQG7QRM2nZ4ec9TqcOejZhdcX3rEaidoQmc6dlsmo7dkIT4hgfSK2TFnOt72ILGz9UjsbB/tmeNzt5uEsyZznuh9UY73PHnPnjnbSe9HiVxE7kSuy2j4qklGa4Jap/KQ4AGqw4GO46Zq50t7vyPNzS6TEAaqGYkd1Dyt1olkA/LW3F/JhZX3zMIIwM7SHW6dBjPYtk8e7X1WXhz6quzvOCru5hb7J3aW7ozPOg/H51ffM9/1HpEtZUwjU2wdEjtbj8TO9vC4Wk01jh63+tK+78jJvufNMdHdli2kZSxyTa75PzYTeaLZIEe0gCqgx8J1Y+pfPP5/ML12tM8WUM1c/2eH/RmoSfli1kyg+OHEvzF9NwDsPG04+urwN+Xbh/9YXt7zdeltHdjVRZDH5ZH+tr3y9MCrZmF2tx/PmhR4YNpS2hPpcNejzusx0ycJm6fJx4jzcH8zdEGiuZCNYrMe1Uk3B/9Q3jj0B7K3/ciG+uZsB01+Dzr3quPdT5rEuD+zbBrEM0EL2F1a/V8sF6TF+R3d13HE9AQEqtn2HCIGdpCWMH+w+BOzy8lCCNhZOgb4+aHX5Y8f+a/kawd+R/Y5D0z6oKJHHnZXk6ki0v8t+zuOyXcO/2P5nWP/E/NwB6Ax6H1IKwm/eegP5beO/BN5sv9laXN3bFsPnY3SKVvtLV3yeN8L8ieP/ldm1PJOHw8D8Hk6kfPC6rvmmHe+lLVRoDqR2EFN02NXc7E7MhEZIakD7CDd7R72HZSv7v++fOPA75ljDf3eYXPcodpoVclw+wF5dvCL8nXnf+sX935nWxukAth9ei860HFMvnf0T+ULw980I8zbWzqr9vde/3f5nP99BzuPO/9735RvHfpH8kjPM1QJALtIN421V9+N4DkJZfw2ClQnVrWoafPxCbkVvkRfHWAH6ZGbo92Py2t7vyWv7fu2HO95qqofmJTuiOvxMN0R12aIL+35upmC4/nMaHUAtU9HlB/RXjp7vyNfcO5TevRKE7y1QPv+aGNnvUd9ed935an+l6Xb02/fBbCTdNNYe17dCJw1zxyZQsq+A1QfEjuoWVoeqdMkxsLXbATAdtKJEB0tXXKi5yl5fd9vOw8dv22qdmppUoTpCdP5iHzz4B/IS0NfleH2g7vW4BnA1vO5O+Ro10mT0Hlt77fNEadarM7r9HTLC0Ovy9cP/L48M/CqDLQNV0WzZ6ARLSamzRS7tfSijQDVh8QOapJm0DWpMx29LZlC0kYBbBd9MNJ+Ok/0vyy/c/x/Jq8MvyG+lg77bm3Rvhv9zkPSG4f+UF4dflP6vXuqoCcQgM3S+5Qmnt88/I9MRWE1Hg1dD0066/8/3zv2L0yCx0zmqZKmz0CjGTPPHaNSLBdtBKgurGRRczSpky1k5EbgjMwnJmwUwHbRXeIh3wH5vvNw8TvOa6/vsH2ntulDn07wevPQH8mAd8hGAdQiPW450LZXvrr/d8yEqXqiPcE0UfXPH/9Xpu8OVYbAzgukl2U8clVmoqM2AlQXEjuoOdrI7GrgY1lMzEi2mLFRANtBq3Qe63tevnvkT82xgN7WQeehoj6OA+gRMj2m8UTfS/KtQ/9YOj295uEQQG1pafbI3vZD8v2j/0IOdT1iruuJViJp36DDXY/Kbx/9Z/La8JvO/arHvgtgJ2ilzlT0tlz2fyQ58/zB0BZUFxI7qCmFUkFCmTW5uPqeBDMrUi6X7DsAtlq3p0+eH/yyfGXf9+SJvhfN+N16S3zoA1N3a7882f+SaVSqRx1qsR8H0Kj0njTYttf0/dL7VLu7075TfzTRrv2Dvrjvt5z71W+ZJstNTbXT4wyodbFcSGZioybBU+QZBFWG1StqSqoQl1uhi+ammqa3DrAttIfDYNs+eW7odZPs0KSHTr2qV5rI6WrtlS/t+4487jwYauUOgNqg0+6ecO5RL+35mrS5O+q+X5ar2S1Huh6TL5qJX2/Ksa4nTMIHwPYrlUtm/PmltQ8klY+ba6BakNhBzSiWC+JPL8nppV9Ktpi2UQBbSY8waJ+KV4a/Kd8+/I/keM+TDdHPQfsIaRNl3QXXh6Z6O8oB1CP9PT3e85S8sucNc6yykapXPukn9K3Df2zuWXpUq5YmFAK1Sqt2rgfOyEJi0h7JAqoDiR3UjHDGL3fC103DZD2SBWDraZPk7x395yapo/10Go0+ID3V/4rs7ThiIwCq1bDvoDzW86wc7DxuI42l1eWVpwdelT959L927luv0lQZ2CGZQkrem/+RhLN+GwF2H4kd1Iy5+IScX33PXgHYSrrz/cLQV+QPT/xLc6yhcR8QmuTJvlfkid4XqdoBqpinuVVe3PM1ebL/ZeeqcStVtEpnoG1YvnXoj+SNg39gjqYB2F75Uk7uRG6Y8efxXMRGgd1FYgc1YT4+IWPhqxJIL9kIgK3S7ek1o3S/sv97cqT7pPi0T0UDPyh1t/bKI73PyON9L9gIgGqj0/qOdj1OTyyHJuKH2w/Jy3u+IV8/8PtyoOOYOV4KYHuUna9MMSUX1t6T+cSkjQK7i8QOqp4eu5qI3DAvzZAD2Bq68O9tHXIeBt4wiR19SPLShNNM2dEHo2cGXpNuT3/dN2MFaon+PnpdPjOxb7j9IFPsrLvJnYPy4p6vyuv7v2fGvtNUGdhe09HbMhkZMRN7gd3GpyGq3lpqQSajt2QtvWgjADZLjzEM+fbLS85DwFcPfF8Odj4iHlerfRddnl451v2Eqdxxs/MNVA09Inmw6xHT2F1/T/FrmpTu8w7JF/d+W14b/pYc7X68ricaArtNh7nokayJ6IiUykUbBXYHiR1UsbKZhKVljrPxcSmU8jYOYDN0Z1ebJOuo3D848b8001V0xDl+U09rv7yy5+vsegNVpN3dKV/e+1vS0dJtI/gsvce/vv+35ZsHfyAnep4xiXwA22MmNipjoauSzMdtBNgdJHZQtfKlvMzF7sjN4AUJZVZtFMBmHet6XL556Afy1f3ftxHci9fdLoc6H5Hu1oEGbiYNVA9NQHd6euTR3mdJuFbgsd7n5I2Dv28a4wPYHvq8ohN7r/hP2QiwO0jsoGrpKMEzy7+SSCYgpXLJRgFshi7wv37w9+SJvpd4MHoIbSDtdfvk5T1fM9U7AHZXh6dHDnc9Kh0tXfTWqYAmpA92nJCvHvgd+e2j/8z0UKNnGLDVyrKWWpQbgbMSz4V5ZsGu4e6OqpQqJGQ6Niqj4SuSLiZsFMBG6EK+zd0uzw1+SV4d/qYpzdddbzycu9kjT/a95DxI8vcF7Lbe1kF5vO9FcTW7G3py33pocnp/xzF5aeir8rUDv2fGoZMUA7aW9tpZTEzL2ZW3zbQsYDdwZ0fV0Ux3IL1sShr1CJZOxQKwMZrU6fb0maSOTko50fOU2e1GZfQBSPsRDXj3MDEM2EWazNHGwMe6niCps04tzS0y6Ntn+u68sucN2dd+hL47wBZL5KNybuUdWU3OS66YtVFg55DYQdVJFxIyH5+QkcA5yhmBTdCHn66WHnm87wX5rcP/RE72Pic+d4d9F5XQv0OdFqa9dnqdh0oAu0PvXX3ePdLd2mcjWA9X093E2HeO/GP5wvCbZjQ6vcOArZMv5WQlOScjoQsSzYVsFNg5JHZQdRYSU3IrdMlkvsvOF4CN0YTEMwOvyW8d+admt1ZH4WJjDnQeN8dAAOyOntYBGWzba6+wUa0ur6nefH3fb0uf83cKYOvoyPNTSz+X1dSCc8UzDHYWiR1UlWQ+JuPha3I7dMlGAGxEe0u3fPXA75oFPAmJzRtqOyBdnl57BWCn6X2MxM7WaGn2yDODX5TfOvKn5u+UnjvA1tAN6UQuItcCH8tMbNxGgZ3BnRxVZTR0RSYiI5IuJG0EwHrcLbcflO8c/mN5dc8bsqf9gLib3fZdbFRXa690t/YzSQzYJdrwXat2sHlNTU3S0dItJ/uel+8e+VM53v2keF0++y6AzdCqnfHQNZmNjUuhlLdRYPuR2EFV0Ax3NBuU2+HLspScsVEA66ENMod8++Sr+3/HjDUfbj9Eg8wtojvc7S1d9CgCdokmIjS5iq2hVTraWF+P637twO/II73PmL9jAJsXzKzKZHRE5uJ3bATYfiR2UBXK5ZKMha+a7Lb21gGwPtoEc7Btv7ww+BX5yv7vM9J2G+g0McbEAztPE9T6+0didWvp1ERfS4e8MPRVeW3vm3K850nn77jTvgtgo4rlgkzHbsv1wFlJFRJOhH472H6s+rHrNKmjR6/OrrwlgfSSjQKolDZF7vfucRbnr8ubh/5IvG6fWbBja/W09pupMgB2lh6FJKmzvZ4ffF2+uPfbcrznCWmh0hPYtEB6xfQNnYuNS6lMYgfbj5U/dl2ykDAZ7aXkrGSLGRsFUClNOHx533flawd+Vzxur41iq2lVlLvZY68A7BRPs1dcjObedk/2vyzfOPj78kjv0zYCYDMCmRU5v/qe6bsDbDcSO9hVxVJBAqkleXf+b81ELMabA5XTqpx+75B88+Afmt3WNneHNDlf2B6mxweTsYBdwZ1t+2nz/cOdj8m3Dv2RPNH/Es3igU1K5eMyFb0pN4MXJG2OZAHbh8QOdlUwuya3wpdkJTVrkjwAKqPVIwPePfL1A78vTw+8Kr3eQXrqbLO7FTtUDQA7TZsm+1ro/bIT2tztcrjrpHzz4A/ksd5nTdN4ABujvXYi2aBpNxHK+KncwbbiKQC7plDKyWJ8Uq4Fzjg/F6jWASqkE5qG2vbLF4a/JS/t+br0efeQ1AFQt7RxspfqkR2jf9cn+16Q1/Z+W070PGX+/gFsTK6UlfHIdZmJjUqcATHYRjwJYNfcHQV40zQVA1AZd7NbBtv2yvODX5I3Dv6BaSpKUgdAPSs5X2z+7Cw91vuc8znzheFvyrHuJ00lD4D10yExeiTrRvCcrCTnqNrBtuFpALuiXC7LSOC8XA+csxEAD6ML7R7PgKnSefPQP5JWd5uJAUA9yxWzki/l7RV20nODX5av7P+eHOt+gk0EYBNGQ5dlNjYmyXzcRoCtxR0au2IlNSez8XEJZVZtBMDD9HkH5esHf8+Ux3tcTL8C0BgimQAPQ7vokZ6nzbSsY12Pi6vJZaMA1kMT1DcC50yCB9gOJHawKy6svifTsVHTVAzAg2lVjqe5Vb6077vyZP8r0uXplaYmKnV2mvYCK1A1AOw4XSuUOb6wa3Qj4VDnI/K1A78nQ7790kITeWDd9DjpYnJa7kRvSCC9YqPA1iGxgx2lD0UTkREZC1+VSDZgowDuR0ead3i6TZXOswNflH4aJe8aHVVK1QCw87LFDEexdlm7u1Me631Ovrr/d2Vf+1Gz2QBgfdKFpDmOdTt00UaArcPTAXaMZqpTzoPRuZW3xJ9eYucbeAhN6nR7+uSp/lfNESzdKWXc9u7R+1eyQGIH2Gn6e5ctpuwVdoN+HrV7uuS1vW/Ky3u+Jvs6jpgJjQDWZy21KDeDFyTM+HNsMRI72DH5YtbczG4Ez0syH7NRAPejO6SP970o3zn8j0nqVAEdWaqVAwB2VqaQlHQhJcUSx7d3kzkW7PLKl/d/T17e8w0ZattnYgAqlymmZTE5I1cDH7OmwJYisYMd408vy4eLPzFJnVK5ZKMA7ufZwS/Ktw//sQz69rJ4rgKJXFRi2ZC9ArCT9Pi2Vvti97W6vOZ4sPZ987g4kgWsl1brvDv/t859LShFqnawRUjsYEdoX4q5+ITcCl1kxw2owAtDr5uX9tQhqVMdwlm/BDM0PAR2QzwfkUguaK+w27wurzzR/5J8+/CfmEQPn1NA5TSZE89F5FrgY4lmua9ha5DYwY5YTEzLSPCcSfBorx0A99bc5JLnB78srw6/KYc7H+X4VZXQpE40G5J8KWcjAHaS/v6F0qv2CrtNe+70eYfkucEvyRsH/1C6Wvto7A9UrOysJ7JmSvBScsa0qwA2izswtp1mpKeiN2UyctNGANyLNqLc235YvrD3TTne/aS0t3TZd7Db1lILzr0sbK8A7LRQZlVWUnNSoOq3auhn1mDbftNQ+Ym+l6Sjpce+A+BhtC3FUmJGbgUvymp60UaBjSOxg22lN63p2KhMRG9KlBJq4L5amltlj++AvDr8hpzoeUraWzrtO6gGy8k5cxYewO6I5cKyklxwvtPnqpq4m93S591jkjt3P7vYkADW40bgnNn8zlG1g00isYNtlcon5Jr/tExGqdYB7kd7Ewy0DcvLw9+QNw/9kfjcJHWqiSaoFxKTEsn6bQTAbojnwzITG+NId5XRI1iP9DwjXz/wu3Ky9zlzpBhAZQKZZee+NiqrqQUbATaGxA62jS68bgTPmgeibCFlowA+q9PTI0/0vSiv7HnDRlAtSuWimcSzmlqUZCFhowB2g1btzMRu6wIDVehw12PyzMBrcqTrURsBUInb4ctyae0DewVsDIkdbAvt9q5jgbVaJ5BeZncNuI82d4e8vOcb8treb0mXh/4E1aZQysto+Io5/lEul2wUwG6427Pvlvl9ZERw9dGeOyf7XpAv7/ttOdBx3DRYBvBwCefeptWIY+GrPDNhw7jjYltkCkm5ETxnqnXSRap1gM/S41c68erZwS+aqSLD7YcpX68ymshJO/eym8ELzqIraqMAdotOpQtkVs36QtcZqD5dnl55rPc503Ont7VfXE1u+w6A+9FEtTaHv7T2oZmQVS6T3MH6kdjBltOF11p6Sc6tvC3xfJRdbuAeNKmjk69e2fMNOdBxzFn8ktSpNpliWhYSUzIfn3B+JkENVANNtur6IpINmKOSqD49rf3y3OCX5fnB181R46amJvsOgPvRyZt3wtdkMnpLsqWMjQKVI7GDLadn4O+Er8tEZERyRW5MwGdpUmegba984+Dvy+GuR8Xr9tl3UC20FFofHC/7P5RUPm4aKAPYfbqu0PWFJl1T9L2qSlp9qskdHQagGxgMBAAeTtcZOn3z/cW/s4lr1h1YHxI72HKrqXm5vPahvQLwWZ8kdR7ve9FZ8HbYKKpJsVQw/cGurJ0yVYgAqsvltY+YIlPFNLnT3dov3zv6z+WRnqdtFMCDaHXwDf9ZWYhPmupEYD1I7GBLLSdnZTR0xXwH8HmDbftMT53nB79sKndQnbQa4GrgjGSLaRoZAlXoTkQrg29IOOO3EVSjgbZh+cLwm/JU/ys2AuBBdM1xduUt51lqxkaAypDYwZbRXe2x8DUZCZ6XXClrowA+0d7SKU/2v2T66rS3dJkGyqg+iXxMJqM3ZTR0iVJooEp90th8OnbLRlCNdAPjWPcTZgz6/o6jNgrgQXRC1lT0toSzJK5RORI72DIryTnnJnRT1lKLNgLgEzoZ5Im+F00zyb3th20U1aZQKshkRJM6lyWUWbNRANVoMTElt0KXTIUdqpc2UNZJWS8OfVU6dFODMejAAyXzMbkdviyzsXEbAR6OOyu2QNlU69wMXZD5xKQUywUbB/AJnXz1yp43zM4lqpf2CLsWOCXTsds2AqBapQpJGQ/fkIur75vBDUzhrF5Dvv3ywtBX5Mn+l8XraqNiFXiImdiojEeuSzQbtBHgwUjsYNP0qEIwvSzX/WdN1Q6AX9OdyTZ3u7xx6AdypPskfXWqlJ5p1wT1udW3nQfF65LMx+07AKqZP70oV/0fy43AWckWM+Z3GdVpsG2v/O6x/7kMtx+SlmaPjQK4l0whZU5C3Aie5Vg4KkJiB5umC6n3F34socyqjQD4RFdLj3zz0B/Joz3PSLu7y0ZRbXQBdd1/xrw40w7UlmBmRd6d/1tzJEvHoaM66aSsLk+P/ODEv5T9HcdsFMD96Ib5SOCCxHIhkjt4KBI72JRMMS3z8QkZDV8xDUcB/FpnS7c82vusfGH4m9Lh6ZamJkrPq1HUWTBd85+Wn838Z9NXh8UTUFuKpYIE0svyd1P/3gxxSBUS9h1UG1ezyxxNfmnP1+Rg5wkbBXAvuWJWllOz5ripVhUDD0JiB5uiY0ZPL//SeRjy01sH+JSW5lY52PWoGfPa5x0yzZNRfbRSZyY6ZkeLzrJwAmqQHr/SaZwzsdtyavGnMhq6Iqk8yZ3q1CStLq88PfCqGSjQ2zpg4wA+S+9t2mNHj5uupuZMoge4HxI72DDt2D4bH5MbgXNS4GEI+A37Og7LswOvySM9z9gIqk00G5Lboctyce09mYreMgsoALVLp9rpJJnzK+/IWOSqGYmO6jTYtk+e6n9FHu19zmyEALg3bXmhEwD1SFYiH7VR4PNI7GBDyuWyLCZnnJvMeUkV4jwQAZ+i41yfGfiiPOu8Wlw0iKw2er/SxPSt0EV5d+FvKHEG6kihlDdTOj9a/KlMRm6aRugcr6xOR7pOmhHo+zqOOFccVQbuR9col/0fyWpqgfUK7ovEDjbElDxHR+VG8JyNALirSV5wFqq6E9nd2mdjqCZaYXjFf0remvtLmYiM2CiAeqHJnduhS/I/jv9ruRY4bSt32ICqNjol8njPk/LtQ38szU08kgD3UywXTdWObkj500s2Cvwm7qLYkLHwVRmPXJc8Zz2Bf6B9dE50PyEvDn1F9rYfslFUCz2moQujvxr/H+SXs3/hLI6W7TsA6pEet/zJ1H+QH0///2Q6OmYSPqguXpdPDnc9Km8e+iPp9PTaKIB7uR4469zLRp3nL6p28HkkdrBuqXxcxsJXZDY2xhEswNKkTq93UL524PdkX8dRaWnmCFY10aNXN5wF0U9n/rNZGIUyqzzkAXVOhzpEsgG57j8j78z/UK6sfSTxXMS+i2qglTpdnl55be+35ET3k9Le0mXfAfBZOrlzIjoiC4lJGwF+jcQO1u1W6JJMRW/TwAv4FF2YvjD0uhlv3u7usFFUAy1bvrj6gXy09FO5Fbwo0VyQnhtAA9Hkjh7N0imeF1bfk5XkPPeAKqJHsvb4Dsgre74h+9oPS3OTy74D4NP0KPlU5KaMhi9Ltpi2UeAuEjuoWKlclFguLBfXPpC11IKNAvC5O+RI90n5wvC3pL2lU5roFVAVtCJnMTEtl1Y/kA8X/9482LEQAhpTqpCUO5Eb8pFzLzi/+o45lsno4OryRP/L8njfSzLgHbYRAJ+1ll6U8fB1mY9P2AhwF08fqFjGeSC6Gbzg3EjuOAukhI0CjU3LyA92npCX93zN9NVhp3H36RHRfClrpkf8cva/yNvzP5Sl5LR9F0Cj0qNZK6l5eWf+b5z7wl/LonNfyBUzHCuvEh5Xq7y056vyzOBr4mEEOnBfy8k5Ob/yrtnA4v6FT5DYQcX06NWv5v7SVO0AuEuPYD3e94I80/+ajWC36UJnPHxN/tPt/1au+j+WVJ5ENIBf00qdy2sfyg/v/Bu5EThPI9IqotU6j/e9KI/2PWcjAD4rlgvJnegN0++U+xc+QWIHFQmkl81xhmB6VYqlgo0CjU13FLUnwLMDr4mr2W2j2E06BeejxZ/Kj6f+g9nRypdy7GYB+IyyPao5KW/N/5W8t/AjCWf89j3sJj3KfLTrpLw2/Kb0e/cwBh24B13XRLNBeXf+b8xwCEBxt8RDaSJHS5ev+U+b4w08JAF3neh9Wh7re0EG2vbaCHZLuVwyUyI+WPyxnFn+5d3+Gc79CgDuJ1vMmHvFhdV35X3n3jGju98ldr93W5u7XQ53PSZfGH5TWjiSBdyT3r+0b9hY5BqnKWCQ2MFDBTLLMhm5ac6iA9C+Oi7p9vTJC4Nfkf0dR8XNaPNdpf2/JqI35fTSL+Xcytuy4DyoFctF+y4A3J9W7mh134WVd+TU0s9kNjYu6ULSvovdosecnx96XY50PSZel89GAXxCh9ok8jFzrFSH2ug1GhuJHTyQnkMfj1yXkdB5s/gBGl2T86W7iU/0v2R662iCB7tDq3S0kfuc8yCmRyl0lHEos2bfBYDK6ANROBuQs8u/ko+XfyHTsVFJ5eP2XeyGlmaPDPn2yRf3flsGne8uBhMAn6OnKMZCV0xCWpM8aGwkdvBAq6l504R0IT5pI0Bj0146Q2375LtH/ql0kdTZVRktQw5fl1/O/YVcWfuIUeYANkUr/TS584uZP5fb4ctmihZ2jx7DemX4DTne/YS0t3TZKIBP02PnN0MXZTp2m3YZDY7EDh5oxIw3n7BXAPTo1RsHfyC9rYPiamYHcbfo2XLtpfPTmT+TiciIjQLA5s3ExuVXs38l7879rWQLJIx32xeGvyXHu5+0VwA+azI6YtZCNFJubCR2cE9aljwVveXcJK4zKQKwOj09cqTrpDza+6yp3NFjWdhZem8KZtbk/YUfmYanK8k5yRUz9l0A2DwdFLGSnDX3GJ2alconzNFP7I7h9kPyZP/Lpt8OgM/T1hkTkRtm0A0aF4kdfE65XJZ0ISWX1j6UJWdhw2QZQMTV5JZjXY/L0/2vmAQPdp72+fKnl+XDhR/L+ZV3ZSkxwwQbANtC1z7LqTm5tPqBfLz0M9NgWR+esPNaXV6zofKU8/nb3tJpowA+bTW1IKOhK2ZDXp/l0HhI7OBzsqW74z9vhS5KPB+xUaCx6Ujzx/teohx8l2hSZy29dPcha/kX5oGLpDOA7XQ3mbxkRqGfX31XlpKaTOa+sxsG2/aZgQUnup+yEQCfptP8dCroSPA8/cEaFIkd/AbN8EazQbm09oFEMn4plrgxADqd46mBV+REz1PidbfbKHaKVuVoUueq/2P51dxfSDIf51gEgB2hDZV12t57C38rF1ffl9XUIg9Nu2Rv+xF5be+3xefulOYmHmGAzwpkVuSjpZ9JNBcy9y40Fu6K+A06VWY5OWsSO1l2pQBn8eiSfe1H5bmBLznfD9sodpKO8Xx77q/knbkfmqbJOuATAHaSHsP6ePnn8sHCjyWUXrNR7KQ2t08Odz0qr+//rknuAPhNhVJOgull+Xjp52ajHo2FxA5+w0JiUi6svGvK+dgRB+5W67xx8A9kuP2gNLFDuKN0bOedyHV5b+FHciNwVtLFlH0HAHaebn7dCJ6Tn8/+ufhTS+yI77gmM/b8lT1vyEDbPvP5DOA36X1KN+iD6VVOXjQYnlLwD2K5sExHR2UiOiIlkjqAadKozRqPdT8uPneHjWInaGXOVOSWfLDwE5PcSeRjJJsB7Co9rq5rpduhS/LLub8wU/lo4L6z3M0tMujbJ68Of8P03QHwmzThrEmdG8GzsppesFE0AhI7+AdzsXHnAeqaWbQAjU6nYOmO4Jf2fUe6WvvMkSzsDK0YnI2NyYeLP7nbxD1HE3cA1UETzFFnnXR57SM5vfxLmXHuValCwr6L7dbkfGmlzjMDXzDjzzmSBXye9gHT6kI9yq4VPGgMJHZgaDPS0fAVmY6N2gjQ2Lo8vaZZ8uN9L1LuvYMyzgJkPj4hZ1feNlNoNMkDANVEkzvpQkJOLf1Uziz/Uhbik1Tu7LA+7x4zAn1/xxEaKQP3oBWFk5GbpuE7GgN3Qpg+FuORazITGzfHHYBGp4vEo92Py2vD37IR7AQtH16IT5hdcH1YAoBqpg2Vzyz/ykzL0qMPHGPfWU/2vSwne58Xr8tnIwA+bSxyVW6HLtIPrEGQ2Glwel48U0jL2eW3ZDExaaNAY9vjOyAnup+UYd9BG8FOmIrekvcXfmzGmgNArbji/0jemvsrCaZXbAQ7QfvgPdL7rDzZ/7KNAPi0UGZN7kRuyITzQv0jsdPgsqW03AickdXUvB0jDDQ2PXb1RN9L8ljv8+JqdtsotlOhVDCLjvcX/k7Gwlc5Dw6gpiQLCdMPTKdlraWWnHta3r6D7aSTKg90HDOJHZ2Wpf13APxaqVyUxcS06Qmmz3l6SgP1i8ROA9MReOGM35QRR7MhftkBx8HOE6a3zqBvr41gO2UKKZmO3TaVOuPha5LIR+07AFAb7jZUDsnN4AV5Z/6HspycNce0sP3a3O1yqPNReX7wy2zGAPcQz0dMD1XdQMtzX6prJHYaWCx/d2SnjjfPFFM2CjQm3enzuFrl2YHX5EDHcWlpbrXvYLvkS3lZSc3L6aVfyI3AWZI6AGqWJnd0gp8ebdfG70vJGcmVeIjaCX3eQXl5z9el37vHjEMH8Gu6kR/KrMrF1fck5tyjtIoH9YnEToPSMXhLiRn5eOmX5meg0bmcxeBw+2F5auBVGWijWme76X0nmF6WkeB5ObvyFg9AAGqeVj7rvezDxZ84D1EfyFpqkYeoHdDqapP9Hcfkqf5XpJ3x58Dn6BQ/XW8tJCZNpTTqE4mdBhXJBmU2Ni5LyWnTQBlodD53h3zz4A+k29NvI9hOevzz3Mo78s7cD20EAOqDHsM6tfT3phoxkWPa6E5oc/vk6wd+T3q9gzYC4BM6sS9VSMr51XckkKHJe70isdOgtEHphbX37BXQ2DSpc6TrMXms9zlzXh/bS8cCvzv/N2aBkaVSB0Ad0uTOzdAFeX/x7yRbSNPHcJs1NzVLT+uAvDD0uuxtP2yjAD6h1YOjoSsyERmRaDZoo6gnJHYa0Hxi0vxSBxjLCRj93mFzPr+jpcssDrE9tDpQH3Y+Xv6FKQmOZAOmLwUA1BtN5IQza3LNf1remf9rSeSiZtcc26XJNE9+su8V2d9xlEbKwD2kC0nT03A2Pm4jqCc8wTQYHcF5O3hJZmKjzs85GwUaV6enWw53PSqP9j5rRqdie+gDjU5mOL/ytlz1nzKlwDzkAKhn2iB+Lb1ominrxKxknmNZ223It18e6X5a9vqo2gHuZS5+RyajN81kZNQXnmIaiO6MryTnzDEsbegHNDqtztnXflRO9j0vXZ5eMxkL2yOVj8ud8DV5a+4vxZ9eMlMaAKDe6YZaMLMqp1d+6TxMjUiC5M620qlYulFzsu85JmQB95AqJGQyckvGI9fM8SzUDxI7DUJLgvOlnFlY6AhOJmEBIl6XT453PymP9TxnI9gOeu+ZjY/J+wt/J2vpFfOgAwCNQu95d8LX5d2FH8lE5AZrsG023H5IjnY9YXruAPg8XZPpMVFNNNP/q36Q2GkQ+WJOlpNzcjNwQWK5kI0Cje2R3mfkeM+T0t7SZSPYDrdDl+X9hR/LdGzMuWIBAaAxTUdvy/XAGZmLT9gItosesf7Kvt+2VwA+TZPNq+kFcz/iWHz9ILHTIDSZ88HiTySWD/MLDDg8za2mUudAx3FpauII1naZdx5gbjgLh6noLXapATQ0fZjSXjtnl38lq6kFG8V26Pb0ybHuJ2Vf+xGOZAH3oEN0zq+8I5FMgPVZnSCx0wCS+bhplHU7dMlMpAEanfbW0WqdQ52PmElY2Hra00v7SmjT0NHwVXOmGwAaXSwXNuuxM8u/lEg26DxQ0eNiO2gyp79t2Iw/b3W12SiAT+SKGXOa4/LaBzR2rxMkdhqANiq9HjhnRgvTJAuNTidfed3t8uLQ12TQt0+am1z2HWwVfVCJ5SLOYuFDue4/I4H0sn0HABDMrDn3x4/kmv9j80CliXBsvfaWTnl24IvS791D1Q5wD5liymzArSTn2fyvAyR26lymkJKZ2JiMBM/ZCNDY9AjW3UlYz5lJWNha2oRPJ2CNh6/JBws/NmPNAQC/ppts4axf3l/4kczGxiXtPFxh67U0e0wj5Ud6npHOlh4bBfAJPR66kJgyE5P1noTaRmKnzt2J3pBboQuU2AGWJnNe3/ddaXO32wi2ki4SlpOz8ovZPzfHDKgSBIDPM81LU4vyztwPZdF5sKKx/PZwNbnlS/t+S/b4DtgIgM/6aOlnMhsfd37iPlTLSOzUsUQuKnfC12Q6OmojQGPzuFrN8aunB16V1mavjWIrzTj3G92FXksvkdQBgAfQCseZ+JicX3mXtdo20eEIg2175dHe52SP76CNAvg0LQDQqp2ZmCZ3UKtI7NSx0fAVcwwrVYjbCNDYBtv2yVN9r5hqHe21g621lJyRG8FzcicyYnaj9aEFAHB/2WLGTMq6Gjgta6lFG8VW0v46T/S9KIc6T9gIgE/Tjbg74evmGH2+lLNR1BqebOqQObud8Zu+OtrtnPHmwN2z9tpb5/H+F20EW0knvdwInHXuOxckkY/aKADgYbS3xS3n3nk9cMb0RiQpvvWG2w/K4c5Hpc87ZCMAPi2UWZWp2C2Zi0/YCGoNiZ06lC/lTbWOlvXygAXc1efdI4e7HpVhSrG3nE7BGg1dlmv+07KcnLFRAECldCPuiv+UTERucIx1G+jIc10DHO9+ykYAfJqu5bSRsq7lSDDXJhI7dUarcxK5iJxfecfsoAO4O+L8RM9T8kjP0zaCrVIsFySUXpUPFn/CLg8AbJDeSxcT0/LW/F9JLBsmubMNDnQck5O9z5vpmAA+L5hekVuhizKfmDJH6lFbSOzUGXMcInjO9NbJFtM2CjS29pYuOdr1uFnUYWtpk/a/mfz/ykpyzjyYAAA2RvvtLMSn5O35v5YQo4e3XKvbJ/s6Dstjfc9LM332gHvSdh7vzf+tqdpBbeGuVkcKpYKspubl3Mo7kitlKaEDrKf7X5X9HUedhZzLRrAVgplVOb/6jkxERiRTZAEAAJtTNvfSS6vvm+Ot0WzQxrEVmpyvgba98vLQ11gPAPeh96Dp2C2ZiI5IMs8AnlpCYqeOBDMrcidy3UymoWEycHfMaZu7w0zDGPLts1FsBd3JmY2Nm0RyshDjngMAW0DvpdFcyByp19HDxRKVkFtJ1wQHOo/LUNt+M1QBwG/SY6DxXNSs77ShMmoHiZ06oaPpZmNjZmRmrphxIlTrAO4mj+mto9U6PnenjWKztMHefHxCrgXOmJ4Q5TL3GwDYStOxUTPdVJuZYuu4mlzS6emRpwZeddYFHTYK4NM0uaOjz6eitySWC9koqh2JnToRSC+bah3trQPgbsl1m9snL+/5unR5em0UW0HPX18PnjXjzQEAW08bl+pm3VX/x5LMx2wUW8Hr8slLQ18z0zJdTW4bBfAJbeeRLiTkhrPW08EYZaqyawKJnTqgv2w3AudMnwsAdzU3u6SjpVuOdz8pbe52G8Vm6TGBa4HTcjt0yXzoAwC2Rzjrl9HwFRkJXjAPWtga7uYWOdh53Iw/1+odAPd2J3JD5mLjkmEgT00gsVMHtKeONrjyp5dtBECPZ0CeH/qymYhFk8StoUmd6egt5yHjvKymFmwUALBddOLghdV3ZTW5YIZkYOs80feSDLbRfw+4n3wxJ7fDV6jQrhEkdmqc7uBcWH1PlhLTjBoGLC2t1skXzw1+meaIW0QrA9OFpHy4+PeyEJ80xwQAANsrW0qbe+57C39DleQWO9p9UobbD0mrq81GAHyaPmdqL8VboUuyllq0UVQrEjs1TJska1MrLdON5cI2CqDD0y37O47IsO+gNDdxm9sKiXxcLq99aMpykwXGXwLATtDm9Il8zFRKjoWvOj9H7TvYLD2ufaTrpOxtP2wjAD5LE8o6MEOP4HMktLrxxFOj9INekzlnln8l/tSSmYoF4K49vgOmt46eo8fmaRJ5OTkjHy/9TOL5CE30AGAHaUV2JBuUcytvy1JihjXfFjre/bgcc14c2QbuT/t93Qiek2B6lSOhVYzETo3KOg9aK8l5ubT6vqSLKRsFYJoidhyXR3uftRFshu7OBDOrcjN0QWbjdziCBQC7QHucadWOjiDWJA+2xh7fQWfNcEI6WrpsBMBn6VF8rdq54v9IUoU4lTtVisROjVpNz8vFtfdNl3J2z4Ff2+s7LAc6jpmmydg8bZynE/dOLf7MRgAAu+Vq4LRMRW/aK2yFPe0H5PG+F+wVgHvRY/jaZ1Grdoqloo2impDYqUGZQkrmYxNm5wbAbzre86Qc6DwhTc4XNm88cs2515yTDJWBALDrtIHpzeBFMw0VW2PAOyzHu5+yVwDupVQqSiQbkBvBsxLMrNgoqgmJnRqkDZM1qZPMx2wEgPK62+VAx3GzSMPmhTNrMhq6LNOxUXMMAACwu/Kl7N11YOC8pPI6JYsjEZvlc3fK/o6jcrjrMXrzAfehx6/0OP4V/ymZj98x/RdRXUjs1BidhnAnekOmYrdtBIDSCp2jXTq69KB43T4bxWbcDF2SO5ERieciNgIA2G2RrN+5N193XtdIum8BV7NbelsH5an+l6Wl2WOjAO5lJTknY+Fr5juqC4mdGjMdHZWZ6JjzoMV4c+DTdKLFswNflH7vHhvBRpXKRQln/KZJ3nJy1kYBANWg6NyjV1MLcn71XYnlIuYam+Nr6ZCTvc+b/nzNTTweAQ+iTdzHI9fNMB9UD+5cNeNu+du51Xdkmmod4DdoUqe9pVOOdD0mnS09NoqN0n46p5d/IcuJWVP2DwCoLnocXxvb3w5dknRBj2RhM1pdbXKw84Tsaz9kfgZwf2vpRZmM3mTzr8qQ2KkRuWJOziz/UhYTU5xpBD6jzd0uTw++Jl2tfaakGhuXL+UkkFqWi6vvSzzPESwAqFapQkLenv9rWUstSaFUsFFslKvJLc8Nvi49rQM2AuB+ZmNjcmntfXuFakBipwbo+Wndmbm09qFEMn7TvArAr/ncHfLK0NfMd2xOKLMqZ1beknA2IEUeFACgauk92p9alFuhC0yp2QKuJpec6H5KelsHTJIHwP3p5t9MbEzuRG6QWK4SJHZqgP7iXA+ckcXEtGRLVOsAn6Yl00O+/XKw8xGaHm6S7v7OxydlJHBOcqUsSWQAqGJ6j9Yqy2v+0869e0JyRY7ObkZTU7P0egdlb/th6fRwrBt4EE3maK+vs8u/ctaPcSnTyH3XkdipcvlSXlaT86a3TrqQdH5peNACPq3L02t66+hxLBoebs6Kc6+5GboggcwKH9AAUCMWElNmQtaa85CFzdFx50e7H5fBtn02AuB+9ETJrdBFmYmNSrqYslHsFp6Cqlw0G5Sp6C2Zjt6WYpkyN+DTdMR5n3ePPNrzrI1go7LFtBmfez1w1kYAALVCp9SMha+YCh5szrGuJ0zVDsexgAe72y4kLmdX3pZgZpVNwV1GYqfKzcbH5dLaB/YKwKfpztqQb5880vuMjWCjdLrKZHREUs4HNACgtqykFmQietNUXmJz9DjWsO+AdLf22giA+9Fk8tW1U7KcmDGbhNg9JHaqmJ6X1t0XPb8I4PO0VHpv+yFTuYONyxYzcjN4QaajozYCAKg1S86D1fXAaXuFzTjQeUKOdz9lrwA8iPb7OrP8lkxGb9kIdgOJnSqVL+ZkNHzV7KJTVgvc24GOY3K486S9wkboh/FE5IYsJCZN8zsAQG2KZAMyHrkuU9HbUijlbRQbMdS236wxAFRmLj5upmRpGxHsDhI7VWoxOSWT0ZsSSDO+ErgXbZa8r+OIDPsO2gjWS89Gp/NJM3XPn14y1wCA2qTTDPUo1sW1900lJjauw9Mte5z1BU2UgcroZFVNLE9ER2wEO43ETpX5ZHTljeA5WUpMOz8zuhK4Fx1xPuQ7IL6WDhvBeulDwGx8TMbD1yWWi9goAKBW6ZSaG4GzJlnPGnLjXE0u6WvbIyd6nuK4N1Ch2diY3AxelGguZCPYSSR2qkyxVBB/aklGAucllFmzUQCfdbTrCRls22uvsF6aRI7nInJq6efOB3BQSuWifQcAUKt0gqoehdDBG+FMwImU776Bdetq6ZEjXSelqYnEDlAJbZ68kJiQG4FzZp2JnUVip8okC3H5aOmnEs76GW8OPMDBjmPS2zpkr7Be+WJW/KlFs7ObKaRsFABQ67S/zvmVd2QlOef8zFpyozo9vXKs+wnxunzS3MQjE1CJ1eSCXFp9XzL5FEf8dxh3qSqiZxO1hO2q/2NJ5RM2CuDTXE1uOdz5qOzxHZA2t89GsV5r6SW5Fjhtjn6yqwIA9UPv6Yl8TMYi12QlxfjzjdJkTntLpzze/6K0ulhvAJXQdaVOdP5w6ScM5dhhJHaqSCC9LJfXPjQltFTrAPfmbnbL8Z4npau1z1l0uWwU65ErZmU5MSO3QpdsBABQT/R47Vj4iizEJ6na2QSt1nmm/zUzsAHAw91NLEfl/Op7spZaNP0csTNI7FQJbXY3F78jo6HL5hcCwL1pxc7x7qfE5+60EayXJpGnY6PmOwCgPumu+Wx8XIIZJqxulMfVahood7R0s5kEVEirdj7ZQGT8+c4hsVMFyuWSzCcmTVInmgvbKIDP0kVVe0uXHOo8wTGsDSqWizIVuyV3ojdsBABQj7TXjh7xn4iM0Otig3Qzqc87JANtw+J1tdkogIfRQgU9ibJopjznbBTbicROFcgWszIaumI6iAO4v3Z3p5zoftKceWfnbGMSuajMREdNeT4AoL4tJKbkTuSamVaDjdPpWHoEHEDllpOzzv3nhvjTSzaC7URipwqMR66aY1hkM4EH6/B0yxP9L4u72WMjWK8bwbOykJyyVwCAeqZVOyvJeTMBkaP+G/dozzPSxyROYN303nM7dNn0d8T2IrGzi/QDVnvrXHf+hZ+PT/CBCzyAq8kl3a398kjP06Y0GutTLt+932gzTW1mBwCof7q2DGRWnLXmGckWMub4P9ZPJ3H2egfF4/LaCIBKhLN+mYzelJnYmI1gu5DY2UXFUkFuhy45/6KPmu7hAO5Pe+vowkqTOzqCFOtTKOdlLHxVlhKzki4kbRQAUO/ShYTpc7GUnKE6fIO8bp8M+fZLj7MGAVA5rRpciE/IaPiSZAopChm2EU9Hu0QbmMZyYbmw+p6EM34bBXA/Pa0Dsr/9qL3CeuiHaLaQliv+UxLNhWwUANAItHFyIh+Ta4HTJPY3Qdcge3wH7RWASoWcZ907kRGZT0zQyH0bkdjZJbp7Mh6+JlPR25JyfgbwYN2ePhZUG6S7JVoKOx0dZVEPAA1I153nVt52PgsCzoNV0UaxHvs7jspe32FpomoYWJdiuWDaAGhBA1U724c70y4JZlbl57N/bj5oATycnm0/2HHcXmE9YrmQXPZ/KMl8lAU9ADQgUymeDZkprLp7jvXr9vRLf9seM6ETwPrEc2EZCZwzLUg0uYOtR2JnF6yll+Rm8ILzwbrmfNBSjgY8zFDbfhn2HZJWd5uNYD2izmL+ytopydFbAQAalu6SjwTPSSC9bCNYj6amJunzDsn+jmM2AqBSev9JFhJydvkts+GIrUdiZ4dpw+SF+KSZTqDHI/RfcwAPtrf9kGmcTNPk9dOkzlz8jpmKQrUOADQ2baC87LwY2rExA2175UjXSXsFYD0KpZzciVyXyegt02sWW4unpB3mTy+ZkW86nQBAZYbbD8mgb5+9wnqspRdMPy9NKgMAGpv2WZtPTIo/tWQjWI8ez4DpteNqctsIgEpp42Qd4nHN/7F5FmbDcWuR2NlBOmJyLHJN7kRu2GodAA/T0uyRwbb90ts6aCOolN5zlhIzMh27bSMAgEY3F5+QhcSUaWiK9fG625z1yIB0t/ZRRQxs0O3QZZmK3pJ4jsrBrcQdaQfpmebbwcsyH79jIwAept+7R7o8PeJubrERVErvObojEskGbQQA0OgWE1OmgWk8F7ERrEd7S6cc636Cqh1gg3TjcSp602w8MiFr65DY2UHnVt6RhcSkvQJQiUd6n5Ve75C9wnroruxSasZeAQBwlz+9bHbMsX5et89M6SSxA2zcRHTEDBNKULWzZUjs7ADNSs7GxmQicoMu4MA6Heg4Jp0t3fYKlcoVs+a+s5yYtREAAO7Sno9TUY7pboTPbSt2mknsABtl1qnxcdNvB1uDxM4O0Fn9Z1belrX0oknyAHi4pqZm8brbzTQsX0uHjaJSy8lZWU0tSKqQsBEAAO7SqVjaZ0enZBVpYLounmaP9Hv3mqPi2gcQwMZoy4CR4AUJZVa5D20BEjvbLFNMmQ9OzUam8nEbBfAw7ia3DLbtk57Wfmfh1GqjqNTt8GUJOh+UAAB8lg7x0Iep0dAVKTLQY13ubjy1yYGO4+ZYFoCNuTulb0Ku+k9Ltpi2UWwUiZ1tpM2gNBN5fvUdiefCZCKBddBkzpGuR8Xj8toIKqH3nXwpK2Phq86ifc1GAQD4TalCXCYjI+ZIBA1M18fV5JJDnSekzd1uIwA2Qsefv7fwIwln/Ezq2yQSO9tId0NWkwty3X/G+Re1ZKMAKuFxeZxF06PioVpnXfKmt864SepoggcAgHtJ5hOmgalW7uiaFZVzNbfI8e6nTL8dABtXLBUkkg3IZf9Hzr3Ib6PYCBI722g6eluuBE6Z41i6jw6gcp5mrzza84y0utpsBJXIFNNyPXhW0vTWAQA8UNlU6+jRXSbTrE9zU7MM+fZLR0sX07GATdLkzsXV90x/SJLMG0diZ5tEskEZj1yTiciIlKjWAdZFq3R6vQPS0zrA1Il1KJWLZnGuPRMyBc4qAwAerFDOmeal8XzERlCJJufL42qVgbZhaW+hagfYDD0KGkyvmjYCK6l5G8V6kdjZJjOxUZmM3JJoNmgjACrV1nJ3GlZLc4tZPKEyOoFv1flAXEstSIEJfACAhyiWirKYmJZAeoXmpRuwt/2I2YQCsDnaX+d26LI58aJtBbB+JHa2mGYcdYSk7pgvJadtFMB6tLu7nMXSUR09YSOoRCwXkenYKI0wAQAV0c8KPbqrk2m0zwXWZ3/HURI7wBZZTs6Y0y4rqQUbwXqQ2NliehRCs42T0ZvOQ1bYRgGsh5Y17+84Yq9QCV2cx3IhmYndJqUDAFgX3SX3p5ftFSo11LZfujy9VBcDW+RO5IZcWvuAadIbQGJnC2kvnVQ+IWdX3pZAZsVGAayXLpKOdJ1kobQOegxLzyXPxMadK1I7AIDKLSQmJZxZs1eoVHtLl3S39ouXsefAlojmgibRPB29RZ/adSKxs4VShbhcC5yWleSs5DinDGyIJnX6vMPS0uyxEVQimFk10wTy9NYBAKxTupA0mwP+9JKNoBI6HavXOyj9bXtsBMBm6OmX5dScnF7+lfkZlSOxs0V0NJs/tSRnnH8J47kIGUZgg/Ss+mDbsL1CpbRp8nx8wl4BAFA5XbeuphZkOTlnI6hUX+ugDHhZtwBbJZWPmbYmo+HLJumMypDY2SI6/Wo8fE2morfYMQc2obu1T/q87Hyth95zdBKWJncAANgIrdZZSZHYWa9uT7/0tg7ZKwCbpf119NlaCyb0e5mCiYqQ2NkCWq2j0wQu+z+yEQAb1dnSw4SJdYplQxJIr0oiH7MRAADWJ5RZk9XkvGSLGRtBJTo9PWZTqolJnsCWyTn3oZvBi7KUnJF0MWWjeBASO1tAPwgno7dkLn7HRgBslCZ1Btr22itUYiE5LaHsqr0CAGD9dKNSh3/MxsZsBJXQxE6fd0g8zV4bAbBZOu01W0zL2ZW3ZDExZaN4EBI7W0DP/90OXrRXADaqp7Xf7Hp5aJy8Lv7UokSzIXsFAMDGxHJhmYmT2FmvjpYu2dt+yF4B2Co6/nw6OurcmyI2gvshsbNJi4lp01fHn1m2EQAbpdU6HS3d0tTEralSuWJWFhJTEs74bQQAgI3Ro72zsXF7hUq1udupNga2QaaQktHwFed5+6aN4H54etogLQ/TktXrgTPmA1AfrgBsTn/bsHR6eu0VHkanmKylFyWYXpEM548BAJuknyWB9JLZLCiWCzaKh/G5O2Wobb+9ArCVdOqrDinS9S7uj8TOBpVKRTMSciR43kwRALB5A9690uXpsVd4mFK5aHohJAtxGwEAYON0wyCZT8h07DabluugR7H2tR+xVwC2UiIfNSdkboevmIlZuDcSOxug1TrpYlLOrPxKAukV/gUDtkCT89XbOig+d5eN4GE0sTOfmJRUIWEjAABsTraYkrHINTOVBpXxtXTKUPsBaW5y2QiArbSSmpNrgTOSyEVNAhqfR2JnA8zUgNSyXFp9X+J5GjkBm9ckHpdX+tuGzK4XKqNJZd3BSDLmHACwRTLFtIyFrkq2RGJnPVqaWmSPb7+4m1tsBMBW0QrC1eScXFr7gKTzfZDY2QA9evX+4o/NLnmZjCGwac1NTdLv3SNeV7s0OT/j4bLOh9pSYloSuYgUS/RBAABsDf1MCWf9ppFyvpSzUTyMu9kje3wHxd1EYgfYanpiJpoLyaW19yWYWTWFFvhNJHbWSZM5C/FJGQ1d5mEK2CLNTc2yt/2weN0+G8HDaKn8XGJCcqWs+bADAGAr6GdK3vls0cmvVIRWrqVZK3YOULEDbJN8MWt63F71fyTRbNBG8QkSO+u0nJyVW6GLJmPIwxSwNZrEJcPth8TrIrFTqXQhJTOxUXYsAABbz1ni6uaBNi1FZf6hYofEDrAt9Nk7W0zL5bVTspicMdXr+DUSO+ugc/TvRG7IjcB5GwGwFfQo1mDbXml1eW0ED6IfbFo9OB29TWIHALDldOtyOTEjyTxTFyvV0uyRve2HSOwA20gbJy8lZ5xn8usSzDD+/NNI7KzDRHREJiMjzgMVH3LAVmpybkWDXk3stNkIHkSPgepUAH96mal8AIBtUHYenmZJ7KyDx9UqhzofFU9zq40A2C5X1z4yG5x309BQJHYqpKVeN4MXZDo2aiMAtoo2TO5s7ZMWl8dG8CCxXFhWU/P2CgCArac93PSzRhspo3L93iGOlgPbLJwNymT0pszG7tgISOxUQI89XPV/bPpZpAsJGwWwFXRnS8+k6/cm5wsPF89HZIXEDgBgG+nkV60MjWQCNoKH0VVMf9swwyCAbVYsF+62SAmeM02VQWLnofSYQywblqv+U7KWWjLn+gBsHY/Laxonu5pdNoKHieciVOwAALZdIL0s4SyJnYo1NUl36wA9A4EdEMqsyVT0lswnJp0rjmSR2HmIbCElo+ErMhMbo7cOsA202eBA27C4mkjsVEKTy/FcWPypJRsBAGB7aGInQmJnXfpaB+kZCOyAUrloNjqv+E9JtpiVcrmxkzskdh5A/2XRXYr3F/6O5nHANtHpEd2efmkmsVMRHfMYzYYkmgvZCAAA20P762hiR4894OH0KJZWIfvcHXcDALaVVu1oy5Tl5KzkSzkbbUwkdh5AH5zGI9dkLn7H+ReFs3vAdtApEnva9pPYqVAwsyqh7Jq9AgBge8Wc9fBaatFe4cGapLOlR1qctQ2AnaEtCn4y9R+dZ/egjTQmEjv3USjlZS42IWdX3jaVOwC2R0tzqwz69ouryW0jeBBdYOtULAAAdkIiH5NwhslYler09DDyHNhBOsFvOnZL5uITDX3KhsTOfaymFuRO5LqsJGdtBMBW0yodPYfe0dLl/MxErEro4poJJQCAnaKbCTodC5UxR8xb+6XdWdsA2H46wS9dSMr5lXdlJTVno42HxM495Iqa9bstE5Eb5mcA20MnYnV6us0i6O7JdDxMMLNmzhMDALATErmI89mzYq9QiZ7Wfuls6bZXAHaCtlDRKVmN2oeSxM496ASAyciILCanbQTAdtDmgr2tQ/YKD6NN4aLZgMTzERsBAGB7JQsJM0xE2xSgMrq+8bp99grATsgUkjIavioz0VEzRbbRkNj5DC3luhE8KzPxcT7AgG3W5m6XXu+gvcLDBNOrknIW2AAA7JRcMSOx7N3+brpOxsP5WjpJ7AC74E74ummnkimkbaRxkNj5FB3lOJ+YlFvBixJIL9kogO3ibnbTYHAdwtk1c4YYAICdlC1lxO+sjUtSthE8yKB3r/S2snEF7LRCKSczsTFTqNFoSOx8Sr6Yk4urH5gPrkKpYKMAtku7u0sG2/baKzyM9tdJkdgBAOywbDFtWhVQsVOZVrdPPM1eewVgp5Sdr6XkrNwInDU9KRvpSBaJHSvjfGDNxe/I7dBFM9YRwPbzutrMWFBUJpRZlTRHsQAAOyxTSMlycq4h+1ZshE771OPmAHaerpV19Pk1/2lTwdMoSOw4dPchnFmTi6vvy1pq0TQoBbD9Wlyt4nN32is8jO6WpvJxewUAwM64m9iZlZLzhYfTpI6vpcNO/QSw02K5oFxa+0CCmdWG6ZtLYseh1ToLiSk5v/ouSR1ghzQ1NZupEd2tfTaCBymWi+LXxA4VOwCAHZYrZSWUXZMSrQoq1upqY/MK2CXZYkYWE9NyM3hBEvmojdY3EjuOldSc3A5dMueH9VwegO2nu1leypQrokmdaDYoRRbUAIBdUHI+h7KFtJk0oz/j4fS4eXtLl70CsNNypYy8v/BjU7XTCBo+saNn8HTW/Wjoio0A2Ak+V4f4SOxURBM6d4+JZm0EAICdpdNj/elFU72Dh2t1a2KHih1gt2hPsEguIFf9p0z1Tr1r+MTOTGxc7kRuSCwXshEAO6GtpZ3GghXSxfRaeoGjogCAXaPVo6vpJckXSexUQo9ikdgBdpdujt4KXpKFxGTd99pp6MSOnr27E7kus/Fx82EFYOdoUofETmVMYidFYgcAsHv0CFYou+p8FjVGI9LN4igWUB3W0osyGxuXQHrFRupTQyd2VpNz5h+yzrgHsLO8Lp/ZzcLD6W6D3qcapas/AKD6aGInkgmwyVAhU7FD82Rg1+n6eTo2KpPREXM8q141bGJHmyRfDpyS1fSCjQDYSR5Xqxl3jofT+1WqkKJhJQBg12h1+91+byR2KsFRLKB6LCamZCIyIulC0kbqT0MmdsrlkmSch6Sx0FUJZ/w2CmAndXl6paulx17hQbTsfT5+xxwfBQBgN5jEjjZPpsdORdzNLdLSzAYWUA20akfvX+ORazZSfxoysZMupuRa4LRpmMwOOLA7msUlzU0ue4X70XtUrpgxH0hauQMAwG7QjVHd7WbtXBmfu0O6W/vsFYDdpGvoQHpZRoIXbKT+NGZix/lQOr/yrqTycRsBsNM6PF3SQVPBh9Kd0Ug2SFIHALDrTJ+dbMBUvuPBtGLH0+y1VwB2W9J59l+IT8pycrYu+1Y2XGJHjzLo+eCp6C2ONQC7SCdF+Dh7/lC5UkbCWT+JHQBAVdDETqqQsFd4EFezS9rcPmlyvgDsLp0yG80F5UbgnGSK9ZecbrjETsR5QBoNXzFHG3hQAnaHHsFikVMZbVIZz4Wdn7hfAQB2n7Y0YEpjZTzNrdLbOihNTax5gGqQzifkiv+Uqd4pl+trbd2AiZ2gaZrMIxKwe7Rap8VFeXIl8sW7iZ06++wBANSocGZNUgXaGVRCN7I8rjbnJxI7QDXIlbIyFx+XUHrV/FxPGiqxo+eB/aklWU7OOFc8JQG7pbOlW1qZFFERrdiJ5SNUGAIAqoI+DOmELFSGCmWgumilzljkmjlWWk8aKrHjTy/JQmKy7rJzQK1xNbmluanhCgY35O5RrIjzE4kdAMDui2ZDZhAJHq7V1SaDvr2seYAqoivqsfBVEju1bDk1J7PxcXsFYLd43F5xNbvtFR5E+xjoBD/SOgCAaqAV8PTYqYxOxupo6aZqB6gqZVlJzUkws1pXw5QaJrGjVTqrqQXnH+K8jQDYLXoUixGglSmU7yZ2aLIDAKgGOk2GxA6AWqYJ6pXkvBmsVC8aJrETSq9JML1i/iEC2F065tzjosdOJXSCX4hx5wCAKhFIL0siH7VXeBCt1NEGygCqz3zijiwn66foo2ESO9OxUVlLL9orAAAAANg+rS6vDLbtlSZ67ABVZykxK4H0kr2qfQ1zl1lNzUs0G7RXAFD9kvm4c98K2ysAAKqDHsXiONbDaT9Br6udDjtAFUrmY6bPjjaErwd1n9jR4wvpQsJk4xI5ykaBatDbOuAsdHz2Cvejx7AyTB4BAFQZ7f2mD0V4MD2K5TJHsUjtANWmWC6YxI42Uq4H9Z/YKZckkF6RSDbImHOgSnS29JryZDxYqVw0HzoAAFSTTDFtXgBQy0KZVVlMTNmr2lb3iZ1SuSTz8QlJFRI2AgC1oVguSoHEDgCgymhFvG6e4sG0cbLH5aVeB6hSkUxAlpOzJmdQ6+o+saMPRlPRW5SLAqg5Cee+pdWGAABUk3wpZ154sDZ3u+zvOCpNTMYCqlKyEJdgZk2yhbRJWNeyhqjYWUhOSZo+FQBqTLGcdxbOHCEFAFSXeC4isRzN/QHUPs0TaL6g1qt26jqxozsJem5OP3zo3A9Uj5ZmjylPxoOVy5S6AwCqj/Z/owccgHqgg5a0z472tqxldZ3Y0Ykyi8kZ53u25kurgHrS6emRVlebvQIAAACAnacVO5rYqfXN1LpO7GSLGVlKTLOjAFSZDk+XeFyt9gr3UyjnJUcPAwBAldEHoHpoNgoAmUKqLhoo13fFTikjq+l5EjsAalIyH5dYNmSvAACoDrlS1rwAoNbpvSyU8ZvvtXzKp64TO5lCWuZiE1IokdgBUHu0NxgVOwCAahPT5slZmicDqA+FckHm4xOmeqdW1W1ip1gqmEZIsVyIUlEANYz+YACA6mKa+/P5VBF3s1v2tx+RVpfXRgBUm2IpbxI72WLaRmpP3SZ2MsWURLIhOw2LDx4AAAAAO6vJedzyutuZBgpUMW3dspKaM8OXalXdJnYS+ZgE0kv2CgAAAAAA4DfpCZ9QZlXyNdwCoW4TO0lN7GSW7RUAAAAAAMBvKpWLEs4G7Gmf2lS3iR0to9KqHQAAAAAAgHsplosSSK/YaX+12calbhM7WU3s5KL2CgAAAAAA4N6C6TVJ5hP2qrbUdY8dPz12AAAAAADAQyTykZqdjFWXiR0dda5TsdKFpI0AAAAAAADcWyQXNHmEWlSXiR39h5Ep1OY/EAAAAAAAsLOi2WDNFofUZWInnotKIk9/HQAAAAAA8HDazkWHMNWiukzs6Pz5Wh5VBgAAAAAAdk4iFzNDmGpRfVbs5MPOK2KvAAAAakNJihLILNuRqwAAYKfkS2kplgv2qrbUZWJHq3Wo2AEAALWmVC5LMh83gyAAAMDOiebCNdurty4TO1o+VaslVAAAoLEVy3kpO18AAGDnaFJH27rUorpM7CTzMUk5LwAAsH1KUjbTI8rlko1g88qm6pi/UwAAdl6hVKjJ0z912jw577woYQYAYDvprtZ8fFJyRfrBbJVSuWRKwTlSDgDAzovnIhJzPodrTV0mdgAAAGqRHsGKZUnsAACwGwplnbBde8ex6vQoVtS8AADA9tGFz3JypmbPo1ejUpmpWEA90Qk7K8lZydH/E6gJ5XJtdrmry8SONj3KFNP2CgAAbAc9NqQTnGK5EMextkCxXJSU8/eZyEWkUKZiB9XL1eQSt/PCw5n7ZCFhfr8BVD/9Xa3FyZR1mdjRfxi64wUAtazV5ZU2d7u9AqrXWmpJUs6DCzZHd/T96bvVOrpjCFSrNrdPvHw+AahDmWJS0s6r1tBjB8CO027zuoOFB+to6Zbe1gF7BVSv5dSsmUiJzckUU7KQmJRiic0pVDdfS6e0Oy8AqDdaiVyLaxoSOwB2XDC9Kml294G6sZyYobfdFtDR8fOa2Ckz2RMAAFSOxA6AHZcvZaTAgwtQN5ZTc5KgYmfTUvmETEZuktgBAADrQmIHwI4rae8I+kcAdUMb/q6k5iWc9dsI1iuWC8tSckbiuQhHVVH13E0t4m5usVcAgN1GYgcAqpQ2pmxv6bZXQPXSoQWalPCnlmwE6xXO+GU+PkG1DmqCNvb3uTvsFe4nX8pJNBuSspCsBbC9SOwA2HE6ta7sfOHB2p1Fc7en114B1W05MWuqdqg2WT/9OwtmVk3jZKAWaGKnjcTOQ+mku5Dzu82UOwDbjcQOgB2XKaalUMrbKwD1QCt2FuKTpk8M1idTSMlqat78HQK1oKmpSZrszwCA3UdiB8COC2V1KlbSXgGoF9pEeSxyxV6hUlOxmzIduy35Ys5GgOrmbvKIu9ljrwAAu43EDoAdp8cOOIr1cL6WTuny9NkroPqtJOfkVvCSZIsZfscrlCtm5U7khszF7vB3hprR6el2Xj32Cvej/ceypYzzE7/bALYXiR0AqFKtLq/pYwDUilQhLovJKZmMjEixRBPgSszExmQ+PinxfNRGgOqnE7FaqNh5KG2eHMkGxEwDBYBtRGIHwI7TfhIFZ7GDB2tucpnFs8v5DtQCrcbT6U6X/R+Z33Maht6fVucUSgUZCZ6TtdSC83dXtO8A1U0TOq4mt73Cg2g/wWQ+5vzEvRDA9iKxA2DHRbNB56Evba/wIK5mt5k8QptK1IpEPiq3Q5dMI+C7RxBwL1rRpAmdsfBVs6MP1Ir2li7xuLz2CgBQDUjsANhx2lOiWOaYRiVaXW0y0LZXR5DYCFDdtGonlgvLL2f/i/hTSzaKz9KjV2/N/5UEMyumDwdQKzpaus1RYQBA9SCxAwAAtpRWo0xGb5lqlFBmzUbxCT2aMe38/dwInGVCIGqOx9XKUawK6e/3QmKKo5YAth2JHQA7LpYLSabIUaxKeF0+GWzby1Es1BTtH5N1fscvrL4rk9Gbps8E7tKklz7ofbz0C0nlE6bCCagl3a190ub22Ss8iCZ08sUcHXaAGtLe0mmOnNaaukzstLg8dOoHqliyEHcWOll7hQdpaW4xHy4kdlCLFpPTpiplOnrbRqC9h64HzpiKJsaboxa1u+mxU6m7TdJ1WAS/60Ct8Lrapc151Zq6TOzoeGAvI4KBqqW79yXnCw+nzZN97g57BdQWrU4ZC1+Ti2vvy2pqwUYblx5L00TXSOCcZIspGwVqi6+lU1qaW+0VHkTXO9pQniQuUDt0Gq2uv2tNXSZ2NMumxxcAVK9iqUjD0ApoonrYd0iaaJ6MGqVHL0eCF+TU0k8lW8w06ANO2TSNv7z2kVz2n5K1NE2lUbt6WwfExwZqRfT3PpwNSLlMYgfA9qLHDoBdoZNgQplVe4X7aW5ym5J3jmKhloWzfrnmP2uOIGUKjVepoklsHQGvlUvLyRkbBWqTTsXiKBYAVJf67LHT3OK86NYPVDPdvWIH6+G8zuJ5oG2YxA5qWrlcknB2TX42/WdyxX9Kotmgfaf+JfNxuR44a8a/ryRnaZaMmtfR0iWtrjZ7hftJOb/7jXSvA+pFr3fQvGpNXSZ2tNGorwY7WQONJFWIO6+EvcL9NDe5zAK6raXD/AzUKu01sZJakFOLP5MbwXMSzvjtO/UrlgubSp335n9kJmHpUTSgVjU3NUu3p09a3T7zMx4sV8pKupi0VwBqhQ5h8tRgH7G6vCu3urzmBaB6pQpJSTsvPNzdxXS/uJqoREStK8t07LacX3nHVO6spOZsvP7oUdObwfNyduUtuRO5LnkzGQeoXbq50OcdMpXxeDjtr9OIR0+BWqaN4Wt1vV2nR7FaTaYNQPXKlzLOi5HnldAPmH7vHhbTqBt3Ijfko6WfyvmV9ySQXjbTs+qlqXKpXDQ9hfT41amln8vN4AX7DlDbNLGjjZPdfBZVJFtMS7IQt1cAaoGe/KnVHmJ1mdjR3YTe1to7Fwc0Eip2KqeL6EOdx6lERF1ZSc6ZSVk/nf5PEsr4zVGtWk/uFMsFSeRi8uHi38u7838rU9Fb9h2g9ukI4EHfgZo8orAbTGInH7NXAGqBNoev1fU2B2QB7Ip0nsROpXQx3d3aLy52SVFn9KFHK1v+/e3/Rq76P5Z4LmLfqT165GI6elv+fOz/JWeXfyWhzJp9B6gP+lk05NtnKuPxcBmT2KFiB6glHR5tDk9ip2r0OA9A+hAEoHpp42St2sHD0WMH9UonRGmCdyE+JW/N/qW8PfdDGQ9fl3yxdvrRaO+c+fiEfLD4Y/nR5L8zx8y0abJW7wD1RI9i9Xj0KBbtDipxt2KHxA5QS3TqH0exqoiZIONuFxcjz4GqpQ9zGRI7FdFKneH2g5S/oy7p8SvttzWfmJTLax/Kh4s/kdMrv5LFxJQ5nlWt9H/3cnJOLqy8J+8v/FjOrbwjk9GbJmnNSHPUI03s9LcN08eyQpkCR7GAWqPFIZpHqEV1exRLH4Da3Z32CkC10Qc5Te7ojhYeTMvf+7x7pL2lU9wkrFHHgplVuR44I+/N/62cXv6lGYu+lJypqmObes9aSc3LiJ149d7ij+Ti2nuynJy1fwKoP1oxqr0nujy9fA5ViObJQO3pbOkxRSK1qG4TO76WDultHbJXAKqRPqxFskF7hYfp9Q6I1+WzV0B90qNNq6l5eW/+R/I/jv1redf5PhEZce4VAVMNo0ecdrrJcrFcNPerqHO/momNyUeLP5U/u/3fmaNjC/FJM9YYqGdtbp/sbT9kjgbj4fSekSmmqEwGaozP3V6zVYl1e3duc3dIbxuTsYBqpg9oPBBVTndLa/XcL7BemrxJ5KJydvmX8p9G/x/yH27/t3Ju+S0Jp9fMePSdouPLY9mgXFr7QP587F/Lv7/1f5cPFn4s8VzYvAc0Au2r0+nplab6fXTYUpoE1vsXgNqyx3fIudf12KvaUrd3Z+1mrQ9BAKqXTsBZS8/bKzyMHsfSpDXQKDS5ozvf2qdiJjoqb8//tfybkf+r/Lub/zf52cyfmeNQ4Yzf/umtE82GTBPk9xZ+JP/+5n8j/8ON/4v8Yua/OLHr5r61G1VDwG7SdfVA215pamqyETyIblpVc48wAL9JqxE7PD3S0twiTc5XLWoqO+zPdcWfXpILq+/JT6b+g40AqDYHO0/Il/d9V76y/3s2gge5Fbokv5r9CxkLX7URoDHpsRCtHtAJPbqz5mvplH7vkHR5+sXrbjM99iqdjpnIRSSej0q2mJFYLmTGlGsiKeG89FoTR3oMi0QOGtmhzkfk+8f+hTze9wITGiswGr4iHyz8nVz1n7YRANXM3dwiBzuOyz85+b+RA873WlS3iZ10ISEjgfPy7279NzYCoNoM+Q7Iq8NvyHeP/FMbwYPoA+ZfT/xbcyQEwK81NTVLX+ugdHn6TGLH5+40TV4rkchHTRJHEzt6vCqcXZPCDh71AmrBoz3PyD9//F9Jn3fI/L7hwc6tvC0fLf1UJiM3bQRANdOqxOcGv2SeSfT5pBbVbWJH6djRf331/yj5Yo6dNqAKaef5ZwZfkz89+b+zETzMX4z/v+XU0s8o8QYA7AjdyX524DX5Xzz1f7IRPIwe4/x46eeymJi2EQDVzOfukDcP/ZF8Ye+b0tM6YKO1pa5T7p5mjwy17ZPmJpeNAKgm6WLCTLoh8Vq5Lk+PdNI/DACwQ7QSbrBtv71CJZL5uKQLKXsFoNq59ChW5/GaHXWu6jqx0+LyyqDvgPMPirPAQDUqlIqScRY+2UJa6rh4cEvpAlt7iwAAsBPaWzqlx1ubO9i7JZBeNhtXAGqDq8llEtie5lYbqT11ndjRjJs2QXLT5A2oUmXJlbLOAmiFscEV0v4G+gIAYCfcrdjZZ6/wMNp8PVtMs64BaoQmc3QAgyaxm5tr96RPfSd2nH9Iw75DdO8Hqli+mJW19KIZH4yH6/fuIbEDANgx3Z4+GeIoVsXiuYgZdw6gNnhcXhlo2yfuZk/NjjpXdX4Uq1WGfPud77X9DwmoZ/lSToKZVSmys1WRbk+/9LYOmg8fAAC2kzZO7vT0SHdrn43gQbRnoK5ptGIHQG3wun0y3H5Qmmt84l99J3acBx/d3dadBv1gAlB9dLqTnkMvlUs2ggdpdbdJl7PArnSUMwAAG9Xe0mUSO7qmRmVWUwuSKiTsFYBq1+Zul/3tx0jsVDudiHWs5wnzwQSg+miPnbXUImfR10EnY+nOAgAA20l76/TW6Ojf3RLPRyTvrG0A1AZN7BzoOCrNNZ4aaYDETrPJwOlsegDVR8uVFxKTUijnbQQP09nSK8M+EjsAgO010LZXekjsVK5clmB62Uz8BFD92t2dMujc57RJfBMVO9VNEzsHOo6ZTByA6qNHsDS5k8zFpFCigXIltCx+D4kdAMA22+t81vR7h+0VHqbsvLTHTqZIYgeoBZ2tvWbMuau59oct1X1iRzNvA23D0tPaX9Nz6YF6psmdUGZNcqWMjeBBfO520z+s1dVGY3gAwLbQavc+57Omw9NtI3gQne4ZzvolkY+zUQXUCB1Isrf9sL2qbfWf2HG+2pwPpuH2Q6bhKIDqUy6XxJ9ZlmyRxE4ldCKWVu30t+0xfcQAANhqQ759zmdNt7j4nKmIjjhfiE9KoZSzEQDVTE/29HmHZF/7ERupbXWf2PnEka6TMtS2314BqCYl58ufXmI86Dp4XT451PkIE/8AAFtON0b3dRwTH8NHKqZTPnUiln4HUP208l0r4PV0Tz1omMTOgfajJiMHoPpoxc5ifErShaSN4GG0b9iJ7qelhcQOAGCrNTXJkc7HpKul1wbwMPlSTlbT8yR2gBqhR7B08l+9aJjEToenRwba9pjjCwCqi/bYMRU7BSp2KuV1363YcZHYAQBsIe1P2drslQOdx6Wdip2K6RGs1SSJHaBWaGJHJ//Vi4ZJ7OhxhSHfwbppjgTUk7LzlSzEJJoLSYbjWBVxN7VIb+uA7PUdEq+rzUYBANicFufzZY/vgHS2dDvr59qfFLMTdIMqXUjJampRCmUSO0C10w3Sgx3HzajzetEwiR2lH1IHnH+AAKqPTpDQyVjJfMxG8CBNTU3icXvlcNdj4mvptFEAADbH4/LKse4npMXFNNlKaePkWC4kiXzUJHkAVDc9grXHd7CuqhIbKrHT1zpkdrcZew5Up3CWxM56NItLDnYeN5P/AADYCloF+mjvc+Y4FiqTLibEn162VwCqmTaHP9HzVN1NzG6oxI6WXA369sleM9Ks6W4QQNVYSy1KNBu0V3gYHUF7rOsJ6aAHAgBgi7Q66+VHe54xlTuojG5KLSdn7RWAaqZV70/3vWomYtWThkrsqJ7Wfnms7znSOkAVimT9zuIobq/wMPrB1NXaa84Ht3McCwCwSW1unww4Dzu6Gdrc1HCPCRuWyJHYAWqBntw51Pmo9LXtqbtTPA2Y2BmUx3tfkHZPt/OB5bJRANUgkg2aM+pMlKicq8kt+9qPSK9zbwMAYDO6Pf1yrPtJkjrrlC4kJJBesVcAqpXX3S5P9r8sPneH2SCtJw131251eWXIt1+OdT1OiSlQZbLFjE3uhG0EldjfcUz66qycFACw83paB0zjZFROp3nGchEz3RNA9dKEdYenW54ZeM1UJdabhkzH6z/I5we/LD53u40AqBbhbIAGhOs03H7IJHZcjKUFAGxQS3OLSezsdT5TULlYNiShzCrVxkCVa3Oe/fe1H5ZDnSec+53HRutHQyZ22lw+eXbwi9Ll6eM4FlBlItmABEjsrEuXp1cG2oalo6XHRgAAWB9dFw/59v3/2/vPIEnT69DzO+m9N+W97zJd7X1Pj3cYGIIG9NzLNdoVZWJDilhFSCF9kUKfbgR1tVquQteQSwcSlyQIEOAAGAAzg/F+uqdn2vvu8t5XZZXe8/Q7sGO6qiuz0vx/FcWsPG8OP6CrXnOe85xTVuN/C2FyeVTGltiGBRQznYSVDtRKX+qgHSk/FZnYcTicpmpHmygn/PSlAIqJNlAeW7xtv8O90hXW5kiH/Q4AgM3RqbENXEc2bXJpVMbprwMUNbfTIzXBRhI75UizdnvTx6UqUG9HABSDudVpmbBuklZyS3YE90IvVtrlHwCArdBqHb2WYHOo2AGKn/ajbI/3ScAdtiPlp2ITO6oq1ChN0U5J+rN2BMBOW1tfk9nVKfrsbFLEmzA35REv27EAAJsT96UkG6iXqC9pR3Av5lamzdCHxbV5OwKg2Gi1Tku0W9pifWU98a+iEzs6IasjPiBNkU5x0WsHKBrzq7Nye/6abFhfuDd60Ur4s9IQbjMViQAA3Kt669qhU2PLsaFoPmmlzszKhKxv5OwIgGKTDdSZYg7tR1nOKjqxo5qtf+SOeL9pGAegOCyszcqd+av2O9wrnWbSmRi03wEAcG+ao91l/9CTD8MLN2VmZdJ+B6DYaIVOd3KP2Yqli6DlrOITO7rPrjnWbf7BARSH+dUZk9jZ2KBiZzPi3pR0xncz7Q8AcM/0wafeeuhJ+BgoslkjCzdI7ABFSivY9Vm/J7FXqoMNdrR8VXxiR1UHG6UnuU98rgBbGIAisJRbND12ltYWZH1j3Y7i87icLol4Y9KV2C1+63wGAMBn0RXsXcn9kvRXWdcQtx3FvRpeuEViByhSXpdfTtV/UapDTRVxfiOxY9EHIF2pOFj1EHuLgSKwsbEui2sLcmXmQ6ZjbYquTITMKEe/9QoAwGdxOzzSHu+XsDfK4uYmaE+dofkbMr0yLqvrK3YUQLHQXrr6fD+YOS4xX7Iizm8kdiwOh9M0Hd1fdYrGcUCRWM0tyeWZs7K8TmJnM7TysCe1X8KeaFl3/gcA3B/dthvyRs0I4JA7YkdxL3IbObk5d8kMe9DFKADFRafF7k4flUygtmKe7bnrt2nVTmOkQ3qSdx+IAOyslfVluTxNxc5maVm97iOusr79rqAdBQDgF+m9b12oRWqCjWbLAu5dbn1Nrs2eY8w5UIT0/lfPbf3pw+Ip84bJP4/Ezs/xuLyyv+oBk9lzs88Y2FEr6ytydfpDWVido8/OFnQmdkvSn7XfAQDwi8LemPSm9pf9pJjttmF96eLTFb1HWZuzowCKgW65qgrWyy7r3FYdaqiogSIkdn6Oy+GWhnCb+UVIB2rtKICdoKXN2kR5zDRRZkVss7TPTjpQY78DAOAXRTxx6U0eEDctCDZlbX1VppZGZWThNlXFQJHR81lztEsGUoftSOUgsfNLtN9Ov/WL0BzpZAUDKALXZs8zcWILYt6k1ISaJO5L2xEAAO7Sa0NTtFNivhT92DZJJ3benLsiaxurdgRAsWiJdZuG8BFf3I5UDs7kn0BXudvifWZvHoCddW3mnEyvTNjvcK90rGNTpFNqQ812BACAu3SrQmd8N4uYW7CwNitXZs6aPjsAiodOhN2V3Gc9x/eanTiVhsTOJ/C6fNIS7THZPv0ZwM65M39NppbHZI1xopvWEGk33x4n5zEAwF26VUETO1qxg83ThslXZ85JboPEDlBM2mK91nefJHwZO1JZSOx8Cr3gdcQHpDrUZEcA7ITZ1WkZXxyWudVZO4J7pc2T68ItkgpU2xEAQKXTa0NNqJmtuluwur4i08sTMrJ4m8EOQJHQVioBd0j2ZU9KNlhnRysPiZ1PoaWpjdF2OVz9SEV10waK0djSkEwujdjvsBnVoUbpTgxaPznuBgAAFcwhXYnd0hrrsd9jMyasexHt/adNk3U6FoCd53V+vNumT6LehB2tPCR2PoM2H9X9x42RDrYyADtoaP6ajC7ett9hMzL+WmmP9YvP5TcjIAEAlUtbDNSFWiUTqNxV7fsxuTwiN+cu2e8AFIOwJyqPNv5GRSd1FImdz6CVOglfWk7VfVFCnogdBVBoQws35M78dVnN0Wdns3zWTXwmWCsdiQHTUBkAULm0Wqc23GSS/di8iaVRuTlLYgcoFprM6bTOa41RCjFI7HwOnzso3cm9Zh5+0E1yB9gJ2qhwbOmOjFrf2Bzddxz3pWR3+qh1wfPaUQBAJepLHZRsoI4R51uwsDYnU0tjMrMyZUcA7CQtwtCWA/urHjQ9dir9vMZZ/XO4rF+YqC8hg5njkg3WciEEdsgkq2RbFnJHpCPWJ5lALckdAKhAOvo35a+Wpki3RLxxO4rNGF28u8DENCygOGgDeJ2Epfe4tBsgsXNP9BdlMHNMmqPdEnCH7SiAQtLmyTfnLjKFYgt0C1bcn5aBzJGK338MAJUo4A7KnuxxifmSZpUbm6eLS3fmr9nvAOwkPY9pE/hdyX3icdELV5HYuUe6F7k3dUBaot12BEAhTSyPyrXZC7K8tsgkii3QfcdHqh5lvC0AVCBtJ3Ci9mnTZBRbc2fhmowu3LLfAdhJQXdY2mJ90hbvsyMgsbMJ7fYvD712gJ2xsDorl2Y+kNw6ZdCbpdtIY76UqTxM+DJ2FABQ7rTPWndqryT8GZrob9H44rAZdb6UW7AjAHbSoeqHpSPezxasn0NiZxP87qD5BepPH7QjAAppXhM7Ux/I2saqHcFm6A19Z2JAqoL1dgQAUO7SgRrZmzkubqeHh6AtOj/1nowvDrEdHNhhOhREe0Z2xAfMuQ0/Q2Jnk2pCTbIruV9i3iQXR6DAFtZm5dL0mbvbsTbYjrUVTZFOqQ+3UnkIABVAGyU3RNql0Tr3c9+6dRem3pfJ5VH7HYCd4na4ZU/mhNSGm02rFPwMiZ1N0v189ZE2MwKdclagsJZzS3J7/pqMLw3L6vqKHcVm6Haspmi3uSACAMpbXbjVrGzrKGBs3vpGTmZXpkzTZK0aBrBztOpQq3QOVJ2ircAnILGzBVr+daruiybJo+VgAApH++tcnDoj82szdgSb1RLtkk7rRt/FZBQAKFtup/un53tsjS4onZt81yR3NMkDYOfoZNf9VackFag2SR78IrISW2CyhcEa2Wf9YkU8cTsKoBC0v84HE2/K3Mq0HcFmJfxZabJu9qtDTXYEAFButFm+bsFi6+3WreSWTH+dpdyiHQGwE3SnjBZXHK15QnyugB3FzyOxswW6RzngCsmR6sckHahm1RsoIK3YuTF7wTQx1BsubJ5OyKoLNcuBqgftCACg3PQmD5j+Og4HvXW2Ime2YU3L+cn3ZJnEDrCj6kItsi/7gOkbpvex+FX8r7JFTqdLakKN0pc6aLKHAApjw/paXJuX2wvXZGZl0o5is6K+pOm70BjtFI/Ta0cBAKXOJO/DrdJknd912Ae2ZmF1Tm7NX5GJpVGzqARgZ2iPsOZol+xK7qOg4jOQ2NkirdrRLVkD6SPmwul1+ewjAArh8vSHMrp4236HzdJkTkYb0GVP0VQTAMqIy+GW3Zkj1jm+jj4U92FmZUIuTZ2RtfUVs6gEYGdolXl7vM/01sGnI7Fzn+rCLdIa2yUZP3P0gUK6MvOhDC3ctG64WEXbqqAnbMpaU36a0AFAOdA+FDotZnf6qMR8VOts1frGukwsjcjF6TMkdYAdpP10dBp1W6zPjuDTkNjZBt2JvdKT2m+/A1AIC6uzps/O9Mq4HcFm6apu3J+W3ZmjJrkDAChtMW9KjtY+YdoEsM1265bW5mVs8bYZcw5g5zRG2k0RRdKftSP4NCR2toH+orVZv3CNkQ47AqAQrs9ekMvTZ+132ArdVro/e0pqQ81U7QBACdNkfcpfZSoxfS6/HcVW3Fm4LtesewwAO0PvT7VaR4cV1Ydb7Sg+C4mdbaAPQw3hdtmbOWFHABTC8MINuTF7SVZzK3YEW6FVO7p3uSrYYEcAAKUmE6yV3tR+SfjS4qTB6H3RSp1rs+ftdwAKzevym/OZDvkIeqJ2FJ+FxM42iflS0pnYbUrFKH0FCmN+dUZGFm7SRPk+6YSB7uQeaYv10ggeAEqQ3nvqaPO+1CHTZwdbN7U8Jrfnr5keOwAKT+9LtUfY/uyDkvBnzHt8PhI720SrdnSl5EjNY8zXBwokt5GT8aUhuTh92o5gq3QrVmdiQKqDTXYEAFAqssF66Yj1m6EeuD+6zXto/pqs5JbsCIBCCnoi0hztMUUTflfQjuLzkH3YRkF3xEwhqA41idcVsKMA8ml8aVg+nHhLcutrTK64T02RThnMHKXXDgCUEO2t0586JLuS++wItkqnYV2d+UhGF6gEBnaCbiPNBurkYNWDEnCHKJbYBP6X2kb6i6fjgw9XPyJpJswABbG0tiDDC7fs0eerdhRboU03O+L9UhdqoT8DAJSI6lCjNEU7mRpznzY2NmRmZUKuzpyT8WW2YQE7QSf7ad9HbRFAUmdz+F9rm+nDUI+Ztd8rUW/CjgLIF63S0V47b4382CR5sHUO6wJaHWyUB+u/LB6qdgCgJBytedxUXOo5HFuX21iTc5PvyvTyhGxsrNtRAIWk4813JfebSkRsDleAbaaj2cKemMky1obY5wwUgiZ0Phh/Q+ZWp00ZNbZOqw7b4r3Smzpg9jgDAIqTNrvX7Ve6us1i4v3Tvn1nJ96SmZVJOwKgkLLBOulI0Ctsq0js5ElztNt6ONplpmUByK/V9RUz+vzW3FVZXJuzo9gKrTqMepNysOphs6WUFRMAKD4fn6sPVz8qKT1XMwnrvqysL5v7CG2cvLg2b0cBFIreb3Yn9kp7vF9CjDffEhI7eRLX8efx3WYVhf2BQH7pdqyV3LJpojy5PGpHsVUel9e6uO6RltguM+UPAFBcgu6wtER7pCe53zQYxf3RLd2nx14z27B0SxaAwtEdLzrWvNc6n2mfR2wNGYc8aon1yJ70cXtMm+NuEEBeaHLnzPjrMrY4ZH7G1ukF1ucOyPHaJ82Dg74HABQHPSfXhprloYavSMgTZgHxvm3I3MqM2dK9ur5sxwAUilYc7k4fkapQPZNZ7wNXgjzSX0z9BR3IHBEXF10g77THzrXZ84wp3SbVwQZpj/dKVbDejgAAdppOMNSKcO1DQcPk+ze/Oid35q/JzblLklunWgcoJE3qxH1pOVzzqKQDNXYUW8HVII90RUV/QbVXRcSbEBfjg4G8Wt/IyeWps3Jr7oodwf3Q5HRv8oD0pw+Lx+m1owCAnaLn5c7EoOzNnuC8vE3GFu/Iual3Tb8+Kn6Bwop44nK05glJ+LL0dbxPJHbyTLdh1YdbZXfmGBNmgAK4PX9Vbs5dloVVmihvh3SwVnqS+6TLepAAAOys1tgu6U3tl+pgox3B/dD+fLfnr8iFyfftCIBC8bkCZlupJqr97oAdxVaR2CkAvzsoR6ofkWygjtUVIM90O5bepGlZNe6fVhpqcnp/1SkzgUUnsQAACkurwHVle3f6qEnuMAVre+jAhZuzl2V0kS3cQKEl/VVm8VC3/FOtc/9I7BSAJnOaol1mfJs+GAHIL03qaFm1bs3C/dPJWG2xXulLHRC/ixUVACg0l9MlXYnd0mHdS2o/Cty/jY0NuTF7UW7OX7YjAArF4/RJU6RDBjPH7AjuF4mdAjpU/bDUh9vsdwDyZWThllyYPC0zyxPmxg33T8dQPtX8e+aVfmEAUDg69SrojsjDjb8uNaEmO4r7tZxbkotTZ+TazDk7AqBQmqKd0pPaJ6lAlR3B/SKxU0DaSLkntVcaIh12BEA+aPPDmZVx+WjyHcltMOFiO2gyJ+pLyIP1X5YqejsAQMFohc7jTV8z95Fswdo+H02+ZbZua58dAIWju1m0ArEzPmC2mWJ7kNgpIPNLHL9bRsuMfiC/ppYn5L2xV2RxbV42NtbtKLbOcXdKVuqAtMV3SdSbsOMAgHwJeaLSEu2WwcxRCbhDPARto3OT78vo4h0mYQEFpu1JWqI93EtuMxI7BZYJ1JpeFXXhFjsCIB+WcvNybfa8XJ05Z/28aEdxP/SBQleOB1JHzAWZZvAAkD+aTNfm9XszJ02TUbbBbg+t5B1euCk35i6agQsACkPvI3US1kD6sHkWZiDH9iKxU2BaQlsfabN+oY/YVTusvAD5sL6xLgurs/LWyPMyvTxOr51tpKPP+62LcjZYb0cAANst5a+WXckD0pc+ZEewHZbWFuXtkRdlfHFI1tZX7SiAfNNnX+2t0xEfoAl8HpDY2QHZQK3ZzpD0Z8Xl4J8AyBfdN//e6MtmjOnq+oodxf3yuLzSk9wrB6pOsa0UAPLA7XTLQPqQ2YLldfnsKO6XLvLMr87IK0Pfk9nVKTsKIN+0Wke3lj7W+JvmGRjbj6zCDkn5q+TJpt+RgDtsRwBsN903v5xblA8m3pDhhRt2FNsh7ktJT3KfHKh6kO0BALDNtLK7L3VIUoFqO4LtML0yLmcn3pTppTHJrefsKIB806ROZ7xfmqNd4ncH7Si2E4mdHaIJnc7EgNSFW8Xv4pcbyBdN7lyYOi1jS3fsCLaD7ouuCtbLkZrHzHnM62RFGQDul8vhlupQoxyselgaIm0kzrfZ2OKQvDH8Y1nb0C1YbNEGCkWLGo7WPCl+msDnDYmdHWJGB3uTcqj6YcrRgDzTG7kbs5dkYmnEjmA7aAO8hnC7nKr/kjmPOdlaCgBb5rDOoWFPVE7WPiMtsW6qureZ9tu7PntBbs1dNn34ABSGJnV0vLn21+FeMX/4X3YHaSNl7QreEuuxLuQxOwpgu63kluTy9Fm5OvORHcF28bkDsi970vQNoxEeAGydJnV2pfbL/qoHrJ/jdhTb5db8VTk3+a7Zog2gMDSR0xBpt+4TD5ktWFTr5A+JnR30cRMpTe7oLzy/6ED+XJu9IBenzzD6fJvpecvr8sux2ifNlAOt4gEAbI5uZ22KdMpD9V8x94asam+v5dySXJs5JxenTtsRAIUQ8SakOdJleusgv7hqFIHO+KA0RjrE4/TaEQDbbWltXm7NXuGmLk9qQk2yN3tc2uN9dgQAcK90gW9/1YNSH2kjqZMHmtTRBZ6FtTk7AqAQBlKHpTu1l+l+BcCVowj4rF/07uQe6U8fsiMA8uHm3CV59c73ZWlt0Yw8xfbqiO+W/dlT0hBusyMAgM9TE2yUvdkT1n3gQTuC7fbBxJsmuQOgcFL+rHQmdlvnuCY7gnwisVMEtFmePgh1J/dKzJuwowC222JuQW7NXzGjTlfWl+wotkvAHTLbsQ5WPyxBT8Sc2wAAn07Pm4PZ47IreUCC7ogdxXbZ2FiXazPn5cbsRZldmbKjAPJNt+rvyZyQep2cSrVOQXDXXSR0P7Vux9LkDr12gPzQG7yZ5Ql5c+RHMrc6Y95jeyX8adNIeW/2pPWQEhaHg/MZAPwyvdfTLfj96cPSlzokmWCtfQTbKWdd598de1lGFm5ZP6/ZUQD5pOe2mnCT9KUPWfeFGTuKfCOxU0TSgRrzMBTzpcTlcNtRANtJq3bOT74vd+au0Ug5D5wOlzmXnar7orTGdknAFbKPAAA+pivYjZFOOV7zlNSFm637Ppd9BNtlbX1VxpeG5IPxN2R6ZdyOAsgnTVrrhL992Qek1jq3MVSjcEjsFBFd3W6Kdslg5pgEPWE7CmA7aZWONlJ+d+wl64ZvWDasL2wvXampDjXKww1ftS7qLSSqAeDnaAI85a+WJ5t/Wxqj7Tz45Mns6pS8PvxDmVgaMkkeAPmn94CZQK0cqX7UPNuicEjsFJmQOyInap+WhC/DwxCQJ+sb6/L+2Ctya/aSLK0t2FFsJ119bovtkkPVD5tpLwCAu6qC9XKk5jHpSgyK1+W3o9hOa+trMrYwJC/d/q4scp0HCiYdqJaBzFGJ+dI8yxYYiZ0i43K6zT7rvvRBSfqzdhTAdtIqnfnVWTMlQydlIT/cTo/pH7Gv6qTUhVvsKABULk3q7Mket86LD5hzJH0V82N86Y58OPmWaZi8vpGzowDySasP68Nt0pc6KE4GaBQc/4sXmZ8200sdMlsYPE66iAP5oDd6F6fPmGkZy/TayZuYN2mdzw7LnsxxiXhidhQAKk/IEzEPPHszJ01lNvJjJbckN2cvm946JHWAwqmPtElPcp/ZaorCI7FTpOpCrdIW6zXlbADyY3JpVC5NfyDXZy7YEeSDrlDvTh+V3Zmj5sGGVRwAlUQX7XSseW/ygOmjSAVjfo0u3rau7Wfk9vxVOwIg37SfTmd8QDoSA+J2sgVrJ3B3XaQ8Lq90JwalPd5nKngA5MeV6Y/MKFRd4UP+1ISbTTPl9lif+F1B86ADAOXvbiW29hx7oP6L0hztsePIB22SfGHqjJyfOk3DZKCAtJ+iTkNN+avsCAqNxE4R0z+QrsQes9oNID90BOr1mfNyc+6KaaqM/NBmyqlAtXyh5Q8lG6wz/cQAoNy5HE6J+VLyTMsfmfs6VrLzS6ddXpw6LbfmLtsRAPmmi3V7sw9IU6TTjmAnkNgpcvoHss/6QwGQPyOLN+Unt/+Fvfh5po1Cq0L18qXWf2Omweh7AChXOhGm0bqP+82O/86c+zjn5d8bwz+SG7MX7XcA8k3Paz2pfda5rt1st8fOIbFT5HSVR8vaWmI9jIwD8mR+dU4uT5+VM+NvyMLanB3Fdvu4OXxztEuO1jwunfHd9hEAKD96//Zgw1ekLd5rxpqzBTV/dNuVJnS0WmdyecyOAsgn7ZkY8kTleM1TkgnUWu9d9hHsBBI7Rc5jVrgb5FDVw6bxnsPBTQGw3XIbazJl3Qi+OvQ9mVoaY0tWnvndQemID8je7AlpjnbbUQAoH/XhVtMoeVdy7937N5I6ebNhXbPnV2fl9eEfytDCDVldX7aPAMgnPbdp/zBNYgetn7GzSOyUgIgnLv3pI2aKgs/pt6MAttNKblk+nHhLrs2et24QZ+wo8iXijZuRmIdrHpWaUBOrPADKhvZG3F/1oBltrqvZyK+l3KLpqfPOyE9kbmXajgLIJ71v07Hmeq4LesLiYOLpjuNfoARomVvYujHYlz0pcX+GVR8gDzasL03uvDP6EzMilaqd/Ev6s7Inc1weafiqJHwZtpsCKGl3tyVE5ETt09bDzinTKB75tbGxIRNLI/LW6AtmGIJW4ALIPz3XNUW7zH0cE5yLA4mdEuF1eeVIzeNSF241+7QB5MfZ8Tfl4tQZmVmZtCPIJ63c2ZM9IU+1/K5kAjV2FABKj1ZYf6HlD8wKdtKXsaPIp+Xcgumt8/rQc4w3BwqoLdYrR2ses9+hGJDYKRkO03Vce+20RHvsGIDtpqt9uiXr/OR7dgT5pBWIfldA+lOHTZNRbawMAKVGt5Q+3PhVk6gOe2NsSyiQS9NnzSQskjpA4WjFdVOkyzrvNdsRFAOuOiWmJdYtzbEuiXgTdgTAdrs9f03OT70nd6xX5J8+AEWsByHtR6ElvdpPDABKRUO4TQ5VP2zOXzFvUlz0DCsI3YJ1cfqM6Y0HoHC6E3ukKzEoPnaRFBUSOyUm7IlJR6xfWqnaAfJmce3u+PPTY6/J2rru19+4ewB5pStA/enDsjtz1PwMAMWuNtQie7MPmKROmu2kBZOzrs0Xpk6brdMMPAAKR8eadyX2SF2Yap1iQ2KnBOlIOSYtAPk1snBL3h97RYYXblg3kDk7inzT7Qx7MifMmGB9SHI5aagMoPhopaEmoLVSZ1/VSckG6+0jKITxpWE5M/666a8DoDC0QbwuwNVH6PlajEjslCC/OygN0XaT3AGQH9prZ2Txlvz41jdlYW3OilC1Uyj14VZ5qvn35GnrO+5N06sCQFG52xssKA83fFUOVj9kVrBROOsbOXlz5Hm5PntelnOLdhRAPmlSJ+gOy77MSckGSGQXI+6WS1RVoEH2Z0+ZpqM89AD5oeXdp0dflSszH8nC2rwdRSEE3CGzJeuJ5q9JXYieOwCKR8pfJV9o+T3Zlz0pUXoeFtTq+ooMzd+Qd0d/IuOLw3YUQL4F3RE5UfcFSQay4nLSR6wYkREoUdqsqjrUIPuqTknAFbSjALbT+sa6zK3OyPO3/lnuzF0ze/pRGLoypMmd/tQhOV77pNmCCgA7TZu7n6h72mwZjXjj1rmKB5xCml2Zkh/c+IaMLw6ZyloA+afPnbWhRjlU/Yjp96pViyg+JHZKlMPhMKtER2oek0ywVjxOr30EwHbSku/LU2fl/NT7Mrk8akdRKDFfSvrSh+RA1YPSQtN4ADuoPtxmqqUHM8cl4c+Q1CmwmZUJOTf5rnww/rossQULKJiEPysD6aOSDdaJ2+mxoyg2JHZKmDat0lVsHTlHKTCQHxvW11JuQc5OvCFXZ87JSm7ZPoJC0W0PA+nDpkmprpZrIpvVIgCFouPLG8Ltpp/O3uwJ83CDwtKK2dtz1+TtkedlZmXKLLoAyD/tJ9YQbjNNk7n3Km4kdkqc/oHpSnat9bDjcjA9BsgXHal6duIt01AZhZf0V8lg9rg8VP9rZnKWJra5wQCQb5pI1ubIjzb+uhyufpTpVztkemVCLk9r9expOwKgEKqsc15nfICEdgkgsVMGakPN0h7rs248auwIgHz4aOIts1qInaGVifurTslvd/3vzOQsmvcByCet1NGKQT3n9KUPS9gbs4+g0D4Yf0Pesq6/K7klOwKgEDri/dKfPmK/QzEjsVMGdCpWf/qQtMf77AiAfNDy7wtTp+WdkRfNFi0UllboeFxeqQ01yVPNvyv9qSPid9M8HsD2C3ki0ps6IF9u+2NpjLSLnyrBHXN+8j35cOItGV28bUcAFEJPcp90JAZIapcIEjtlIh2okY74gDRHu+wIgO2mEzh0j/9rw8/JxNIIU7J2gD5YeV0+aYn1yAP1z8jBqockwg0HgG2kSZ3+1GE5Vf8l81DjdwfMIhoKSxdQFlZn5b2xl+Xq7Hkz6hxA/um9VsAdlt7kftNfTKsXUfy4SpUJ3QPeFO2SXdYfIL12gPxZWJuVK9MfylvDz1s/z9lRFJqOQtctqNrzYm/mpNkuwY0HgPuhDzO6ULYv+4AcqXnULJgFrYcbPYLCW1tfkTPjb8j5yfdlenncjgLIN5341xbbZRbRor6kHUWxI7FTRlL+ammP95smV05WloC80eTOT27/i9yYu8TI1R3kcrqlMdIhD9Z/2TyIaYNTTXIDwGbpCN90oFr2Zk/KQw1fkc7EIGN9d5BW5wwv3LKutd+RscXbTMECCkSTOmFPTPZXPWjuq1g0Kx08/ZcRt/WQo9NiTtQ9LV4ne8GBfFlbX5PRxTvmhvPW3GXZ2Fi3j6DQNLlTFWqQL7b9kRytfUIywTqqFgFsij64JP1ZOVn3BXm86bekKthgH8FO0C1YE0vD8pJ1jb02e54FFKCA/K6AtMZ6ZFdyn0S8cTuKUkBip8zo1Jj+1CHTa8dn/WECyB+d0nFu4h2ZWB61I9gpmsw5XvuUPN38e9KZ2G1HAeCzaZVfW6zPNGQ/Zp1DAi4asu+0+dVZuTz9obx65weymlu2owAKIeZLydGaJ8Tn5jmy1JDYKTO6BSvsjcvB6odNkgdA/ujY1XfHXpaz429aN580ddxp2nenK7FbHm38DTlR+7T1wOazjwDAr9LmoPuqTsmjTb9hehTqOYQmyTtrbX1VLk2dkTeGnpOl3IKp3gFQGAlfxrqPGjQVOx4HW1FLDVevMuRxeqQ7sUdaYt1mjySA/BmavyGnx1+Tc5Pv2hHspJAnat2Q7JIjtY/Lg/Vfsm5S0mzNAvALtIdE0l8lR2seN9/aiJ0tB8Xh5twV+WDiTbMFC0Dh6JbU2nCz9KcPSdATIcldglz/N4v9M8qE/iHqqpP2AdE9ylPLY6x4AHmiDR2X1ubNa0Ok3WyBdDjob7WTtN9YzJswPcc2ZF1WN1ZkObdoVoIBVDbtH1EXbpHBzHE5Wvu49XOreF1U9xWDmZVJeXPkeTk99qq5dwVQOJrsHsgclj3WuZFBFKWJVFwZ06od7bUTdEfsCIB80JvRC1Nn5L3Rl2VxbZ5mykVAV+QT/ow80/pHcrLuGetc2G3GFpN0AyqTDpTQRa/GaKc8UP9Fear5d8wUUSa+FId167p5fvI9OTP2mgwv3LCjAArBjDeP75KO+G6zRRWlicROGQt7Y9KR2G22ZAHIr4mlIfnhzX+Um3OXZXmdZo/F5FD1w6ap8u7MMfHSdweoSLoC3Zc6KF9s/SPrnPAIo8yLiCZ1ltYW5Mc3v2ldQy/ZUQCFotvYe63zY3u8z46gFJHYKXMdsX7ZlTxg/mAB5E/OujGdWZ6Q7137WxlbvG1HUQx0pb4+0iYPNXxFnm7+fckEalilBypIyp+VJ5t/Wx5v+po0hNvMOQHFQ6te//PF/68ML9yU3PqaHQVQKIeqH5L6cCvnxhJHj50y9/GK1MLavNyau2x+BpAfuuo4tzotfldQYr4kzcuLiPbd0W0YSesBT3vvrG3kzL/VCtVVQNnSv3mt0jlZ/4xZjU4HasRDP52iMrk8Ku+PvSwv3/5X6151VtatLwCFocMlMsFaOVX/JdN7jErG0kZipwLoyF+30yWXp8+ahxgaKQP5ow1659fmJOSOmiSCNlNGcdAqnaAnLNlgnalidFnnxeW1RVm0/r04LwLlQx9OsoE6GUgfNtuudiX3SdSbNH0kUDy0J93FqdPy4u3vyNDCDdPsHkDhBN0hOVz9mPSlD7IYWQZI7FQAnfage8unlsdldPEWk2GAPJtdmbL+74a5SOoWAJeTcdvFxOlwSiZQa/3bVJl/m6XcounvsLbBuREodVqlo5Ou9mRPyLHaJ0zjdFahi49WuF6fPS9vDP9Izoy/ZkcBFIr2HKwJN8mTzb8jCV+aLeplgB47FUJXqh6oe0ainoR5qAGQX+cm35XXhn8gd+Z1FZJqkGKkW7Ieafx1eablD0yTed1Cx4o+UJr03sbvDkpbbJc81vgb8kjDV83UKxQn3Qr7zuhL8vbIi3YEQCFpVfne7EnrPFnHePMyQcVOhXA6XWbU78TyiEwujcpSbsE+AiAf1jc2zBafhdUZ6YoPmsoQRm0XH5f1MJiwbm7a4/3moXBiaViWc4tsCQBKiCZko96EPNX8e6ZXhI4097i8NAItYs/d+Ad5Z/QndoUrgELSKsa2WK881vhb5t6Hc2V5ILFTIfQPVlez4t6U3Jq7Yj28jPDgAuSZbntczC2Yv7WaUKN4XX77CIqHnhtd1o1NwGzPqo+0mqiuJmuCB0Bx0y2vPcm98oWWP5TOxIDEfGnxWA8tPKgUJ70uvj78I3lj6EcysnBT1jdy9hEAhdIY6ZB9VQ9Ie7zXPB+iPJDYqSBaLRD0RMzqiE4h0AcXAPmjW7BW15dlamVMEr6MRLxx8ZHcKUp6Y6O9OeLWQ6H+W4Wsc2XOeuCYXZ0y1VcAiouuOGv/HN1KsL/qQemI95t7HB5Sipf2M7s2e05+fPOf5ObcZVnJLdlHABSKLjIOZI6a82bYE7WjKAckdiqMrkx73X6ZWh4zEwhYKQHyS//G5lbujtVOBaol5k3STLmI6cOi7jvXfytN7uhD4tLaoqxtrFj/llQ5AjtNx/PGfSnpTu6xHkxOyWDmmDRG2s39DYrX6vqKDC/clJfufFfOjr8ly7QEAHaE9hTUc6duxUJ5IbFTgfTBcn5tVoYWrlO1AxTIyOItCbojkgxkJeKJ0W+nyGlPMt0+p+XKy+uL5qFEv5kqCOwMTbJqL4hssM6M5n2s6bdMlU7Yy4pzsdvY2JDxpWF5f+xVefHWt2Qlt2wfAVBIWq2jw3R6UwfM+RTlhcROhdJyZb3Qnp96z44AyLfbc1fMVqyWaA/jd0uAVgCEPFFzA1QbbjYJ8fGlISodgQLTfjkBT1i6EoPyVMvvyIm6L5jeOmy7Kg1asfru6Evyvetfl4W1OTsKoJAc1vmyMdwuR2oeM/c0KD8kdiqUPlzqyvNN60Fzbo2qHaAQdCuP9mzRqXRNkc67k7Jo8FkS9CGyOdIldeEWWdtYNRVYAAqjL3VQHqr/ihytfVyqQ00kxkvM60PPySt3npXRxTum9xyAwtOm8l9p+2OzFcvr8tlRlBMSOxVKV7l0FKj+kZ+bfI/eEUCBrOQWTQNJj3VRrbUeUOgLURo0Cfdxc+VsqF6qAvVmO8FSbp7tWUAeeJ0+k8Q5XvukHKh+UNrivZKw/v48Tq/9CZSCM+Ovy+vDz8nVmXPWuXLFjgIoJO0Z2J8+LIeqH5GoN2Gqd1B+SOxUML1pCnrCcmf+msytzphVaAD5pUnU5dySzK/NSCZQY7b6sPpcGrQvklY7auNW7fMR9SWs90HTe2dxbV50rD2A+6OJm6pgvemjsy/7gOzOHJW6ULME3GEeRkqIJrx1SMcLt74tF6fOyMLarH0EQCHpYn46UCuPNv66WVB0kxwvWyR2Kpip2rH+uLVy4MbcRVlY5aILFILe8M6uTJuEQMJ/d7Q2yZ3S8XETV92WlfZXm2aE6yaps2F6SWj/MgCb43K4zPlQG5brpKtDNY/IruQ+ezodlY2lJLeRk+nlMXnp9nflvdGXZWZl0j4CoNAi3rh0xneb3mS6BYsWAOWLxE6F0xupVKBGLk69L1PL49bFeM0+AiCf9G/t1txlkxTQh5mIKY3lYltq9IapKdpp+u94XB6ZXZky/7baYJleEsDn06SNJkqT/qzszZ6UB+q/KAPpI6YyDqXH9JKzzoMfTb4r37ry56aaEcDO0IWo1livnKz/gqmEJKlT3kjsVDh9kHQ73aYsb3xxWCaXR+wjAAphdPG2acybDdYyerJEfTw9SxM8PYk94nS6zAr1PFWQwOfSvlX7qh6Q3+z476Q3fVCS/gwVjCVsdnVa3ht7Wb51+T/J0tqCHQWwE7SfzoD21ql51CR5UN5I7MBkb/UPf8x6wBxdvGW2EgAoDK3umFgaMaucdeFmJhWUKE2S322wHJbqUKO0xXZJzHpgndUED70lgF9RHWyQw9WPysMNvyb96UOmYkeHOvDwUbpWcytyZvxVefnOszKyeJOqRWCHaVLnQNUpSQWq7QjKGYkdGPowqVsHZlYmGOMLFJDe+C7mFszKpst6oKkNtZiKD8plS4/+m2n1TtAdlpgvJSnrQTUTqJWEPy2r66uykltiuysqmvb1078J7aGjDxt9qUPSEGkzWxo1ocN5r3Rpz7h3R38ibwz/UK7NnDPnPAA7Rwd07K96ULqSg0wTrBAkdvBTfndIFq2Hy1vzV8zUHgCFockdHZs9uzolAVfQrKywFaG0af+ysDcmVaEG8yCrD646Ll0fXvUBSL+BSqH3F9rfoSM+IAOZI7Ive1La4/2mv5hWuqG0acXp5emz8tKd78iFqTPW9WzRPgJgJ7gcbtOzTCt20oEaO4pyR2IHP+VzBazHy3WZWZ6QYUpogYLSSo651Rm5M39VmiKdEvLETP8rlDZN8HzcYFmnaIU9UXNmvdtged1USnKuRTnS6hu/dV+hyZvmaJfszZyQY7VPSL/1oBHzJUlelwlNUo8t3ZYf3/qmXJg6zdZTYIfdHYxTLQ83fNVMGSR5XjkcG8xlxc/R7SAfTb4jf/nRv5WFtXnZsB48ABSObuXpSx+Uxxu/Zh6G6DdRfuZWp+XS1Afyk9vflaszH5mpMTounfMtysHdLYlOM/GvMdIpR2sek67EoNmeiPKiSemRhVvy7St/IWfGXqNSBygCuh38gfpn5Hjt06Z3GSoHiR38Av110B47P7zxD/L60HNcpIEd4LMeiHpTB8xFuSe5146iXGiljq5ya0Ln+uwFuTD1nnw08Y7cnLtsfwIoXbrlqju5Rzrjg9Ic7bQeMiKmj58mrVFexhaH5O2RF+S7V//KbOGn+hDYWTrlWAc4/FHP/1GywTp661QYEjv4FZrMuT5zXv7m/L8zo5hz6zT7BApNR6AfqHpQjtc+JbXhZjuKcrOwNmcmZ40t3pFrMxfkw8m35PbcVes8vGASQECx04lwHqfPTPXrMsmcbvNAEfUmJegJmwoelJ+RhZvy9uhP5LU735ehhRt2FMBO0n46R2uekAfrvyQ+d4Dzb4UhsYNfob8S+rDxnat/ZVZippbH7CMACknHAe/OHJND1Y9IdaiBC3QZW1tflemVCbk+e16G5m9Yrxfl9vwVmVoak5X1ZftTQPHQleCoLym1oSaz5UrPVw2R9rtjy1klLmu6/UrvD9+yvm/OXbKjAHaSDmjoTuyRZ1r/UKqs8zFb+SsPiR18Im3oeXXmnPzLlf9FLk6d4cEC2CG6+nKw6iE5XPOoJHwZGo6WvQ1Zya3IlZkP5cr0h3Jj7qIML9yU6eUJk3DXczOwUzS5rFU4Wo2TCdRJQ6RVWqI9ZsKV1+kz1TsoX2aC49qCvHLne+abpA5QPDTBfrz2STlR97QdQaUhsYPP9N2rfyOvDX3fPFgA2BkhT1Qebvg1OVD1kCT9GXpVVJDJ5VHTf+ejibflhvUQNbcyLcu5RdOjh34WKARN5mhCWXt/ab+c+kibaYasK8O65QqVQR8XdIuoJpz/+cqfy83ZS2a6H4Cdp1WSx2qflEcbf9PcJ6IykdjBZ7oxe1G+d/3v5M3hH9sRAIWnD1Yu+c2O/7UMpI+YUcGoDJq80V47OjFranlUTo+/Ie+OvmSmaa3kluxPAfmj/XPqI62yO31U9mSOSdyXFpfTY8r82R5aObRS54p13vnrc39qEs70XwSKR1u8V07Vf0n2ZR/gvFzBSOzgM63kluW14R/IC7e+bVZnAOycmlCjPFj/FRm0Hq4i3rgdRaXQByndjjW/OiNjS0NyYep9uT5zwUzW0jiwXXT1V3s0dMT7pTMxINlgvakcDLkjbAetQPOrs3Ju8h159trX5fb8VVkzSR0eH4BioNtgv9D6B2bbfsyXsqOoRCR28LmGF27Iq3d+ID+48Q3T4BPAznA5XNIU7TJbsvZlT5LcqWBarTOxNCJTy+MytHDdTKW5M39NhqzvmZUp+1PAvfO5AmZMbkO4XaqD9ZIJ1knKX2W+/e6g/SlUGk0knxl/Q16586zpucj2K6B4aHVOV3KPPNn029Ie72OrfoUjsYPPpavEH06+Ld++/Bdybfa8HQWwE1wOtzRFO+Vw9aOyJ3tCQu6wOJh8UNF0i4Qmee4sXDPJnbHFIdMXTWMLa7Mk5PGJ9FyiU1QS/oyk/dWS9FdJXbhF6sOtkg5UW8fC9idRqRZW5+TM+Gvy2tAP5PzUe3alDoBioPd+mpD/tfb/UgZSh6nWAYkd3JuxxTvyxvCPTDPlNZp2AjtKK3dqQs3yWONvSndyj9kiwVhLqNxGTuZWpuTsxNtydfYjM5Z4enncekCblSXTdHnZ9OxB5dGVXZfzbjIn5I5K1JcwU/d0kkp7rFcy1s9el9/+NCqZ9vRats4V2rT9hzf+Ua7MnCWpAxQZTeo0R7vl93v+e1NZCZDYwT0bWbwl/9P7/1eT5GEFGNhZmsiJeBPyWx1/Ih2Jfgl5IubBDfh5sytTcn32opydeFNuzl6Q4YVbZrKNJoB0dDpJnvKm48e1NF+TwW6H1zReb4v3ya7kfmmxHgjirPDil+jC3fLaotyYvSR/e/7fmeo/tl8BxUXv9zLBWvn19v+VdQ84IH5XwD6CSkZiB/dMm3O+N/qyfPvKX5gSfwA7Sx/YdKzl081/IH3pAxL2xOwjwF2auMltrMpKbsW8ak8enXZ4efqsXJk5J3fmr9qfRDlK+NLSHOuW9li/1IVaJBuqM402ddKVNkGm0g+/TO/1Lk19IN+4+GcyuTQqq+sr9hEAxULv93al9svvdv/vTbN7FvagSOzgnunq7tzqjPz1R39qprEwhQXYeZrcqQ+3ybHaJ2RP5jgNlfGZtNry48lacyvTMr0yISMLN+XW/FXThHnCepBbWpu3P41S4na6zShy3aZZFaw3iRyt0NHKvrAnarZgaek+8Gn0vHB2/C358a1/lmszH0nOVPTxmAAUm67Ebnmq+fek03oFPkZiB5v25vCP5bkb/yBXrYs+gJ2nTVCb7WlZe820LCp38Pn08q890zS5M7F8d8KW9uPR78nlMev9mPU6KnMrM6Y3D4qHJnQDrqDE/WmTzIn7MpLwpUwj5IT1szbRTPqypmcOVTm4F5rUOT32urw+rI2S3zeDMwAUn5S/Wg7VPCKPNf4GyXr8AhI72DRtwvkvV/9SXh/6ocytTttRADtJkzsNkXY5XvuUDGaOmdV5HuiwWVrRo+d17aU2an2PLd0xW29nlydlfm3WevibNRU92qdnlV5rBaFJHE3QhD0R6yY+KCF3RMLemOmPo9OstAFyOlBrtl0xlhybpT11dLKejjR/+c6/ysWp92mUDBQpvR7szZ6Qk3VfkI74gB0F7iKxgy15f+xVeeHWt+WsdSPAhCygOGiD1Iz1gPfF1v9C2uK7rAfBmLkJAO7Hcm7J9NrQfjy3re/RxdtmpLo2Zl7bWJXV3Ip51aSQNlmlIfPW6Oha/RvWb+2Bo30T9NvnDpqkTW242azU1gQbJRuspzIP902nX+m0PO2p852rfyXXZy/QKBkoYprQf6Lpd+RozePicXntKHAXiR1sid7oP3/zn03lzor1M4DioFU6fldQfr3jv5He1EGJehP2EeD+/DSJb902rKyvyMzyhNxZuGY9DJ6X4fmbMrRwU8aXhmWR/mtbon+3UV/SbKFqinaYMeS1oSaz1cqnY8gdd5tj/vz/Be6HJnWuzZyXv/zo38rk0ojotDwAxetE3dNyrPYpaYp02BHgZ0jsYEv01+bC9Gl54ea35K2R5+0ogGKgyR19GDxc/ajsrzolNdbDIbCd9BqgK/s6MWdlfdn06tGtWdqXY2FtVobmb8js6pRp0PzTCh/rvfbxqGRagRP1JiUVqJKEL2uqblL+KvOtTY61X4I2QdbJVbr9Sj+v2yx1bDmwnXRb5bnJd+W7V//aNE6/u/2KRwKgGOl9Xcqfld/s/BPpjO+2rg8++wjwMyR2sGWm0d74a/L35//MrNCyJQsoLtlAnezJHpeDVQ+bbRxAIeiWLH1o1ISPNl1eWJ2zrhHz1vsls21LmzUv5xZldmVSZlenTTJIK310C5fGSnXioiZjtPeNbqPSSjm/OyBBd1hCnpj4rFgqUG2OafWN3x0yx/W/0X5YflfI3KjTFwuFMLxwU85OvCnvjr5ktmGx/Qoobpr0f7jh1+Ro7RNmIQD4JCR2cF/uzF+XZ6/9rbw98iJTU4AiVBVskD2ZY3K45lHTf4eeO9hp2ptHt/DOrc7I/NqMrG/kzJh1vR3Rxs3amFljy2uLZtvvhqybaiD9eXX9Z1t/l+zj+tlfpkkik1T6nCSRJlN8Tq2S8diRX+Ryuk1yRl+1Zkb/fvQG228mkTjs4yHrv9d+OB4JuaPmZ03waAIn4A5axyMmoZP0Z/j7w47TCrq3hp83SZ1b85dplAwUOV0A0Mrr3+7635pXqnXwaUjs4L7o/uzrM+flr8/9qSm1Z9UHKD5Jf5Ucrn5EBjJHpDrYYB5MgWKm15L5lRmT/Fm3vrTCR6tEfz5Ro9u8NPZJD6b63y/nFszY9s8SMBU1UfE5/XbkF+kNtI4O//hG2u3wmM9HvHHzXm+49bjpgQMUMe2fM7cyJa8NPSevDn1f7sxfs48AKGZaoaPNkh9u/Cr3b/hMJHZw37TE/puX/oNZ/dESewDFR3t19KT2yRNNX5OGcPunVigAAMqLJjqnlyfkvdGX5XvX/06mPifhCaA4aI+1zsSA/EHP/8H0Z2O7Lj4Lvx24b7pSear+i6YqAEBx0q0sH46/Zd3U/71cmv7AjgIAyt2tuSvyz5f/k3zryp/LDAtwQMmoD7fKnswJkjq4J/yG4L6ZTu2BGhnIHJbqUKMdBVBcNkQnGF2YfF9+cP0b8trQD2QlR18sAChnF6ZOy/O3viVnx98wFdbafwpA8dPK6vpIm/Qk95LUwT3htwTbwGG2efQmD0hDuM2UDQIoTtqTRCt2Xr3zfXl9+DlZzS0z0Q4Ayowm8t8eeUFeNEmdN80EOgCloynSKR3xAUn4MnYE+GwkdrBttFqnNdYr2WCdHQFQjHTV9srMh/LS7e/I68M/komlETOiGgBQ2rRJsk6e02TOT6xz/Omx1+mpA5QYbdK/K3VA2qznKp2+CNwLEjvYNlq105XYLb3WiYjGrEBx0zHR12Yvyjcu/plpqDm2NGRWeAEApUlH/8+sTMoH42/Kv177a7k8fVaWcgv2UQCl4m61Tr+kA9V2BPh8JHawrWpCTdIZHzCj+QAUt42NdVlaWzBNNV++/ayMLtxmWxYAlKj51Vn5cOJt+fqF/7dcm7lgEvgASovD+tqbPSFVwXo7AtwbEjvYdrWhZjlS/Zj9DkCxW1lfllfuPCvPXv+6nJ98z44CAErFjdlLZurhty7/J5PQIUkPlB6/Kyj9mcPSGtslYU/UjgL3hsQOtl3Ul5TO5KC0x/vE6/LbUQDFSit35lan5aOJt+VHN/9JXht6jp47AFAizoy/bs7d74y8YPrp6DkdQGnRyVcx6xnqaPXjEvelrfcu+whwb0jsYNtpr51soFYOVT8iEU9MHIzoA0qC9mbQih1tqvzynX81TZUZjQsAxUfPzXOrM/Lm8I+tc/Z35YPx12V8adg+CqDUhK1nJq3U0YVxnytgR4F7xxM38sLvDkl/6pDUh1sl4AraUQDFTidmXZo+K89e+7q8Nfy8DM1fp6kyABQRrajUJM77o6/I9679nZmApYl5AKXJ5XBJNlgvu9NHJeiJmOodYLP4rUFe6AlKt2TtzhyVdKDGNAIDUBp0sopW63z76l/IS3e+K0PzN0juAEAR0HPx6OIdk3j/p8v/QW7OXTJ90gCUrpAnZiZhdSf28MyELSOxg7zRE1N/6ojUh9vE56ZqByg1K7llefHWv8g3L/9HuTB12o4CAHbKtZlz8v3rfyc/uPENmVuZokkyUAZ0tPme7HHxuulNiq0jsYO8CnrCpmqnLdZrRwCUEl0dvjz9gXznyl+ah4nJpTFT0QMAKJycdd59degH8q/X/lZOj70mC2tzJHWAMpD215i+OnXhVqp1cF9I7CCvdI9oS7Rb2mO9EvOm7CiAUqJ9d67PXpBX7/xAfnjzH6yfL5pqHgBAfmkifXxxWH504x/lJ7e/I5enz5ophky+AspDT3Kv9azUI34aJuM+kdhB3kW8cWmN9UpbnKodoFRp5c6d+Wvy+tBz8sqdZ+X81HsyuzJlHwUAbDdNql+dOWemFL5w61/k6vRHJgag9OnU4HSgWrqTe6UqWG9Hga0jsYOCqAu3SF/qkIQ8EcoMgRKlZf86eeWVO9+T52/+s3w48bZMLY+xHQAAttns6pTZBqt9zr5//RsyunhLchtr9lEApc0hXqdXBtLai7RF/PQixTYgsYOC0IROY6RddiX3i8vptqMASpFW75wZf12+deXP5cXb35HltUVZZ1sAANw3TZTrOPN3R16Sf7785/Lq0Petcy5bX4FyotODI96EHK99WlKBGjsK3B/HhsX+GcirldyS6c3x//vg/y6zK5M8CAIlzuVw/zRp+3jT16Qh0iE+FxMdAGArtEHy1NKYfPfqX8n5qfdlcnnUJHkAlJekP2uSOg/UfUGC1n0UsB2o2EHBeFw+yQbrpD910HoYjNpRAKVKtwXodoFL0x/Iv1z5S9N/Z3xp2D4KALhX08vj8s7Ii/L3F/4nOT3+ukwsjZDUAcqQx+m1nofq5UDVKfGxBQvbiMQOCkZ76wTdYTlU/ahkArXidnrsIwBKlRZ9Lq4tyIXp06ap8ku3vysXpt4327XovQMAn02TN1rN/Nrwc/LirW/LBxNvyMzKBP10gDKlSZ2B1GFJB2rMlixgu5DYQUFpMqc93iddiUGJ+9J2FECpy62vyZWZj0xj5RdvfUfOjr8pU8vj1kMLDycA8Mt0O/rC2pxcnDpt+ui8fFunDb5PlQ5QxnyugLREu6Q/fdiOANuHxA52xIGqB60TW7fp0QGgfOiUrHdGX5RvXPyf5b3Rl2V86Y6p3gEA3KXJGz1XXph83/TTeeX2szK8cMM+CqBc6VjzlmiPGXMObDeaJ2NH6K/dD2/8gzx/69tmhCeA8qJbL3UC3v6qU3K89ilpi/XaRwCgst2auyw/uf0deen2v5otVwyTACrDMy1/KCfqnjITsYDtRsUOdoTD4ZC+9EEZSB+yIwDKyccje8+MvSbfvPQf5Nlrf0tjZQAVbX51xiR0/vPF/1neGnnBVDOS1AEqQ3dyjzRHuxggg7yhYgc7Zs26oTltPfT96/Wvy/WZ83YUQLnxOn1mtGdrrFd2Z45IR3xAAu6QfRQAypv2Grsy86HpPfbR5NtyZ/6aLOeW7KMAyplWMGuP0a+2/9fWPdBReowib0jsYEeNLN6WN4d/ZPaY59ZzTNEBypg2DdTm6f2pQ9Zrv5kI4XP57aMAUF60anF6ZUIuT581C1naKFnfr2/k7E8AKHde6z6nw7rn+XLbH0ttqEmcTMJCnpDYwY7SSTo3Zi/KX537UxlauG5uggCUt4QvLXuyJ6QvdUjqwy3sNQdQduZWZ2R04ZZcmHpfXh16zjRHJqEDVBZN4qT8VaZapzOh1cph+wiw/UjsYMfpzc/psVflm5f/o8wsT1C1A1SIpmiXHKt5Qg5WP2TKlPUGSEuWAaBUac8c7Z3z3tjL8vLt78q5yffsIwAqTcgdka7kbvmjXf+DeJxeOwrkB4kd7LgN6yZoYW1O/v0H/w+5Mv2hLOUW7SMAypkmc6LehDRFOuRk3TMm0UPvHQClSquORxdvyw+uf0MuTJ02I801yQOgMulo82da/0C6EnvE6WBmEfKLxA6KgpYnvzn8Y/n+9b+Xm3OX7SiAcqdVOn5XQDKBWjMprz91WOrCLSbpAwClQJsjjyzekjPjr5leOrrtamF1zowyB1CZdNv53uwD8lTL70rQLFpRkYz8IrGDoqDbr3Qb1reu/IW8N/qyzK1O20cAVIpssF6aIp3SmdgtXYlByQRq7CMAUJwmlkbk8vSHcm7yHbk0fVbuzF+1jwCoZAPpw/Jg/ZelO7nXjgD5RWIHReWt4eflhVvflvNT7EkHKpHL4TZTI3QkqE7Oqgu1SNATZooEgKKhfXSWc4tya+6KXJr+QM5OvCnXZs6bGAAk/Vk5Vf8lOVH7lPjZYo4CIbGDojK/OiM/vPGP8qOb/ySLa/N2FECl8Tp9Uhtutm6MvizN0S6J+VLic/rF4aCUGcDO0Fvm1fVlmVmZkttzV6x7lW/Ktdlz3K8A+CldiDpS85gcr33Sun/ptqNA/pHYQdE5N/muqdp5e+QFOwKgMjlMImdP5pgcqX5MOhK7xefy28cAoLBWcstybeacvDr0fXnF+hbrFppJngA+ppM9I76k/FbHfyv9qUPicfnsI0D+kdhB0dGqnXdHX5J/uvQfzM/cNAGVTSdlxbxJMzXrUPUj0pkYMFu2AKBQLk6dkXdGf2K9npbxpSHr/mTWPgIAd+m9yYMNX5ZjNU9IVajBJHqAQiGxg6Kje9dvzl0yJc5vDD0nuY2cfQRApdIxoSF31EzM0t473YlBqQk1SdATsT8BANtrKbcgw/M3TSWxJnRuzV+RmZVJM9YcAH6ex+k1QyC+1vkn0hBpp8IYBUdiB0VpYW3OrI5948KfyeTyiBklCgC6dz3hy0hLrFs64v3SEu0xN1LcQAHYLrrlamzpjlydOScXJt+Xy9NnZWJ51LoXWbE/AQC/KO5LydGaJ+Shhq9IyBO1o0DhkNhB0ZpdmZJvXf5zsy1rdnXKjgLAXdXBBulKDkpPYq/UhVtNg2W300PpM4BN023f6+s5mV6ZkNvzV+X85Lvy4cTbcnPusv0JAPhkXpfPLDT9Rsd/K1XBenMvAhQaiR0UrdX1Fbk5e0n+5vy/k1vWjZVu0QKAX6b9dw7XPCp7MiclFagSvysgLqebBA+Az2USOhs5WV5bkpmVCXl79AV5beg5GVm4ZX8CAD6LQ2pDTWYS1iONv27HgMIjsYMitmH663z7yv8ibw7/WMYW79hxAPgZh8NpxqOHPVHpTR2QvdmTZuVMV9AA4LOs5lZMX7+3R180FcI6tGE5t2SSPQDwebS3zoGqh+RLbf+FRL0JOwoUHokdFL1rM+flX6/9jZwZf52GhQA+lfbfCXtikgnWSmt0lwykD0trbJdpvAwAv0x76Lw3+rJcmHpfxpeGTWNkEjoANkMXko7XPSWHqx8x9yHATiGxg6KnK2c/uf0v8vLtZ82+dwD4LLq3Xbdn1UfapCHcbpI79eE2iXhj9icAVKrFtXmzvfvS9Fm5MXtRrs2el4mlERI6ADbN5wrIqfovybHaJyQTqLWjwM4gsYOSoDdfP7n9XXnlzrOm9w4AfB7dohVwh6Qzvlva431m/GjWuvGK+9L2JwBUCq3GGV28Lbfmrpipm+cm3zHbrnTLNwBsRUd8QB5v+i2zDRzYaSR2UDLeHnnR9Nu5Q9UOgE3yu0PSHO2SwfRR6UwMmn48QU9YXA63/QkA5UarcLRCZ251Ri5NfyDvj75itl0trM3ZnwCAzdPhDNrH78ttfyyDmWMsGKEokNhBydDmydpE+ZuX/6MdAYDN0W1aSX9WTtY9I3syxyXhz9izs5igBZQPnXUlpiLnvdFX5Plb35LhhRuyklu6exgA7oPb6ZXmSKd8retPpC7cakeBnUViByUjt7FmGh1+/dz/KHcWrsra+pp9BADuja6y6Sj0oDsiSX+V9CT3Sl/qgLkx87n89qcAlKqV3LKZcnV24k35aPJdGV+8I/Ors2b4wt10DwDcn4gnLl/r+t9IV2JQQp6IHQV2FokdlBTdI//2yAvy7St/YW7UAGCrtHpHy6fTgRqpCtRJZ2K3tMX6TJNlJlsApWN9Y12W1ubl4vQZOT/5vtyevyJji0MytTxGXz4A2yrijUtPcp98pe2PzXhz7hdQLEjsoKRolc7E0rD83YX/j1yePmv2zgPA/dBx6NpkWSdnNUe7pSbUKLWhZskG66niAYqYVueMLw3JjblLcnvuqtycuyg3Zi+ZnjpMuQKw3fR+oSnSJU+1/K6p+KVPH4oJiR2UHC2nfnPkx/Lc9f8st+avCL/CALaLx+mVbLBO2uP90hHrNz9rVQ+NloHioNU5i2tzphpHp1xdnv5QPpp82yR0ACCfYt6k7M2eNE2TvS6vFaE/H4oHiR2UHN0jv7y2JH9z/v8l74+9IktrC/YRANg+IU9U2mO9sjtzTFqi3RL1JcTr9JstXAAKR6/7ufU1WVlflrmVabkxe1HeG3tJzk+elumVcftTAJA/DofTjDV/sP7Lsiu5z44CxYPEDkqS3uTp+PPnb/6zGV0KANtNGy3r3nm30y2ZQI11I7dfdmeOS2usx/4EgEJYzi2ZrVbvj79q+uxNL4+bgQqa7KEhMoBCCHoi8kjDV+Wxpt+kghdFicQOSpaOMf3e9b+XF2592zRNBIB80S1aOvki6k1KJlhrmizvSu41k7X0GIDtpT31ZlbG5b2xV0xPvdHFOyahM7s6ZRI6AFBIR2uekBN1T5lefEAxIrGDkvbhxFvy/K1vyXujL9sRAMgfLcXWhsppf41UBeuk2m60XBdusd432J8CsFU6zerW3GW5PX9Vhuavyy3rdXJpRJZyC6a/DgAUml7vn2r+fRlIHxa/O2hHgeJCYgclbW51Wt4efkG+deUvzM8AUEhawaPJncZIuzSE2yUZyEo2UCchd0RcTkq1gc+jlTnz1vV7ZPG2aYh8e+6KXJ+9KHfmr8nk8qj9KQDYGbot+6GGr8jx2qfM9R4oViR2UPKuznwkz177uqnaYa89gJ2gvXiC7rCZpqVNFWtCTRLzJU2CR1f39DiAu+5OtpqXhbVZs73q1txVOTvxhlybPW+aI+cYVQ6gCGgvHb2W/5td/4M0RjvE4/TZR4DiQ2IHJW8lt2T23/+P7/9faKQIoCjErRtBTfIMZk5Ie6xPAu6QqeBxOpxm9Q+oNHq7ua5fGzlZXJ2Xc1Pvypnx1+Ti1BmZWBqxPwUAxSPmS8kDdc/IibqnJeyJ2VGgOJHYQcnTRI6Wb3//+t/LG0M/YksWgB2nFTpep1d8roB4XX5pi+2SzsSgSfbohC2gkqyur5jeOVemP5QrM2flsvU6tzpjFmZW15ep0AFQdFzWdbw+0i7/Ve//WeK+FNurUfRI7KAs6E2jjkL9y4/+rdyev2ZWBAGgGGiFjq70RX0JSfgykgnUSm24+adNlzX5A5SbtfVVuTV/xVybb85dkuGFm2YRZnZl2izAcJ0GUMx0S/WRmsfkofqviNPpotoWRY/EDsqCVu3oTeS3L/+FvDXygowvDdlHAKB4fNyLJxWolrS/ykzSSgdq7PfVkvRn7U8CpWdqedxcf7U6Z3zpjgzN3/zpe22QTGUOgFLgdwVkIHNEnmr+Pes6XW9HgeJGYgdl5drMefnutb+Ws+NvmioeAChmHqfXJHbqws1SF2q1Xlsl4o1J2BOXkCdiRqvTeBnFSBsgL+cWTfXN3MqUzFqvQ/M3zJhyrdQZnr9ptlkBQKlpjHTIidqn5Hjd03YEKH4kdlB2vnft6/LS7e+a0akAUCq0sbLfFZLWWI+0xLrN+PR0oNYkeNxOj3idPrPHn3Jw7ISPK2P1WxM2C6vzMmpdZ6/MfChXps9arx/Jcm7J/jQAlCa91j5Q/0XTMFm3TgOlgsQOyo7u5//RzX+Sn9z+jh0BgFLhEKfDIQ6HU/Qr7ktLe7xPGiId0hnvN9U99OTBTljKLcrw/A25PntBLk6dlqsz52RyedRU7ph5V9YrAJS6rsSgPNz4VelLHWQhBSWFxA7Kjm7Benf0JfnhjX8wN54AUKrcTrf4XUHxugIScAdNDx7d718dbJKaUKM0RTvF5WBSB7bXhtlmtSxDC9flxtxFuTV3RUYWbsn08ripylnKzZttWGvra/Z/AQClTZM4HpdPvtz6b2RP9rhZWAFKCYkdlKWRhZvyxvCP5NlrX5fV9VUrwq85gNKnPXdCnqiZshXxxiXmS0nSl5VssM6UjGviJ+pN2J8G7p1OrBpfGr77vThkXUdvy9zqlEyvTMjMyqQsrM7Suw5A2dItz92JPfJU8++aHjuMN0epIbGDsqQ3n5enz8o3L/9HuT5zQXIbrCoCKE9xX8r04skEaiThy0rCn5aIJ24SP3eTQFHzCnxsYW1OZrXh8cffq1MyuTQiE/q9bL9a3wBQCbTHXdSblC+2/pHZgqXXT6DUkNhB2dLVxzeHf2yqdubXZoRfdQDlTnvzaOPH6mC9VIUaJO2vMX15tJrH7w6Y/jxel198Tr951ZtZlC9d1FjNrcjy+pLZOrWaWza9csYXh802q+GFG2Ykub6yAAKgUgXdYWmL98tvd/6JqYTl2ohSRGIHZSu3kTMrkP/+7P9Tbs9dkRWmdQCoUFpiXh9uk8ZIu1QFG6Q21GxetW+PadSsDZvFZW5mHeZnGkaWlg1Zt27nPm5ibBoaW9+zK5MytjQkd+avy825yzK6cMt6vWSSOwAA62HY+qoLt8pTLb9rqnU8Tq99BCgtJHZQ1nSFUnvt/OD6N2R44aYdBYBK4zCNmN0Ot+kboA2XtWJH+/FoNY9u46oJNUl1sFGS/ipT3YPSoQ2Np5ZGZWjhhtyevypji3dkxPqeXh4z10GtxtFGx7rgkVtfFU0BAQBEYt6kDGaOy6+1/1ficXlZ2EDJIrGDsqarlrpi+Y+X/r18MP6GzK1O20cAoLJpZY7b4TUNmXWLlt8dlIArKD7rNeKNScKXlrgvY16194A2bNb+PU6Hy/7/gEKbXBo11zFtZqxNjjWBM7c6Y2KLa/OyvLYgi7kFk8zRZM/a+gpjyAHgM2iVziONv27GnAOljMQOKsJbIy/I8ze/KRemTtsRAMAn0YSPJnpC7ohpuhzyRCRo/awxbcQc9kYl4A6bngRhb8yKxcXj9JjqH/0MtmZ9I2eSMZqkWVpbkKXcgsyvzljfsyZpowkcfa9xbX48t3I3wXM3ibNIAgcANinlr5JjtU/KA3VflKAnbEeB0kRiBxVBb36fu/Gf5eXbz5qbZgDA1kQ8msyxvr0x02Qy5k2ZngQJf0YC7pC4HR5zg+xyuEyiRyt8tLw94AqZ/14rg/QzmkCqBLrtKbe+ZhIyesv1cTWNJmK0sb8yiZy1Resz8zKzPGHF52RhbdZUnOrUKk3oTFs/AwC2h16j9lc9KMdrn5L2eJ8dBUoXiR1UjNPjr8mLt74tZ8ZfZ0IWAOSJ3xU0E7l08lYykDVTujQRpNO5VMpfLUF3SFxOj2nWrL1/lCaAtPePad1sN3DWps8/63fgsD/vsd8Xlvao0aoaTdUo/b9rpl+NNirW9I02MM6ZPjZ6NLd+9+f1jTWTtBlfGrrb1H95VKaXx2V1fUVuz10zn9UGx5q8AQAURtyXlq+0/ZeyJ3uchskoCyR2UDFWcsvy+tAP5RsX/8ysmAIA8uVn6Zifsit0Po5rgibiiUvKTvjEvAmJ+ZImMaRJHq3sqQo0/DTxo0mfoCci1cGGHan2GVm4bSo+tW+N0kSONuXXyhqtyFlZX5ap5XGTtNEbK21mPL1yN4Fz9/O2n7vtuvsTt2EAUGhaqXOy/hlpCLfZEaC0kdhBxdBf9SszH8pzN/5B3h55wY4CAHaCpn40gfNxBY6WxevELitqkj86hl1XUX+aIrJenOIy/Xw+ThL9Mp3wpdvBtkKT/0ML1+13v0oTOjntY2PfNmliRyt2tEpHI1q5c7dKZ80c11dN+OjnAADFQa87WkX6x73/J2mJdVvXFJ99BChtJHZQUbQJ5bnJd+Wvz/2pLK7NmR4HAIDyoA2dt7pVS7dJsR0KAMpbxBs3zZJP1D1tmv4D5YLEDirOxNKI/PPl/yTvj71qkjsAAAAAypv2fGuMdMjv9/z3kvRX7VjPNiAfnPYrUDF0fO/x2icl5c+ang0AAAAAyps2TO5J7ZNMsI6kDsoOiR1UHJ/LL22xXuu7z5RjAgAAAChfuphbH2mT4zVP/qx3G1BGSOygImlTzgfrvyR1oRY7AgAAAKAcaVKnO7mXRV2ULRI7qFipQLV0JQelJtRkRwAAAACUE52w2B7rlZ7EXrO4C5QjfrNRsXRvbbd1gm+N7TIjdgEAAACUl8Zop3W/3ysJf9qOAOWHxA4qWk2o0fTbqQrU2xEAAAAApU576QTcIelPHTLTsBiagnJGYgcVTat2mqJd0pc+aMo0AQAAAJQ+p8MpjZF26U4MSjpQbUeB8kRiBxWvNtRkMvl6wtcLAAAAAIDSpou2J2q/YN3j19gRoHzxFAtY0oFaOVn3jLip2gEAAABKmm7B6ozvluZYt/Vz2I4C5YvEDmAJe6LSmdgtTZEO8bkCdhQAAABAqYn7UnKs9kmJeOJU5KMi8FsOWLTXTtJfJQerHpaoN2FHAQAAAJSSmDcp7fF+6Uj000MTFYPEDmDzOn2yO3NUGiJtpnwTAAAAQOnQyVf11r387vRRswXL4XDYR4DyRmIHsGmZZsQblz2ZE1IbbjEjEgEAAACUBr2Xb452m4odoJKQ2AF+SU9yn9SHWsz2LAAAAACloTM+IN2JPeJz+ewIUBlI7AC/RLdh7UodkK7EoB0BAAAAUMyygTrpTu6V+nCr9Y7Ke1QWEjvAL9EtWc3RLlO5k/Bl7CgAAACAYqX37g2RdvG7g3YEqBwkdoBPoJOxWsz+3D47AgAAAKDYaMPkTKBWdqX2ScpfZUeBykJiB/gUmWCt9KUOSdgTNVU8AAAAAIqHDjvRNgp7ssdNtQ6TbVGpeFoFPkXYE5PWWI/0pw+LzxWwowAAAACKgcvploQvLUerH5eIJ25HgcpDYgf4DBFvQo7XPikxb1KcDpcdBQAAALDTtB/mYPa4JPxZk+QBKhWJHeAzeJ1eqQ41SW/qgEnuAAAAANh5XpdP6sKtcqDqQfG4vGZbFlCpSOwAn8HhcIrfFZTdmaNSFWoQt9NjHwEAAACwU6qDjdKT3GsaJ5PUQaUjsQN8Dm2c3BTpkvZ4vyTptA8AAADsKF14bYv1Sndijx0BKhuJHeAeaKnn7vQRcwFxs38XAAAA2DE1oSZpi/dKNlhnR4DKRmIHuEd1oWaT2En7a+0IAAAAgEIbzBwz9+UA7iKxA9wj7bejF5CBzBE7AgAAAKBQtEVCZ2JAmqKdEvEy3hz4GIkdYBOS/qy0x3qlIdJuEj0AAAAA8s/hcIjPFZBDVY+YrVguB+0RgI/xZApsgvbaqQ23yN7sSfE6fXTgBwAAAApAGya3x/ukI7Fbwp6YHQWgSOwAm5TwpWUwfUxqQo3icXrtKAAAAIB80C1Ycese/EjN4xL1xs17AD/DXwSwSU6HS2K+pByrfVKi1qtQtQMAAADkjc8VlNpws+zJHDfbsQD8IhI7wBb43UHZX/WgVAUbzPYsAAAAAPmhzZJP1H7Bfgfgl5HYAbZAe+v4XQE5XP2I1Idb7SgAAACA7RTzpqQp0imNkXY7AuCXkdgB7kNnYre50IQ8UTsCAAAAYLu0xXtlV3KfBNwhOwLgl5HYAe5D1JuQjviANIRZQQAAAAC2UzpQLT2JvWYhFcCnI7ED3KeuxKD0pvabvjsAAAAA7p/D4ZSB9BFpiXWLz03DZOCzkNgB7lPQE5amaJf0JPfZEQAAAABbpf0sfS6/7EoekGywwY4C+DQkdoBtUBdqlj1pHb/oNxciAAAAAFujlfAP1n9ZqoP14na67SiAT0NiB9gGfndIGiJtsq/qlHhdfjsKAAAAYDM8Tq9kA7WyN3tCor4ki6bAPSCxA2wDp8MpcX9GDlU9LEnrlZUFAAAAYPOi3qT0pw9LVbDeJHkAfD4SO8A28bsC0hztks74gITcjD8HAAAANsPr9EltqEn2Zh8Ql8NjRwF8HhI7wDZyOz1ypOYJyQbrTRUPAAAAgHvhkHSgRjoTA1ITauReGtgE/lqAbeR0uKQ+0irt8T5J+qvsKAAAAIDPotuuOuL9sidzwo4AuFckdoBt5nK4ZTBzTNpiu0wFDwAAAIDPpi0N2uP9EvOl7AiAe0ViB8iD6mCDuTDVhJrsCAAAAIBPouPNuxKD0hTtZGEU2AISO0Ae6Mjzlmi3dMZ3i8fps6MAAAAAfp6OM2+MdEhrbJckfVk7CmAzSOwAeVIVbJCO+IBkgrV2BAAAAMDHHA6n+FwB2Zs9aRomu5xu+wiAzSCxA+SJlpHWhVvkQPYUXf0BAACAX6LjzZuiXdKXOihxX9qOAtgsnjaBPEr409KXPiiNkU5z4QIAAABwV9gTk5N1T0vQHbYjALaCxA6QRzohK+HLyqHqRyTkidhRAAAAoLJFvQnpSPSb1gU+l9+OAtgKEjtAnvldAelLHZCGSAerEQAAAKh4TodLqkONsi97UiLeuHkPYOtI7AB5pk3g0oEaGcwcl2ywzjSJAwAAACpV1BuXlmiPdMYH7QiA+8ETJlAgezPHpSnSZSp4AAAAgEqki5zaMLkzMSBeFz0oge1AYgcoEK/bb/YRN0Y67AgAAABQWULuiPQk9kpXgmodYLuQ2AEKxGF9dSX2SHdyjwTotQMAAIAKNJg5Js3RbjNkBMD2ILEDFFDYE5XWaK90s0IBAACACuJ0OCXlr5ae5D7TdxLA9iGxAxRYTahR+tKHJOJN0EgZAAAAFcHj9MqezHFpiLRLwB2yowC2A0+VQIHpSMdmbRgXHxA3JagAAAAoc26nR5L+KjlS85gkfGk7CmC7kNgBdoBe2E7UfUH87pDpvQMAAACUq5g3KXuzD0gqUGWSPAC2F4kdYAf4XH6pCzfLPusCF/Ul7SgAAABQXlxOt+mpc6T6UfE4GW8O5AOJHWAHaJWO7i0+XP2IZAI14nK47CMAAABA+agONkhv6oDE/SnTQBnA9uMvC9ghmsypDbdIR3zAbM0CAAAAyolW6DRGOmVX8gDjzYE8IrED7BiHdbHzSH/6kJkOoGWqAAAAQLnQabAd8X7zCiB/SOwAO6wl2iNtsV6JMyEAAAAAZULHm+9OH5GuxKAdAZAvJHaAItCb2i97MyfsdwAAAEBpa4p0SmtslyT8GTsCIF9I7ABFQHvs6IWvMdJuRwAAAIDSpUNCtJ+kDg0BkF8kdoAioKWq9eFW2UPVDgAAAEqY3xUwPSRbYj0S8kTsKIB8IrEDFAntsdOd3CtN0U4zQQAAAAAoJQ6HU8LeuBypfkwS/iyTsIACIbEDFAm30yPpQI0cq3lSwp4oZasAAAAoKQFXSBrCbWaxUit3ABQGiR2giATdYdmbPSkpf5VJ9AAAAAClwOFwSE2oSY7UPC5+d9BU7wAoDP7agCLitC6AAXdIjtU+KdWhRjsKAAAAFLe4Ny3t8T7pSg5SeQ4UGIkdoMhocmdXar80RjpMBQ8AAABQ7LRPZE9yr3jpFQkUHIkdoAhFvQnpSeyV+kibHQEAAACKUyZQa6p16sItdgRAIZHYAYpUW7xXOuMDJskDAAAAFCOXwyWdid3SFuuVsCdmRwEUEokdoEjp+PP2eL9J8NB8DgAAAMVG71FjvpTsSu6T6mCTHQVQaDwtAkWsMdIuA6kj4nP6aUIHAACAouJ2uGV35qjUhVvF72a8ObBTSOwARcznCpoL5e7MEXE53XYUAAAA2Fl6bxr3ZWRv5qSpNAewc0jsAEVMJ2Sl/FWyJ3NCIt6E2cMMAAAA7LSoJyGHqh+WqmADk7CAHUZiByhyfnfQjI/sSx2UoCdqRwEAAICd4XMFpDbcLHuzJ6z705A4HLQMAHYSiR2gyGnVjk4YOFLzmFQF6sTt9NhHAAAAgMJL+rPSlRiUmlCTuBy0CwB2GokdoARoMqcl2i2t8V6JeZN2FAAAACgsTeQ0RjpNqwAAxYHEDlBCDlQ9KA2RDvsdAAAAUFj1kVbpiPeZqh0AxYHEDlBCsoE6abcupNWhRjsCAAAAFIbH6ZXe5AHpTuw17QIAFAf+GoES4nX5zH7m7sQeeu0AAACgoBqjHdIc7Za4n/HmQDEhsQOUmOpgo7TH+031DgAAAJBvDuvL6/LL7vRRqQ1rw2SXfQRAMSCxA5QYt9MttaFm6U8fsqcQMF4SAAAA+aOV4vXhNulLHZSUv9qOAigWJHaAElQTapR92Qck6kuKi/3NAAAAyKOQJypPN/+uJHwZOwKgmPBECJSohD8jX2j+fXOhBQAAAPIh6A5LU6RTmqJd4nP57SiAYkJiByhRAXdIupN7pDbUIn5X0I4CAAAA2ycbrJNjtU9a955BcVApDhQl/jKBEqX9dWK+lOyvekCS/qwdBQAAALaH3mu2xnqlPd4nThomA0WLxA5QwpwOp+zOHJWmaKcpkwUAAAC2g95nNkY6ZFdyn6kUB1C8SOwAJUxHT4Y9MeuCu1/qIm3mPQAAAHC/tI9je6xXOuIDdgRAsSKxA5QBTey0RXeJx+m1IwAAAMDW7U4flc7EoHhd3F8CxY7EDlAG/O6gtMV7pSs5aEcAAACAzdMK8KQ/Y4Z01IQaTQRAcSOxA5SBj/dA96YOStQbZ0sWAAAAtkSbJA9mjktduFV8roAdBVDMSOwAZSLqTUhrdJd0JfYwihIAAACb5nZ6JB2oNtuwEr60HQVQ7Hj6A8pIKlAlB6oelIgnxkhKAAAAbIpOWR1IH5bacDPVOkAJIbEDlBG9GOvo867EoATcQTsKAAAAfDaHwyEJX0ZO1X/Zuo8M21EApYDEDlBmgu6IPNzwVYl5U3YEAAAA+Gw1wUbZX3VKYr6UuKj8BkoKiR2gzLicbqkONUp/+rCkAzV2FAAAAPhkuu2qIdIhfamDJHWAEkRiBygzOhHL6/LJQPqI1IdbxeP02kcAAACAX1UTapL2eD+LgkCJIrEDlKmGcJu0xXolFai2IwAAAMAvCrhD0hkfkI54n5mKBaD0kNgBypTH5ZXOxKB1ke7nIg0AAIBPVBdulY7EgFQFG+wIgFJDYgcoYw3Whbo7sce6UNfbEQAAAOBndqePSl2oxX4HoBSR2AHKmMPhlLpwi+m3AwAAAHxM+zD2JPdJe7xXIt6EHQVQikjsAGUu4ctIZ3y3NEW72JIFAAAAcTqcEvbE5Hjtk5IJ1Fn3iG77CIBSRGIHKHNel19qQo2yP/uABN1hMzULAAAAlUsbJrfEuqUjvtu6PwzZUQClisQOUAFCnpjsTh+R6lCjSfQAAACgMmm1TspfLXuzJ02CR7fuAyht/BUDFUDLaxP+jHUBP2FehaodAACAiqTJnMZop+zLPsAWLKBMkNgBKoTL6ZFD1Y9IfbhNfFTtAAAAVKSWaI/szZyw3wEoByR2gAqhvXX8rqDZktUYabejAAAAqBQ6VKM11itN0U47AqAckNgBKkx7vM9c0COeuB0BAABAJWiP90uHdS+oAzUAlA8SO0CFifvS0hbrNXurAQAAUBlS/irpSe6V2nCLHQFQLkjsABWoOdotfakDpnkeAAAAypvT4ZKBzFFpinZRrQOUIRI7QAWKeGPSEtslfenDpvcOAAAAypOON/e7g3Ig+6BkA7V2FEA5IbEDVKhsoM66wJ8yF3qHdcEHAABA+Ql5onKi9ilJ+jPiYrw5UJZ4mgMqlN/ll9pQswxmjkuQLVkAAABlx+30SDpQI4eqHzUJHiq1gfJEYgeoUFqlo1uyjtY8JglfVlwOVnAAAADKSdJfJX2pQ1ITajRJHgDlicQOUMG8Lr8Ze9kW75OIl/HnAAAA5cLj9EljpF32ZU/aEQDlisQOADle84Q0WBd+ba4HAACA0pcOVEtLtFuqgvV2BEC54ikOgNSEm6Up0ikJX8aOAAAAoJT1JvfLnsxx+x2AckZiB4C4HC7ZnT4iXYk9dgQAAAClqju5RzoSAxL1Ju0IgHJGYgeAoWW6XYnd0hjpsCMAAAAoLQ7TJLk3eUDqw22MNwcqBIkdAIbH5ZOmaKf0pQ4wIQsAAKAEuZ0u01enNbZLYr6UHQVQ7kjsAPiplL9GOuK7TbM9p8NlRwEAAFDsHA6nBN0ROVb7pGSDdWarPYDKQGIHwE+5nW6pCTXKA3VfFJ/Lb0cBAABQ7HxOn9SGmqQvdVDCnpgdBVAJSOwA+AVhb1z604dMgsfr8tlRAAAAFLOkv1oeqP+Sdf/G4hxQaUjsAPgFWrYb9SbkUPWjEvel7SgAAACKld6zdSYGpD3eJ26Hx44CqBQkdgD8CrfTa5ooN4bbJegO21EAAAAUG12Uqw+3/nQLlsPhsI8AqBQkdgD8CqfDKUl/lfQk90t1sMG8BwAAQPHR6VetsR5pifbYEQCVhqc1AJ9qIH1I2uJ94neH7AgAAACKhS6+tcV6zf1a0EOVNVCpSOwA+FQhb0w64gPWDcMuOwIAAIBiEfLEpCuxRxrDnXYEQCUisQPgUzmsr6ZIh3TGByXoidhRAAAAFIPBzFFpiLSLj0mmQEUjsQPgM4W9MWmOdkl3Yo8dAQAAwE5yO92SCdTKQPqI9VojDvohAhWNMwCAz+R0uKQqWC+700cl5k2a9wAAANg5fldI9mROSEO4TQL0QgQqHokdAJ8r4o1Le7xPupN7xecK2FEAAAAUmtvpkXSgWo7UPCYhT9SOAqhkJHYA3BNN7jzc8FXzqr13AAAAUHgJX0Z6UwekKlRvkjwAQGIHwD3RG4fqUIN1I7Ff4r60HQUAAECh6P1YQ6RNjtY8wUIbgJ8isQPgnujNg8e6mThU9YjUhlvE5XDbRwAAAFAI1cFG6Yj3S8yXsiMAQGIHwKY4pC7cIm2xXZIKVNkxAAAA5JvX5Zf2eK90JfaIi2EWAH4OiR0Am6IlwF2JQWmJ9rCvGwAAoEBqQk3SER8wrwDw80jsANi01tguk9xJ+LN2BAAAAPnicXplMH1UGiOddgQAfobEDoAt0RWjw1UP2+8AAACQD06HS2pDLdKRGGArPIBPRGIHwJbEfSlpjfVKc7TL3HAAAABgezkdTgl7ovJI41elKljPJCwAn4jEDoAt+Xj8uU7JCrhD4rBuPAAAALB9gu6w9CT3Skusx/wMAJ+EJzEAWxbxxKUntU/a430ScAXtKAAAAO6X9tXRKp1D1Y9I1JugQhrApyKxA2DLXE63JHwZOVz9mGSCtUzJAgAA2AZaCZ30Z6Q7uVd6kvtMkgcAPg2JHQD3xevyyWDmqHTGByXmTdpRAAAAbJXP5ZeO+G45VP2oHQGAT0diB8C2eLD+S2ZViRUlAACA+6PTRwfShyXpz9oRAPh0JHYAbIuYLym700dNcgcAAABbUxtqsu6pjkhrbJe46KsD4B6Q2AGwLbShn44+19WlunCLHQUAAMC90L46Oml0X/aUqdgJeaL2EQD4bCR2AGybiDcunfHdsjd7UsKemDgZgQ4AAPC5HNZXwBWS3tQB2Z05JqlAtX0EAD4fT10AtlU2WCcHqh6UnuReCbrDZvUJAAAAn87nCkhDpE0eb/yadS9VyxYsAJvCExeAbZfyV8mvtf/X0hTtFL/Lb0cBAADwSWpCjfJY429KbbiJQRQANo3EDoBtp1uwdCvWww2/Lg2RDnE73fYRAAAA/Dxtkny09klpje8yPQsBYLNI7ADIA4e4nXebKZ+o/YK0x/rtOAAAAD5WHWowE7B6U/vF7wraUQDYHBI7APLEYSY7aK+dPdnj0hBus+MAAACVTZsla1/CfdkHpC99SBK+jH0EADaPxA6AvAp5ItKT3CcHqh+WbKDO3MgAAABUKt2yrotfu9NHzcCJ2lCzfQQAtobEDoC8ywRqZX/VKTnV8CUJeaKMQQcAABVJF7h0y5VuVz9a84SkAzX2EQDYOseGxf4ZAPJmfWNd5lan5Z2RF+X71/9expeG7SMAAACVIegOS1dit3y1/b+RmC/NgAkA24JlcwAFcXdSVlQGM8flVP2XpS7cah8BAAAof3ofNJA+Io81/pbE/RmSOgC2DYkdAAWjIzxjvqQMZo7KwaqHpDHSYR8BAAAoX5rU0Z46R2oelfpIu7gYaw5gG5HYAVBwup98MHvMTIKoDbXYUQAAgPKiFcsRT1z6UofkYPXD0hrrpVIHwLajxw6AHTO2OCTvjb4kz934B5lemZD1jZx9BAAAoLS5HG6JeOPSndgjDzX8mtSGmsRFUgdAHpDYAbCjZlYm5d3Rl+Rbl//cNFcGAAAoBwl/xlQnP9Pyh+J1+ewoAGw/EjsAdpRW6cyvzsr7Y6/KC7e+Jbfnr8ja+pp9FAAAoPRkg3UmqXOq/kumakfHnANAvpDYAbDjNqwvrdw5P/mevHrn+3J+6j1ZW1+1jwIAAJQO3XqlU0C7k4NSFWywowCQPyR2ABQNrdzR5M5bI8/LR5Nvm/cAAADFTity3E6PtMf75VD1w9KVGJS4L20fBYD8IrEDoKjoNqyrMx/Ji7e+LRemT8vM8qTkNtiaBQAAipNOvgq6I9IU7ZKTdU+byVc63hwACoXEDoCik1tfk/GlEXnx9rflvdGXZXJ5hL47AACg6Ojkq7A3ZpI5z7T8vmQCtaZyBwAKicQOgKK0vrFu+uy8PvxD01T5xuxF+wgAAEBxqA42yIGqh+RY7ZOmSbJW7wBAoZHYAVDUZlem5PL0WZPgOT32qqyur9hHAAAAdk5Pcp8crHpIupKDEvOmSOoA2DEkdgAUvYXVWbk5d1lOj70m74z+xGzN0ooeAACAQnKYfjoh2ZM5IX3pg9IS7ZaoN2kfBYCdQWIHQEnIbeRkbPGOvD3ygnw0+Y7ZmrW4Nm8fBQAAyC+/KyjZYJ10xAfM5KuqYL14XX77KADsHBI7AEqKbsX6YPxNeeXOs3Jt9rzMr86YXjwAAAD58PHUq4ZIuwxmjsmhqofF6/abEecAUAxI7AAoSVq98/KdZ+Wt4R/L2NKwrG/k7CMAAADb4+7Wq7AMZo7LkZpHpS3Wax8BgOJBYgdAScptrMnS2oJcnTknrw59X94c/rF9BAAA4P55nD6pDTfLIw2/Ji3RHon6klbMax8FgOJBYgdASdM+O0MLN+Ti1Bl5c/iHMrxwU5ZzS/ZRAACAzXE53JIJ1Ehv6oDszhyVmlCTqdpxOlz2JwCguJDYAVDytLHy3Mq0nJt8R85OvCVXZj6U8cVhU9UDAABwrxK+tLTGdklXYo+0xHqkPtxqHwGA4kViB0BZuTx9Vs5OvCkXpk7LnflrJuGzYX0BAAB8Eu2j49VtV6EmaY31yu70EZPUcTs99icAoLiR2AFQdrT3zvXZC/LKne/Jhan3ZXZlykzTIsEDAAA+plOtNHkT9sSkOtQojzR8VZpj3WbbFQCUEhI7AMrS+sa6LOcW5drMOfnXa39rmizrewAAAKWNkBujHWZ8+eGax0xvHadDR5gzxhxAaSGxA6BsaYWOJnOmlsbkysxH8t7oy6YHz+r6sv0JAABQibSPzr7sA9Ie75eEPy0RT9w+AgClh8QOgIqg27Fuz1+TK9Nn5dL0GZPo0YlaWtkDAADKX8gTkYZIu3TGB6Q+3CZ14VaJ+1JMuwJQ8kjsAKgY6zo9a3XGbMu6PP2B3Ji9JEML12V6edxM1gIAAOUn7ktLdbBBGiJt0hLbJe2xPpPkIaEDoFyQ2AFQkZZzS3Jp+gM5O/6mXJk5KxNLI6aqJ2cqeDgtAgBQyrRfTsgTlZgvKW2xXulLHZCW6C4JemiMDKD8kNgBUNF0WtbQ/HV5a+R58z23MmN68OgWLaZoAQBQWrQKR5M6mtDpTx+So9WPSzZYL16Xz/4EAJQfEjsAKpomb3Lra6bJ8szKlHw48ba8P/ayGZeuPXgAAEBp0ORNbahZ+lKHZCB9SJL+avG7AuJ0usxocwAoVyR2AMCmfXZmVyZlanlcbs9dkYt2k+XRhdvWsTX7UwAAoFi4nR6JehPSmRiU9livqc5J+jMS8yatY177UwBQ3kjsAMAnmF+dkZGFWzK8eEtG5m/IzfnLcnvuqkn6kOQBAGBnaUPkqmCd1ISazXQrrdTR9wF3WJwOp/0pAKgMJHYA4DPoVq2F1VkzSevqzEdya/6qjC8Omcoe3bpFkgcAgPxzO90maaMJHa3QqQu1SGO0QxrC7ZIN1tmfAoDKRGIHADZhcnlMLky+L1dnPpTLMx/J3MqUmbC1ot/ry/anAADA/XI5XOJ1+cXnCpitVbXhZulKDEpztFsSvgwNkQHARmIHADbJTMuyTp2Lawtybfa8nJ981/p+Ty7PfGh/AgAA3A+HwylRb1La433Slzoo7bE+SfmzeoBGyADwS0jsAMAW6Uh0rdJZXluQhbV5mV4ek6sz5+XOwlW5PnvRbNnSceoAAODzpfxVUh9pk6ZIlzRG2iXuS4nfHZKAKyheV8BsxwIA/CoSOwCwDfRUura+KtMrEzK3Oi2zK1MytTwm40vDMrRwXcYWh2R6edyMUKcvDwCg0gXcIUn40pIK1JiETtpfIwl/xiRztIeOfntcPqpzAOAekNgBgDxZyS3L9Mq4jC7elsmlUZkxDZcnTdJnYW1W5ldnzevsyrQs5xbt/5kmxC0AAAMKSURBVAoAgPLhdwXE7w5ar0EJeaI/TdpEvHGz1UqTOdovR1/1M0y0AoDNI7EDAAW0sDonk8uj5ntiaVSmrFdN/GiyR7dtadWPNmLObeRMZc+q9T5nfSvd+qWfoeIHALCTtKmx2+mxXu9ujXKaJsc+86oxTeZ8HPv5RI4mb6oCDVIVrDfJHgDA9iCxAwBFQCt2ZpYnZHpl0iR6FtbmZH51xlT4zK3MmM+srC/I5NKYOQYAwE7RbVQRb0JC7qj2Mhafy2+2U2myRqtyaoJNpidOJlDD5CoAKAASOwBQBHTS1sbGuqxbp+R1yZmePfqTebXiH39Gq3b0FQCAnaJ9b3TLlOl/Y1rg6HuXea9fLqfLjtmfAQDkFYkdAAAAAACAEkV3MgAAAAAAgBJFYgcAAAAAAKBEkdgBAAAAAAAoUSR2AAAAAAAAShSJHQAAAAAAgBJFYgcAAAAAAKBEkdgBAAAAAAAoUSR2AAAAAAAAShSJHQAAAAAAgBJFYgcAAAAAAKBEkdgBAAAAAAAoUSR2AAAAAAAAShSJHQAAAAAAgBJFYgcAAAAAAKBEkdgBAAAAAAAoUSR2AAAAAAAAShSJHQAAAAAAgBJFYgcAAAAAAKBEkdgBAAAAAAAoUSR2AAAAAAAAShSJHQAAAAAAgBJFYgcAAAAAAKBEkdgBAAAAAAAoUSR2AAAAAAAAShSJHQAAAAAAgBJFYgcAAAAAAKBEkdgBAAAAAAAoUSR2AAAAAAAAShSJHQAAAAAAgBJFYgcAAAAAAKBEkdgBAAAAAAAoUSR2AAAAAAAAShSJHQAAAAAAgBJFYgcAAAAAAKBEkdgBAAAAAAAoUSR2AAAAAAAAShSJHQAAAAAAgBJFYgcAAAAAAKBEkdgBAAAAAAAoUSR2AAAAAAAAShSJHQAAAAAAgBJFYgcAAAAAAKBEkdgBAAAAAAAoUSR2AAAAAAAAShSJHQAAAAAAgBJFYgcAAAAAAKBEkdgBAAAAAAAoUSR2AAAAAAAAShSJHQAAAAAAgBJFYgcAAAAAAKAkifz/ARIupf/6LUnnAAAAAElFTkSuQmCC;" vertex="1" parent="GDhWvtcsFQyv_KERrtP--71">
          <mxGeometry x="20.21" width="59.57" height="53" as="geometry" />
        </mxCell>
        <mxCell id="GDhWvtcsFQyv_KERrtP--70" value="SpringBoot API" style="text;html=1;align=center;verticalAlign=middle;resizable=0;points=[];autosize=1;strokeColor=none;fillColor=none;" vertex="1" parent="GDhWvtcsFQyv_KERrtP--71">
          <mxGeometry y="46" width="100" height="30" as="geometry" />
        </mxCell>
        <mxCell id="GDhWvtcsFQyv_KERrtP--82" value="" style="group" vertex="1" connectable="0" parent="GDhWvtcsFQyv_KERrtP--90">
          <mxGeometry x="20" y="219" width="64" height="80" as="geometry" />
        </mxCell>
        <mxCell id="GDhWvtcsFQyv_KERrtP--80" value="" style="shape=image;verticalLabelPosition=bottom;labelBackgroundColor=default;verticalAlign=top;aspect=fixed;imageAspect=0;image=data:image/svg+xml,PHN2ZyB4bWxucz0iaHR0cDovL3d3dy53My5vcmcvMjAwMC9zdmciIHZpZXdCb3g9IjAgMCAxNTQgMTU0IiB3aWR0aD0iMjUwMCIgaGVpZ2h0PSIyNTAwIiBmaWxsPSJub25lIj48Y2lyY2xlIHI9Ijc3IiBmaWxsPSIjMDU5OThiIiBjeT0iNzciIGN4PSI3NyIvPjxwYXRoIGZpbGw9IiNmZmYiIGQ9Ik04MS4zNzUgMTguNjY3bC0zOC43NSA3MEg3Ny41bC0zLjg3NSA0Ni42NjYgMzguNzUtNzBINzcuNXoiLz48L3N2Zz4=;" vertex="1" parent="GDhWvtcsFQyv_KERrtP--82">
          <mxGeometry x="4.571428571428571" width="52.798020074247205" height="52.798020074247205" as="geometry" />
        </mxCell>
        <mxCell id="GDhWvtcsFQyv_KERrtP--81" value="FastAPI" style="text;html=1;align=center;verticalAlign=middle;resizable=0;points=[];autosize=1;strokeColor=none;fillColor=none;" vertex="1" parent="GDhWvtcsFQyv_KERrtP--82">
          <mxGeometry x="-4" y="50.76470588235294" width="70" height="30" as="geometry" />
        </mxCell>
        <mxCell id="GDhWvtcsFQyv_KERrtP--42" value="" style="group" vertex="1" connectable="0" parent="GDhWvtcsFQyv_KERrtP--14">
          <mxGeometry x="286" y="244" width="78" height="106" as="geometry" />
        </mxCell>
        <mxCell id="GDhWvtcsFQyv_KERrtP--38" value="" style="sketch=0;points=[[0,0,0],[0.25,0,0],[0.5,0,0],[0.75,0,0],[1,0,0],[0,1,0],[0.25,1,0],[0.5,1,0],[0.75,1,0],[1,1,0],[0,0.25,0],[0,0.5,0],[0,0.75,0],[1,0.25,0],[1,0.5,0],[1,0.75,0]];outlineConnect=0;fontColor=#232F3E;fillColor=#E7157B;strokeColor=#ffffff;dashed=0;verticalLabelPosition=bottom;verticalAlign=top;align=center;html=1;fontSize=12;fontStyle=0;aspect=fixed;shape=mxgraph.aws4.resourceIcon;resIcon=mxgraph.aws4.sqs;" vertex="1" parent="GDhWvtcsFQyv_KERrtP--42">
          <mxGeometry width="78" height="78" as="geometry" />
        </mxCell>
        <mxCell id="GDhWvtcsFQyv_KERrtP--41" value="SQS" style="text;html=1;align=center;verticalAlign=middle;resizable=0;points=[];autosize=1;strokeColor=none;fillColor=none;" vertex="1" parent="GDhWvtcsFQyv_KERrtP--42">
          <mxGeometry x="14" y="76" width="50" height="30" as="geometry" />
        </mxCell>
        <mxCell id="GDhWvtcsFQyv_KERrtP--32" value="" style="group" vertex="1" connectable="0" parent="GDhWvtcsFQyv_KERrtP--14">
          <mxGeometry x="286" y="39.120000000000005" width="78" height="107" as="geometry" />
        </mxCell>
        <mxCell id="GDhWvtcsFQyv_KERrtP--37" value="" style="group" vertex="1" connectable="0" parent="GDhWvtcsFQyv_KERrtP--32">
          <mxGeometry y="-39" width="78" height="107" as="geometry" />
        </mxCell>
        <mxCell id="GDhWvtcsFQyv_KERrtP--49" value="" style="group" vertex="1" connectable="0" parent="GDhWvtcsFQyv_KERrtP--37">
          <mxGeometry y="-3.552713678800501e-15" width="78" height="107" as="geometry" />
        </mxCell>
        <mxCell id="GDhWvtcsFQyv_KERrtP--31" value="RDS" style="text;html=1;align=center;verticalAlign=middle;resizable=0;points=[];autosize=1;strokeColor=none;fillColor=none;" vertex="1" parent="GDhWvtcsFQyv_KERrtP--49">
          <mxGeometry x="14" y="77" width="50" height="30" as="geometry" />
        </mxCell>
        <mxCell id="GDhWvtcsFQyv_KERrtP--48" value="" style="sketch=0;points=[[0,0,0],[0.25,0,0],[0.5,0,0],[0.75,0,0],[1,0,0],[0,1,0],[0.25,1,0],[0.5,1,0],[0.75,1,0],[1,1,0],[0,0.25,0],[0,0.5,0],[0,0.75,0],[1,0.25,0],[1,0.5,0],[1,0.75,0]];outlineConnect=0;fontColor=#232F3E;fillColor=#C925D1;strokeColor=#ffffff;dashed=0;verticalLabelPosition=bottom;verticalAlign=top;align=center;html=1;fontSize=12;fontStyle=0;aspect=fixed;shape=mxgraph.aws4.resourceIcon;resIcon=mxgraph.aws4.database;" vertex="1" parent="GDhWvtcsFQyv_KERrtP--49">
          <mxGeometry width="78" height="78" as="geometry" />
        </mxCell>
        <mxCell id="GDhWvtcsFQyv_KERrtP--96" style="edgeStyle=orthogonalEdgeStyle;rounded=0;orthogonalLoop=1;jettySize=auto;html=1;startArrow=open;startFill=0;endArrow=open;endFill=0;strokeWidth=2;strokeColor=#808080;" edge="1" parent="GDhWvtcsFQyv_KERrtP--32">
          <mxGeometry relative="1" as="geometry">
            <mxPoint x="-130" y="127.88" as="sourcePoint" />
            <mxPoint x="33.56000000000023" y="68" as="targetPoint" />
            <Array as="points">
              <mxPoint x="-115" y="127" />
              <mxPoint x="-115" y="128" />
              <mxPoint x="34" y="128" />
            </Array>
          </mxGeometry>
        </mxCell>
        <mxCell id="GDhWvtcsFQyv_KERrtP--94" style="edgeStyle=orthogonalEdgeStyle;rounded=0;orthogonalLoop=1;jettySize=auto;html=1;startArrow=open;startFill=0;endArrow=open;endFill=0;strokeWidth=2;strokeColor=#808080;exitX=1;exitY=0.5;exitDx=0;exitDy=0;exitPerimeter=0;entryX=0.495;entryY=1.109;entryDx=0;entryDy=0;entryPerimeter=0;" edge="1" parent="GDhWvtcsFQyv_KERrtP--14" source="GDhWvtcsFQyv_KERrtP--38" target="GDhWvtcsFQyv_KERrtP--43">
          <mxGeometry relative="1" as="geometry">
            <mxPoint x="416.03" y="258" as="sourcePoint" />
            <mxPoint x="500.03" y="275" as="targetPoint" />
            <Array as="points">
              <mxPoint x="444" y="283" />
            </Array>
          </mxGeometry>
        </mxCell>
        <mxCell id="GDhWvtcsFQyv_KERrtP--102" style="edgeStyle=orthogonalEdgeStyle;rounded=0;orthogonalLoop=1;jettySize=auto;html=1;startArrow=open;startFill=0;endArrow=open;endFill=0;strokeWidth=2;strokeColor=#808080;" edge="1" parent="GDhWvtcsFQyv_KERrtP--14" source="GDhWvtcsFQyv_KERrtP--31" target="GDhWvtcsFQyv_KERrtP--39">
          <mxGeometry relative="1" as="geometry">
            <mxPoint x="164.5600000000004" y="184.67999999999995" as="sourcePoint" />
            <mxPoint x="335.03030303030323" y="156.12" as="targetPoint" />
            <Array as="points">
              <mxPoint x="335" y="160" />
            </Array>
          </mxGeometry>
        </mxCell>
        <mxCell id="GDhWvtcsFQyv_KERrtP--45" style="edgeStyle=orthogonalEdgeStyle;rounded=0;orthogonalLoop=1;jettySize=auto;html=1;startArrow=open;startFill=0;endArrow=open;endFill=0;strokeWidth=2;strokeColor=#808080;" edge="1" parent="GDhWvtcsFQyv_KERrtP--11" source="GDhWvtcsFQyv_KERrtP--11" target="GDhWvtcsFQyv_KERrtP--38">
          <mxGeometry relative="1" as="geometry">
            <mxPoint x="-300" y="538" as="sourcePoint" />
            <mxPoint x="230" y="293" as="targetPoint" />
            <Array as="points">
              <mxPoint x="200" y="293" />
              <mxPoint x="200" y="293" />
            </Array>
          </mxGeometry>
        </mxCell>
        <mxCell id="GDhWvtcsFQyv_KERrtP--52" value="" style="sketch=0;outlineConnect=0;fontColor=#232F3E;gradientColor=none;fillColor=#232F3D;strokeColor=none;dashed=0;verticalLabelPosition=bottom;verticalAlign=top;align=center;html=1;fontSize=12;fontStyle=0;aspect=fixed;pointerEvents=1;shape=mxgraph.aws4.users;" vertex="1" parent="1">
          <mxGeometry x="140" y="290" width="78" height="78" as="geometry" />
        </mxCell>
        <mxCell id="GDhWvtcsFQyv_KERrtP--54" style="edgeStyle=orthogonalEdgeStyle;rounded=0;orthogonalLoop=1;jettySize=auto;html=1;startArrow=open;startFill=0;endArrow=open;endFill=0;strokeWidth=2;strokeColor=#808080;entryX=0;entryY=0.5;entryDx=0;entryDy=0;entryPerimeter=0;" edge="1" parent="1" target="GDhWvtcsFQyv_KERrtP--53">
          <mxGeometry relative="1" as="geometry">
            <Array as="points">
              <mxPoint x="312" y="359" />
              <mxPoint x="312" y="521" />
            </Array>
            <mxPoint x="230.5" y="359" as="sourcePoint" />
            <mxPoint x="370" y="401" as="targetPoint" />
          </mxGeometry>
        </mxCell>
        <mxCell id="GDhWvtcsFQyv_KERrtP--56" value="" style="group" vertex="1" connectable="0" parent="1">
          <mxGeometry x="370" y="482" width="78" height="106" as="geometry" />
        </mxCell>
        <mxCell id="GDhWvtcsFQyv_KERrtP--53" value="" style="sketch=0;points=[[0,0,0],[0.25,0,0],[0.5,0,0],[0.75,0,0],[1,0,0],[0,1,0],[0.25,1,0],[0.5,1,0],[0.75,1,0],[1,1,0],[0,0.25,0],[0,0.5,0],[0,0.75,0],[1,0.25,0],[1,0.5,0],[1,0.75,0]];outlineConnect=0;fontColor=#232F3E;fillColor=#8C4FFF;strokeColor=#ffffff;dashed=0;verticalLabelPosition=bottom;verticalAlign=top;align=center;html=1;fontSize=12;fontStyle=0;aspect=fixed;shape=mxgraph.aws4.resourceIcon;resIcon=mxgraph.aws4.route_53;" vertex="1" parent="GDhWvtcsFQyv_KERrtP--56">
          <mxGeometry width="78" height="78" as="geometry" />
        </mxCell>
        <mxCell id="GDhWvtcsFQyv_KERrtP--55" value="Route 53" style="text;html=1;align=center;verticalAlign=middle;resizable=0;points=[];autosize=1;strokeColor=none;fillColor=none;" vertex="1" parent="GDhWvtcsFQyv_KERrtP--56">
          <mxGeometry x="4" y="76" width="70" height="30" as="geometry" />
        </mxCell>
        <mxCell id="GDhWvtcsFQyv_KERrtP--68" value="" style="group" vertex="1" connectable="0" parent="1">
          <mxGeometry x="479" y="327" width="150" height="30" as="geometry" />
        </mxCell>
        <mxCell id="GDhWvtcsFQyv_KERrtP--35" style="edgeStyle=orthogonalEdgeStyle;rounded=0;orthogonalLoop=1;jettySize=auto;html=1;startArrow=open;startFill=0;endArrow=open;endFill=0;strokeWidth=2;strokeColor=#808080;" edge="1" parent="GDhWvtcsFQyv_KERrtP--68" target="GDhWvtcsFQyv_KERrtP--11">
          <mxGeometry relative="1" as="geometry">
            <Array as="points">
              <mxPoint x="121" y="24" />
              <mxPoint x="121" y="24" />
            </Array>
            <mxPoint x="-31" y="23.5" as="sourcePoint" />
            <mxPoint x="121" y="37" as="targetPoint" />
          </mxGeometry>
        </mxCell>
        <mxCell id="GDhWvtcsFQyv_KERrtP--36" value="&lt;font style=&quot;font-size: 10px;&quot;&gt;https://api.quizstreams.com&lt;/font&gt;" style="text;html=1;align=center;verticalAlign=middle;resizable=0;points=[];autosize=1;strokeColor=none;fillColor=none;" vertex="1" parent="GDhWvtcsFQyv_KERrtP--68">
          <mxGeometry width="150" height="30" as="geometry" />
        </mxCell>
        <mxCell id="GDhWvtcsFQyv_KERrtP--79" value="" style="group" vertex="1" connectable="0" parent="1">
          <mxGeometry x="485" y="225" width="145" height="114" as="geometry" />
        </mxCell>
        <mxCell id="GDhWvtcsFQyv_KERrtP--34" value="&lt;font style=&quot;font-size: 10px;&quot;&gt;https://quizstreams.com&lt;/font&gt;" style="text;html=1;align=center;verticalAlign=middle;resizable=0;points=[];autosize=1;strokeColor=none;fillColor=none;" vertex="1" parent="GDhWvtcsFQyv_KERrtP--79">
          <mxGeometry width="130" height="30" as="geometry" />
        </mxCell>
        <mxCell id="UEzPUAAOIrF-is8g5C7q-142" style="edgeStyle=orthogonalEdgeStyle;rounded=0;orthogonalLoop=1;jettySize=auto;html=1;startArrow=open;startFill=0;endArrow=open;endFill=0;strokeWidth=2;strokeColor=#808080;exitX=1;exitY=0.5;exitDx=0;exitDy=0;exitPerimeter=0;" parent="GDhWvtcsFQyv_KERrtP--79" source="GDhWvtcsFQyv_KERrtP--1" edge="1">
          <mxGeometry relative="1" as="geometry">
            <mxPoint x="-37" y="150.5" as="sourcePoint" />
            <mxPoint x="145" y="25" as="targetPoint" />
            <Array as="points">
              <mxPoint x="5" y="114" />
              <mxPoint x="5" y="25" />
              <mxPoint x="145" y="25" />
            </Array>
          </mxGeometry>
        </mxCell>
        <mxCell id="GDhWvtcsFQyv_KERrtP--85" value="" style="edgeStyle=orthogonalEdgeStyle;rounded=0;orthogonalLoop=1;jettySize=auto;html=1;startArrow=none;startFill=0;endArrow=open;endFill=0;strokeWidth=2;strokeColor=#808080;entryX=0.485;entryY=0.043;entryDx=0;entryDy=0;entryPerimeter=0;" edge="1" parent="1">
          <mxGeometry relative="1" as="geometry">
            <mxPoint x="710.0000000000002" y="388.12" as="sourcePoint" />
            <mxPoint x="710.10145" y="422.39900000000006" as="targetPoint" />
            <Array as="points" />
          </mxGeometry>
        </mxCell>
        <mxCell id="GDhWvtcsFQyv_KERrtP--92" value="&lt;font style=&quot;font-size: 11px;&quot;&gt;Quiz Generation Queue&lt;/font&gt;" style="text;html=1;align=center;verticalAlign=middle;resizable=0;points=[];autosize=1;strokeColor=none;fillColor=none;" vertex="1" parent="1">
          <mxGeometry x="786" y="427" width="140" height="30" as="geometry" />
        </mxCell>
      </root>
    </mxGraphModel>
  </diagram>
</mxfile>
